<svg width="68" height="56" viewBox="0 0 68 56" fill="none" xmlns="http://www.w3.org/2000/svg">
<path d="M13.9397 39.2046L13.6677 39.0686C13.5317 39.0006 13.3957 39.0006 13.3277 39.0686L13.0557 39.2726C12.7157 39.4766 12.5117 39.8846 12.5117 40.2926V41.3806C12.5117 41.5846 12.6477 41.7206 12.8517 41.7206H14.2117C14.4157 41.7206 14.5517 41.5846 14.5517 41.3806V40.2926C14.4837 39.8166 14.2797 39.4086 13.9397 39.2046ZM13.8037 41.0406H13.1237V40.2926C13.1237 40.0886 13.1917 39.9526 13.3957 39.8166L13.4637 39.7486L13.5317 39.8166C13.6677 39.9526 13.8037 40.0886 13.8037 40.2926V41.0406Z" fill="#594454"/>
<path d="M59.0243 43.761H58.6843V32.881H59.0243C59.2283 32.881 59.3643 32.745 59.3643 32.541V30.501C59.3643 30.297 59.2283 30.161 59.0243 30.161H58.6843V29.141C58.6843 28.937 58.5483 28.801 58.3443 28.801H56.4403C56.3043 27.645 55.4883 26.557 54.1963 25.945L51.0003 24.381V23.905C51.0003 23.701 50.8643 23.565 50.6603 23.565C50.4563 23.565 50.3203 23.769 50.3203 23.905V24.381L47.1923 25.877C45.9003 26.489 45.0843 27.577 44.9483 28.733H43.7923V26.693H44.1323C44.3363 26.693 44.4723 26.557 44.4723 26.353V24.313C44.4723 24.109 44.3363 23.973 44.1323 23.973H43.7923V19.893H44.1323C44.3363 19.893 44.4723 19.757 44.4723 19.553V17.513C44.4723 17.309 44.3363 17.173 44.1323 17.173H43.1123V14.453H43.4523C43.6563 14.453 43.7923 14.317 43.7923 14.113V12.753C43.7923 12.549 43.6563 12.413 43.4523 12.413H43.1123V11.053H43.4523C43.6563 11.053 43.7923 10.917 43.7923 10.713V9.35297C43.7923 9.14897 43.6563 9.01297 43.4523 9.01297H43.1123V8.33297C43.1123 7.72097 42.7043 7.17697 42.0923 7.04097V6.63297C42.0923 6.42897 41.9563 6.29297 41.7523 6.29297C41.5483 6.29297 41.4123 6.42897 41.4123 6.63297V7.04097C40.8003 7.17697 40.3923 7.72097 40.3923 8.33297V9.01297H40.0523C39.8483 9.01297 39.7123 9.14897 39.7123 9.35297V10.713C39.7123 10.917 39.8483 11.053 40.0523 11.053H40.3923V12.413H40.0523C39.8483 12.413 39.7123 12.549 39.7123 12.753V14.113C39.7123 14.317 39.8483 14.453 40.0523 14.453H40.3923V17.173H39.3723C39.1683 17.173 39.0323 17.309 39.0323 17.513V19.553C39.0323 19.757 39.1683 19.893 39.3723 19.893H39.7123V23.973H39.3043C38.9643 23.361 38.4883 22.749 37.8083 22.341L35.2243 20.777V20.165C35.2243 19.961 35.0883 19.825 34.8843 19.825C34.6803 19.825 34.5443 19.961 34.5443 20.165V20.777L31.9603 22.477C31.3483 22.885 30.8043 23.429 30.5323 24.041H30.1243V19.961H30.4643C30.6683 19.961 30.8043 19.825 30.8043 19.621V17.581C30.8043 17.377 30.6683 17.241 30.4643 17.241H29.4443V14.521H29.7843C29.9883 14.521 30.1243 14.385 30.1243 14.181V12.821C30.1243 12.617 29.9883 12.481 29.7843 12.481H29.4443V11.121H29.7843C29.9883 11.121 30.1243 10.985 30.1243 10.781V9.42097C30.1243 9.21697 29.9883 9.08097 29.7843 9.08097H29.4443V8.40097C29.4443 7.78897 29.0363 7.24497 28.4243 7.10897V6.70097C28.4243 6.49697 28.2883 6.36097 28.0843 6.36097C27.8803 6.36097 27.7443 6.49697 27.7443 6.70097V7.10897C27.1323 7.24497 26.7243 7.78897 26.7243 8.40097V9.08097H26.3843C26.1803 9.08097 26.0443 9.21697 26.0443 9.42097V10.781C26.0443 10.985 26.1803 11.121 26.3843 11.121H26.7243V12.481H26.3843C26.1803 12.481 26.0443 12.617 26.0443 12.821V14.181C26.0443 14.385 26.1803 14.521 26.3843 14.521H26.7243V17.241H25.7043C25.5003 17.241 25.3643 17.377 25.3643 17.581V19.621C25.3643 19.825 25.5003 19.961 25.7043 19.961H26.0443V24.041H25.7043C25.5003 24.041 25.3643 24.177 25.3643 24.381V26.421C25.3643 26.625 25.5003 26.761 25.7043 26.761H26.0443V28.801H24.4803C24.3443 27.645 23.5283 26.557 22.2363 25.945L19.0403 24.381V23.905C19.0403 23.701 18.9043 23.565 18.7003 23.565C18.4963 23.565 18.3603 23.769 18.3603 23.905V24.381L15.1643 25.945C13.8723 26.557 13.0563 27.645 12.9203 28.801H11.4243C11.2203 28.801 11.0843 28.937 11.0843 29.141V30.161H10.7443C10.5403 30.161 10.4043 30.297 10.4043 30.501V32.541C10.4043 32.745 10.5403 32.881 10.7443 32.881H11.0843V43.761H10.7443C10.5403 43.761 10.4043 43.897 10.4043 44.101C10.4043 44.305 10.5403 44.441 10.7443 44.441H59.0243C59.2283 44.441 59.3643 44.305 59.3643 44.101C59.3643 43.897 59.2283 43.761 59.0243 43.761ZM58.6843 32.201H43.7243V30.841H58.6843V32.201ZM45.0843 29.481H46.4443V30.161H45.0843V29.481ZM54.6043 30.161H53.2443V29.481H54.6043V30.161ZM52.5643 30.161H51.2043V29.481H52.5643V30.161ZM50.5243 30.161H49.1643V29.481H50.5243V30.161ZM48.4843 30.161H47.1243V29.481H48.4843V30.161ZM58.0043 29.481V30.161H57.3243V29.481H58.0043ZM56.6443 30.161H55.2843V29.481H56.6443V30.161ZM47.4643 26.557L50.6603 24.993L53.8563 26.557C54.9443 27.101 55.5563 27.917 55.6923 28.801H45.5603C45.6963 27.849 46.3763 27.033 47.4643 26.557ZM44.4043 29.481V30.161H43.7243V29.481H44.4043ZM41.0043 8.40097C41.0043 8.06097 41.2763 7.72097 41.6843 7.72097C42.0243 7.72097 42.3643 8.06097 42.3643 8.40097V9.08097H41.0043V8.40097ZM40.3243 9.76097H43.0443V10.441H40.3243V9.76097ZM41.0043 11.121H42.3643V12.481H41.0043V11.121ZM40.3243 13.161H43.0443V13.841H40.3243V13.161ZM41.0043 14.521H42.3643V17.241H41.0043V14.521ZM39.6443 17.921H43.7243V19.281H39.6443V17.921ZM40.3243 19.961H43.0443V24.041H40.3243V19.961ZM39.6443 24.721H43.7243V26.081H39.6443V24.721ZM30.2603 26.761H31.4843V27.441H30.1243V26.761H30.2603ZM39.6443 29.481H30.1243V28.121H39.6443V29.481ZM36.2443 27.441V26.761H37.6043V27.441H36.2443ZM35.5643 27.441H34.2043V26.761H35.5643V27.441ZM33.5243 27.441H32.1643V26.761H33.5243V27.441ZM30.1243 38.865C30.1243 36.689 31.2123 34.649 33.1163 33.425L34.8843 32.269L36.6523 33.425C38.5563 34.581 39.6443 36.621 39.6443 38.865V43.761H30.1243V38.865ZM36.9923 32.813L35.0203 31.589C34.8843 31.521 34.7483 31.521 34.6803 31.589L32.7083 32.881C31.5523 33.629 30.6683 34.649 30.1243 35.873V30.161H39.6443V35.805C39.1003 34.581 38.2163 33.561 36.9923 32.813ZM39.6443 27.441H38.2843V26.761H39.6443V27.441ZM32.3683 23.021L34.8843 21.457L37.4003 23.021C38.3523 23.633 38.9643 24.585 38.9643 25.741V26.081H30.8043V25.741C30.8043 24.653 31.3483 23.633 32.3683 23.021ZM27.4043 8.40097C27.4043 8.06097 27.6763 7.72097 28.0843 7.72097C28.4243 7.72097 28.7643 8.06097 28.7643 8.40097V9.08097H27.4043V8.40097ZM26.7243 9.76097H29.4443V10.441H26.7243V9.76097ZM27.4043 11.121H28.7643V12.481H27.4043V11.121ZM26.7243 13.161H29.4443V13.841H26.7243V13.161ZM27.4043 14.521H28.7643V17.241H27.4043V14.521ZM26.0443 17.921H30.1243V19.281H26.0443V17.921ZM26.7243 19.961H29.4443V24.041H26.7243V19.961ZM26.0443 24.721H30.1243V26.081H26.0443V24.721ZM26.0443 29.481V30.161H25.3643V29.481H26.0443ZM24.6843 30.161H23.3243V29.481H24.6843V30.161ZM13.1243 29.481H14.4843V30.161H13.1243V29.481ZM15.1643 29.481H16.5243V30.161H15.1643V29.481ZM17.2043 29.481H18.5643V30.161H17.2043V29.481ZM19.2443 29.481H20.6043V30.161H19.2443V29.481ZM21.2843 29.481H22.6443V30.161H21.2843V29.481ZM15.5043 26.557L18.7003 24.993L21.8963 26.557C22.9843 27.101 23.6643 27.917 23.8003 28.801H13.6003C13.7363 27.917 14.4163 27.033 15.5043 26.557ZM11.7643 29.481H12.4443V30.161H11.7643V29.481ZM11.0843 30.841H26.0443V32.201H11.0843V30.841ZM11.7643 32.881H26.0443V43.761H22.6443V39.273C22.6443 37.573 21.8283 36.077 20.4003 35.193L19.1083 34.377C18.9723 34.309 18.8363 34.309 18.7683 34.377L17.4763 35.193C16.0483 36.077 15.2323 37.641 15.2323 39.273V43.761H11.8323V32.881H11.7643ZM21.9643 43.761H15.8443V39.341C15.8443 37.913 16.5923 36.621 17.7483 35.805L18.9043 35.057L19.9923 35.737C21.2163 36.485 21.9643 37.845 21.9643 39.273V43.761ZM26.7243 32.541V26.761H29.4443V43.761H26.7243V32.541ZM40.3243 38.865V26.761H43.0443V43.761H40.3243V38.865ZM53.9243 43.761H47.8043V39.341C47.8043 37.913 48.5523 36.621 49.7083 35.805L50.8643 35.057L51.9523 35.737C53.1763 36.485 53.9243 37.845 53.9243 39.273V43.761ZM54.6043 43.761V39.273C54.6043 37.573 53.7883 36.077 52.3603 35.193L51.0683 34.377C50.9323 34.309 50.7963 34.309 50.7283 34.377L49.4363 35.193C48.0083 36.077 47.1923 37.641 47.1923 39.273V43.761H43.7923V32.881H58.0723V43.761H54.6043Z" fill="#594454"/>
<path d="M23.6643 41.7197H25.0243C25.2283 41.7197 25.3643 41.5837 25.3643 41.3797V40.2917C25.3643 39.8837 25.1603 39.4757 24.8203 39.2717L24.5483 39.1357C24.4123 39.0677 24.2763 39.0677 24.2083 39.1357L23.9363 39.3397C23.5963 39.5437 23.3923 39.9517 23.3923 40.3597V41.4477C23.3243 41.5837 23.4603 41.7197 23.6643 41.7197ZM24.0043 40.2917C24.0043 40.0877 24.0723 39.9517 24.2763 39.8157L24.3443 39.7477L24.4123 39.8157C24.5483 39.9517 24.6843 40.0877 24.6843 40.2917V41.0397H24.0043V40.2917ZM15.3003 35.8037C15.8443 35.8037 16.3203 35.3277 16.3203 34.7837C16.3203 34.2397 15.8443 33.7637 15.3003 33.7637C14.7563 33.7637 14.2803 34.2397 14.2803 34.7837C14.2803 35.3277 14.7563 35.8037 15.3003 35.8037ZM15.3003 34.4437C15.5043 34.4437 15.6403 34.5797 15.6403 34.7837C15.6403 34.9877 15.5043 35.1237 15.3003 35.1237C15.0963 35.1237 14.9603 34.9877 14.9603 34.7837C14.9603 34.5797 15.0963 34.4437 15.3003 34.4437ZM22.1003 35.8037C22.6443 35.8037 23.1203 35.3277 23.1203 34.7837C23.1203 34.2397 22.6443 33.7637 22.1003 33.7637C21.5563 33.7637 21.0803 34.2397 21.0803 34.7837C21.0803 35.3277 21.5563 35.8037 22.1003 35.8037ZM22.1003 34.4437C22.3043 34.4437 22.4403 34.5797 22.4403 34.7837C22.4403 34.9877 22.3043 35.1237 22.1003 35.1237C21.8963 35.1237 21.7603 34.9877 21.7603 34.7837C21.7603 34.5797 21.8963 34.4437 22.1003 34.4437ZM45.9003 39.2037L45.6283 39.0677C45.4923 38.9997 45.3563 38.9997 45.2883 39.0677L45.0163 39.2717C44.6763 39.4757 44.4723 39.8837 44.4723 40.2917V41.3797C44.4723 41.5837 44.6083 41.7197 44.8123 41.7197H46.1723C46.3763 41.7197 46.5123 41.5837 46.5123 41.3797V40.2917C46.4443 39.8157 46.2403 39.4077 45.9003 39.2037ZM45.7643 41.0397H45.0843V40.2917C45.0843 40.0877 45.1523 39.9517 45.3563 39.8157L45.4243 39.7477L45.4923 39.8157C45.6283 39.9517 45.7643 40.0877 45.7643 40.2917V41.0397ZM56.7803 39.2037L56.5083 39.0677C56.3723 38.9997 56.2363 38.9997 56.1683 39.0677L55.8963 39.2717C55.5563 39.4757 55.3523 39.8837 55.3523 40.2917V41.3797C55.3523 41.5837 55.4883 41.7197 55.6923 41.7197H57.0523C57.2563 41.7197 57.3923 41.5837 57.3923 41.3797V40.2917C57.3243 39.8157 57.1203 39.4077 56.7803 39.2037ZM56.6443 41.0397H55.9643V40.2917C55.9643 40.0877 56.0323 39.9517 56.2363 39.8157L56.3043 39.7477L56.3723 39.8157C56.5083 39.9517 56.6443 40.0877 56.6443 40.2917V41.0397ZM47.2603 33.7637C46.7163 33.7637 46.2403 34.2397 46.2403 34.7837C46.2403 35.3277 46.7163 35.8037 47.2603 35.8037C47.8043 35.8037 48.2803 35.3277 48.2803 34.7837C48.2803 34.2397 47.8043 33.7637 47.2603 33.7637ZM47.2603 35.1237C47.0563 35.1237 46.9203 34.9877 46.9203 34.7837C46.9203 34.5797 47.0563 34.4437 47.2603 34.4437C47.4643 34.4437 47.6003 34.5797 47.6003 34.7837C47.6003 34.9877 47.4643 35.1237 47.2603 35.1237ZM54.0603 33.7637C53.5163 33.7637 53.0403 34.2397 53.0403 34.7837C53.0403 35.3277 53.5163 35.8037 54.0603 35.8037C54.6043 35.8037 55.0803 35.3277 55.0803 34.7837C55.0803 34.2397 54.6043 33.7637 54.0603 33.7637ZM54.0603 35.1237C53.8563 35.1237 53.7203 34.9877 53.7203 34.7837C53.7203 34.5797 53.8563 34.4437 54.0603 34.4437C54.2643 34.4437 54.4003 34.5797 54.4003 34.7837C54.4003 34.9877 54.2643 35.1237 54.0603 35.1237Z" fill="#594454"/>
</svg>
