<svg width="48" height="48" viewBox="0 0 48 48" fill="none" xmlns="http://www.w3.org/2000/svg">
<g clip-path="url(#clip0_6062_8445)">
<path d="M8.25006 15C8.25006 14.586 8.58606 14.25 9.00006 14.25C9.41406 14.25 9.75006 14.586 9.75006 15C9.75006 15.414 9.41406 15.75 9.00006 15.75C8.58606 15.75 8.25006 15.414 8.25006 15ZM39.0001 15.75C39.4141 15.75 39.7501 15.414 39.7501 15C39.7501 14.586 39.4141 14.25 39.0001 14.25C38.5861 14.25 38.2501 14.586 38.2501 15C38.2501 15.414 38.5861 15.75 39.0001 15.75ZM9.00006 32.25C8.58606 32.25 8.25006 32.586 8.25006 33C8.25006 33.414 8.58606 33.75 9.00006 33.75C9.41406 33.75 9.75006 33.414 9.75006 33C9.75006 32.586 9.41406 32.25 9.00006 32.25ZM38.2501 33C38.2501 33.414 38.5861 33.75 39.0001 33.75C39.4141 33.75 39.7501 33.414 39.7501 33C39.7501 32.586 39.4141 32.25 39.0001 32.25C38.5861 32.25 38.2501 32.586 38.2501 33ZM24.0001 27C23.5861 27 23.2501 27.336 23.2501 27.75C23.2501 28.164 23.5861 28.5 24.0001 28.5C24.4141 28.5 24.7501 28.164 24.7501 27.75C24.7501 27.336 24.4141 27 24.0001 27ZM24.0001 3.75C24.4141 3.75 24.7501 3.414 24.7501 3C24.7501 2.586 24.4141 2.25 24.0001 2.25C23.5861 2.25 23.2501 2.586 23.2501 3C23.2501 3.414 23.5861 3.75 24.0001 3.75ZM12.0001 45.54H36.0001V44.46H12.0001V45.54ZM45.4996 27.207C45.4156 27.408 45.2191 27.54 45.0001 27.54H42.5401V38.4585H45.0001V39.54H36.5401V41.4585H42.0001V42.54H6.00006V41.46H11.4601V39.54H3.00006V38.46H5.46006V27.54H3.00006C2.78106 27.54 2.58456 27.408 2.50056 27.2055C2.41656 27.003 2.46306 26.772 2.61756 26.616L5.46006 23.775V21C5.46006 19.0485 7.04856 17.46 9.00006 17.46C10.9516 17.46 12.5401 19.0485 12.5401 21V23.46H15.0001C15.2191 23.46 15.4156 23.5905 15.4996 23.793C15.5836 23.994 15.5371 24.2265 15.3826 24.381L13.3036 26.46H17.4601V21.2235L14.6176 18.381C14.4631 18.2265 14.4166 17.994 14.5006 17.793C14.5846 17.592 14.7811 17.46 15.0001 17.46H17.4601V15C17.4601 12.1095 19.3561 9.681 21.9601 8.8185V7.5C21.9601 6.375 22.8751 5.46 24.0001 5.46C25.1251 5.46 26.0401 6.375 26.0401 7.5V8.8185C28.6441 9.681 30.5401 12.111 30.5401 15V17.46H33.0001C33.2191 17.46 33.4156 17.5905 33.4996 17.793C33.5836 17.994 33.5356 18.2265 33.3826 18.381L30.5401 21.2235V26.46H34.6966L32.6176 24.3825C32.4631 24.228 32.4166 23.9955 32.5006 23.7945C32.5846 23.592 32.7826 23.4615 33.0001 23.4615H35.4601V21C35.4601 19.0485 37.0486 17.46 39.0001 17.46C40.9516 17.46 42.5401 19.0485 42.5401 21V23.7765L45.3826 26.6175C45.5356 26.7735 45.5836 27.0045 45.4996 27.207ZM36.5401 23.46H41.4586V21C41.4586 19.644 40.3561 18.54 38.9986 18.54C37.6411 18.54 36.5386 19.644 36.5386 21L36.5401 23.46ZM12.5401 30.54V38.4585H14.4601V30.54H12.5401ZM15.5401 38.46H17.4601V30.54H15.5401V38.46ZM18.5401 30.54V38.4585H20.4601V30.54H18.5401ZM21.5401 29.46H26.4601V27.225L24.0001 24.7635L21.5401 27.2235V29.46ZM21.5401 30.54V38.4585H26.4601V30.54H21.5401ZM27.5401 38.46H29.4586V30.54H27.5401V38.46ZM15.5401 39.54V41.4585H17.4601V39.54H15.5401ZM18.5401 41.46H20.4601V39.54H18.5401V41.46ZM21.5401 41.46H26.4601V39.54H21.5401V41.46ZM27.5401 41.46H29.4586V39.54H27.5401V41.46ZM30.5401 41.46H32.4586V39.54H30.5401V41.46ZM32.4601 38.46V30.54H30.5401V38.4585L32.4601 38.46ZM33.5401 38.46H35.4586V30.54H33.5401V38.46ZM37.6966 29.46L35.7766 27.5415H27.5416V29.46H37.6966ZM23.0401 8.5575C23.3551 8.511 23.6716 8.46 24.0001 8.46C24.3286 8.46 24.6451 8.5095 24.9601 8.5575V7.5C24.9601 6.9705 24.5296 6.54 24.0001 6.54C23.4706 6.54 23.0401 6.9705 23.0401 7.5V8.5575ZM18.5401 15V17.46H21.9601V13.5C21.9601 12.375 22.8751 11.46 24.0001 11.46C25.1251 11.46 26.0401 12.375 26.0401 13.5V17.46H29.4586V15C29.4586 11.9895 27.0091 9.54 23.9986 9.54C20.9896 9.54 18.5401 11.9895 18.5401 15ZM24.9601 17.46V13.5C24.9601 12.9705 24.5296 12.54 24.0001 12.54C23.4706 12.54 23.0401 12.9705 23.0401 13.5V17.46H24.9601ZM16.3036 18.54L18.2236 20.46H29.7766L31.6966 18.54H30.0001H18.0001H16.3036ZM18.5401 26.46H20.7766L23.6191 23.619C23.8306 23.4075 24.1711 23.4075 24.3826 23.619L27.2251 26.46H29.4601V21.54H18.5401V26.46ZM12.2236 27.54L10.3036 29.4585H20.4601V27.54H12.2236ZM6.54006 21V23.46H11.4601V21C11.4601 19.644 10.3561 18.54 9.00006 18.54C7.64406 18.54 6.54006 19.644 6.54006 21ZM4.30356 26.46H11.7766L13.6966 24.54H6.22356L4.30356 26.46ZM11.4601 38.46V30.54H9.00006C8.78106 30.54 8.58456 30.408 8.50056 30.2055C8.41656 30.003 8.46306 29.772 8.61756 29.616L10.6951 27.5385H6.54006V38.457H11.4601V38.46ZM12.5401 41.46H14.4601V39.54H12.5401V41.46ZM35.4601 39.54H33.5401V41.4585H35.4586L35.4601 39.54ZM41.4601 27.54H37.3036L39.3826 29.6175C39.5371 29.7735 39.5836 30.0045 39.4996 30.207C39.4156 30.4095 39.2191 30.54 39.0001 30.54H36.5401V38.4585H41.4586L41.4601 27.54ZM43.6966 26.46L41.7766 24.54H34.3051L36.2251 26.46H43.6966Z" fill="#594454"/>
</g>
<defs>
<clipPath id="clip0_6062_8445">
<rect width="48" height="48" fill="white"/>
</clipPath>
</defs>
</svg>
