<svg width="38" height="38" viewBox="0 0 38 38" fill="none" xmlns="http://www.w3.org/2000/svg">
<path d="M11.4417 4.27493L14.224 6.02827C14.552 6.21804 14.9379 6.28159 15.3094 6.20699C15.1365 6.1759 14.9703 6.11545 14.8178 6.02827L12.0355 4.27493C11.8223 4.11818 11.5551 4.10393 11.374 4.23752C11.396 4.24999 11.4197 4.2589 11.4417 4.27493Z" fill="#9E919C"/>
<path d="M27.0156 36.8125H28.2031V35.625C28.2031 35.9399 28.078 36.242 27.8553 36.4647C27.6326 36.6874 27.3306 36.8125 27.0156 36.8125Z" fill="#F0EEEF"/>
<path d="M21.3152 0.890625C20.7583 0.890625 20.3059 1.34247 20.3059 1.9V2.96875C20.3125 3.0429 20.3467 3.11189 20.4016 3.16213C20.4565 3.21237 20.5283 3.24023 20.6027 3.24023C20.6772 3.24023 20.7489 3.21237 20.8039 3.16213C20.8588 3.11189 20.893 3.0429 20.8996 2.96875V1.9C20.9037 1.79257 20.9492 1.69089 21.0267 1.61631C21.1041 1.54174 21.2074 1.50008 21.3149 1.50008C21.4225 1.50008 21.5258 1.54174 21.6032 1.61631C21.6807 1.69089 21.7262 1.79257 21.7303 1.9L21.7136 7.62138C21.7136 7.64988 21.7196 7.67184 21.7208 7.69856C21.2826 7.61386 20.8408 7.54946 20.3967 7.50559C20.3494 7.48789 20.2983 7.48258 20.2483 7.49016H20.2471C19.5268 7.42015 18.8022 7.40745 18.0799 7.45216C17.7913 7.47116 17.504 7.50084 17.2178 7.53766V7.125C17.2178 7.04626 17.1865 6.97075 17.1308 6.91508C17.0751 6.8594 16.9996 6.82812 16.9209 6.82812C16.8422 6.82812 16.7667 6.8594 16.711 6.91508C16.6553 6.97075 16.624 7.04626 16.624 7.125V7.62969C15.1192 7.89191 13.6672 8.3979 12.3253 9.12772L11.4869 4.87884C11.4441 4.67459 11.4691 4.51903 11.5528 4.46559C11.6258 4.41631 11.7565 4.43828 11.8764 4.52497L14.6688 6.28544C15.0584 6.50799 15.515 6.58305 15.9554 6.49694C16.3958 6.41084 16.7905 6.16929 17.0676 5.81637C17.1887 5.66022 17.2748 5.47497 17.3187 5.28437L18.0449 1.96234C18.0491 1.94163 18.0513 1.92055 18.0514 1.89941C18.0514 1.78941 18.0951 1.68392 18.1729 1.60614C18.2506 1.52837 18.3561 1.48467 18.4661 1.48467C18.5761 1.48467 18.6816 1.52837 18.7594 1.60614C18.8372 1.68392 18.8809 1.78941 18.8809 1.89941V2.96875C18.8809 3.04733 18.9121 3.12269 18.9676 3.17825C19.0232 3.23382 19.0986 3.26503 19.1771 3.26503C19.2557 3.26503 19.3311 3.23382 19.3867 3.17825C19.4422 3.12269 19.4734 3.04733 19.4734 2.96875V1.90059C19.4733 1.6333 19.3671 1.37699 19.1782 1.18787C18.9893 0.998755 18.7331 0.892284 18.4658 0.891812C17.9208 0.891812 17.4743 1.32644 17.4565 1.86734L16.7855 4.99344L16.744 5.13475C16.7155 5.25587 16.6644 5.36631 16.5973 5.453C16.4102 5.6918 16.1437 5.85576 15.8462 5.91522C15.5487 5.97468 15.2397 5.92571 14.9752 5.77719L12.2101 4.03572C11.9061 3.81306 11.5136 3.78575 11.2328 3.96744C11.0891 4.05947 10.7696 4.34328 10.9044 4.997L11.8105 9.58669C12.4292 12.7217 13.1838 14.139 16.0303 14.2939V18.7031H10.3896C10.3109 18.7031 10.2354 18.7344 10.1797 18.7901C10.1241 18.8458 10.0928 18.9213 10.0928 19V36.5156H8.6084C8.52966 36.5156 8.45415 36.5469 8.39848 36.6026C8.3428 36.6583 8.31152 36.7338 8.31152 36.8125C8.31152 36.8912 8.3428 36.9667 8.39848 37.0224C8.45415 37.0781 8.52966 37.1094 8.6084 37.1094H31.1709C31.2496 37.1094 31.3251 37.0781 31.3808 37.0224C31.4365 36.9667 31.4678 36.8912 31.4678 36.8125C31.4678 36.7338 31.4365 36.6583 31.3808 36.6026C31.3251 36.5469 31.2496 36.5156 31.1709 36.5156H29.6871V19C29.6871 18.9213 29.6558 18.8458 29.6002 18.7901C29.5445 18.7344 29.469 18.7031 29.3902 18.7031H17.8121V14.2696L18.1506 14.2476C18.2723 14.2381 18.391 14.2156 18.5116 14.1989C18.5216 14.1989 18.5311 14.2025 18.5412 14.2025H18.546C18.5876 14.2025 18.6267 14.193 18.6624 14.1782C19.4342 14.0535 20.1942 13.7952 21.0136 13.3629C21.931 12.879 22.8364 12.2164 23.7057 11.3923L24.1741 10.9482C24.3769 10.7575 24.6154 10.6089 24.8759 10.5109C25.1363 10.4128 25.4136 10.3673 25.6918 10.377L27.1773 10.5112C27.9243 10.5711 28.4301 10.2867 28.6665 9.65438C28.7686 9.34563 28.7436 9.01431 28.597 8.72397C28.5253 8.58098 28.4259 8.45365 28.3046 8.34938C28.1834 8.24511 28.0426 8.16597 27.8904 8.11656L25.6757 7.38625C25.4644 7.31678 25.1449 7.24375 24.7982 7.40406C24.7789 7.41307 24.7606 7.42402 24.7436 7.43672C24.0987 7.92537 22.9938 8.51438 22.5514 8.29766C22.3887 8.21631 22.3056 7.98831 22.3056 7.62078L22.3246 1.9C22.3246 1.34366 21.8716 0.891219 21.3152 0.891219V0.890625ZM18.109 4.00781C18.0696 4.00781 18.0319 4.02345 18.004 4.05129C17.9762 4.07913 17.9606 4.11688 17.9606 4.15625C17.9606 4.19562 17.9762 4.23337 18.004 4.26121C18.0319 4.28905 18.0696 4.30469 18.109 4.30469H18.7027C18.7421 4.30469 18.7799 4.28905 18.8077 4.26121C18.8355 4.23337 18.8512 4.19562 18.8512 4.15625C18.8512 4.11688 18.8355 4.07913 18.8077 4.05129C18.7799 4.02345 18.7421 4.00781 18.7027 4.00781H18.109ZM20.484 4.00781C20.4446 4.00781 20.4069 4.02345 20.379 4.05129C20.3512 4.07913 20.3356 4.11688 20.3356 4.15625C20.3356 4.19562 20.3512 4.23337 20.379 4.26121C20.4069 4.28905 20.4446 4.30469 20.484 4.30469H21.0777C21.1171 4.30469 21.1549 4.28905 21.1827 4.26121C21.2105 4.23337 21.2262 4.19562 21.2262 4.15625C21.2262 4.11688 21.2105 4.07913 21.1827 4.05129C21.1549 4.02345 21.1171 4.00781 21.0777 4.00781H20.484ZM19.2965 5.19531C19.2571 5.19531 19.2194 5.21095 19.1915 5.23879C19.1637 5.26663 19.1481 5.30438 19.1481 5.34375C19.1481 5.38312 19.1637 5.42087 19.1915 5.44871C19.2194 5.47655 19.2571 5.49219 19.2965 5.49219H19.8902C19.9296 5.49219 19.9674 5.47655 19.9952 5.44871C20.023 5.42087 20.0387 5.38312 20.0387 5.34375C20.0387 5.30438 20.023 5.26663 19.9952 5.23879C19.9674 5.21095 19.9296 5.19531 19.8902 5.19531H19.2965ZM18.109 6.38281C18.0696 6.38281 18.0319 6.39845 18.004 6.42629C17.9762 6.45413 17.9606 6.49188 17.9606 6.53125C17.9606 6.57062 17.9762 6.60837 18.004 6.63621C18.0319 6.66405 18.0696 6.67969 18.109 6.67969H18.7027C18.7421 6.67969 18.7799 6.66405 18.8077 6.63621C18.8355 6.60837 18.8512 6.57062 18.8512 6.53125C18.8512 6.49188 18.8355 6.45413 18.8077 6.42629C18.7799 6.39845 18.7421 6.38281 18.7027 6.38281H18.109ZM20.484 6.38281C20.4446 6.38281 20.4069 6.39845 20.379 6.42629C20.3512 6.45413 20.3356 6.49188 20.3356 6.53125C20.3356 6.57062 20.3512 6.60837 20.379 6.63621C20.4069 6.66405 20.4446 6.67969 20.484 6.67969H21.0777C21.1171 6.67969 21.1549 6.66405 21.1827 6.63621C21.2105 6.60837 21.2262 6.57062 21.2262 6.53125C21.2262 6.49188 21.2105 6.45413 21.1827 6.42629C21.1549 6.39845 21.1171 6.38281 21.0777 6.38281H20.484ZM25.2779 7.90103C25.3468 7.90578 25.4175 7.92478 25.4941 7.94972L27.7087 8.67884C27.8667 8.7305 27.9949 8.84272 28.0709 8.99116C28.1451 9.13959 28.1582 9.30881 28.1101 9.45606C28.0133 9.71137 27.8311 9.96966 27.2314 9.91978L25.7351 9.78441C25.0226 9.75888 24.2935 10.0195 23.768 10.5171L23.2996 10.9612C22.4689 11.7473 21.6086 12.3779 20.7393 12.8363C19.9526 13.2513 19.23 13.4942 18.4997 13.6028C18.2333 13.5841 17.9838 13.4654 17.8013 13.2705C17.6187 13.0756 17.5165 12.8189 17.5152 12.5519C17.5152 12.369 17.5627 12.1897 17.653 12.0306C17.6919 11.9619 17.702 11.8807 17.6812 11.8046C17.6604 11.7285 17.6104 11.6637 17.542 11.6244C17.473 11.5863 17.3918 11.5768 17.3159 11.5979C17.2399 11.619 17.1753 11.669 17.1358 11.7372C16.9947 11.9858 16.9204 12.2667 16.9203 12.5525C16.9203 12.9966 17.1008 13.4033 17.3911 13.7014L17.2914 13.7073C17.2149 13.7121 17.1383 13.7144 17.0616 13.7144H16.5866C13.7996 13.7144 13.0847 12.7585 12.4648 9.79688H16.9215C17.0002 9.79688 17.0757 9.7656 17.1314 9.70992C17.1871 9.65425 17.2184 9.57874 17.2184 9.5V8.13972C17.4458 8.10884 17.6732 8.08866 17.9012 8.06847L18.1506 9.19066C18.2533 9.54928 18.5822 9.78678 18.9889 9.79688H19.0145C19.4135 9.79688 19.746 9.57303 19.8695 9.20194L20.1004 8.28934L20.2601 9.12059C20.3587 9.51663 20.6995 9.78797 21.108 9.79688H21.1264C21.5254 9.79688 21.8674 9.54097 21.9844 9.13722L22.0841 8.68003C22.1459 8.73822 22.2124 8.78988 22.2908 8.82847C22.5966 8.97988 22.9813 8.94366 23.3666 8.83084C23.7217 9.15859 24.1759 9.35156 24.6586 9.35156C24.9056 9.35156 25.1491 9.30406 25.3824 9.21025C25.4047 9.20063 25.4243 9.18578 25.4396 9.16697C25.4549 9.14816 25.4654 9.12594 25.4703 9.10219C25.4758 9.07861 25.4753 9.05405 25.4688 9.03073C25.4624 9.0074 25.4503 8.98604 25.4335 8.96859C25.1852 8.70893 25.004 8.39262 24.9056 8.04709C24.9579 8.01028 25.0464 7.95209 25.0749 7.93072C25.1393 7.90517 25.2089 7.895 25.2779 7.90103ZM19.0531 8.018C19.2193 8.01919 19.3856 8.03166 19.5518 8.03878L19.3012 9.03509C19.2579 9.16394 19.1433 9.21262 19.0032 9.20431C18.8957 9.20194 18.7574 9.15266 18.7259 9.044L18.5021 8.03462C18.6861 8.0275 18.869 8.01681 19.0531 8.018ZM20.674 8.13259C20.9728 8.17056 21.2702 8.21848 21.5658 8.27628L21.4096 8.98997C21.3947 9.05431 21.3572 9.11117 21.3039 9.15026C21.2507 9.18935 21.1852 9.20811 21.1193 9.20312C21.0659 9.20194 20.8877 9.18234 20.8402 8.99294L20.674 8.13259ZM24.6551 8.21869C24.7495 8.50191 24.8819 8.76909 25.0683 9.00125C24.5898 9.12653 24.0869 9.00897 23.6968 8.71625C24.0566 8.57078 24.3974 8.38316 24.6551 8.21869ZM16.6246 8.23116V9.20312H13.5074C14.5033 8.75406 15.55 8.42767 16.6246 8.23116ZM16.6246 14.3094H17.2184V18.7031H16.6246V14.3094ZM10.6871 19.2969H29.0934V36.5156H28.4996V20.1875C28.4996 20.1088 28.4683 20.0333 28.4127 19.9776C28.357 19.9219 28.2815 19.8906 28.2027 19.8906H11.5777C11.499 19.8906 11.4235 19.9219 11.3678 19.9776C11.3121 20.0333 11.2809 20.1088 11.2809 20.1875V36.5156H10.6871V19.2969ZM11.8746 20.4844H16.0309V32.3594H15.734C15.6553 32.3594 15.5797 32.3907 15.5241 32.4463C15.4684 32.502 15.4371 32.5775 15.4371 32.6562V36.5156H11.8746V20.4844ZM16.6246 20.4844H17.2184V32.3594H16.6246V20.4844ZM17.8121 20.4844H27.9059V28.5083C27.6505 28.3117 27.3376 28.2044 27.0152 28.2031H21.0777C20.6842 28.2034 20.3068 28.3599 20.0285 28.6382C19.7502 28.9165 19.5937 29.2939 19.5934 29.6875V35.625C19.5934 35.9605 19.7097 36.2663 19.8986 36.5156H18.4059V32.6562C18.4059 32.5775 18.3746 32.502 18.3189 32.4463C18.2632 32.3907 18.1877 32.3594 18.109 32.3594H17.8121V20.4844ZM21.0777 28.7969H27.0152C27.5063 28.7969 27.9059 29.1965 27.9059 29.6875V35.625C27.9059 36.116 27.5063 36.5156 27.0152 36.5156H21.0777C20.5867 36.5156 20.1871 36.116 20.1871 35.625V29.6875C20.1871 29.1965 20.5867 28.7969 21.0777 28.7969ZM16.0309 32.9531H17.8121V36.5156H16.0309V32.9531Z" fill="#594454"/>
<path d="M20.6027 3.26562C20.524 3.26562 20.4485 3.23435 20.3928 3.17867C20.3371 3.123 20.3059 3.04749 20.3059 2.96875V1.9C20.3059 1.78977 20.2621 1.68405 20.1841 1.60611C20.1062 1.52816 20.0005 1.48437 19.8902 1.48437C19.78 1.48437 19.6743 1.52816 19.5963 1.60611C19.5184 1.68405 19.4746 1.78977 19.4746 1.9V2.96875C19.4746 3.04749 19.4433 3.123 19.3877 3.17867C19.332 3.23435 19.2565 3.26562 19.1777 3.26562C19.099 3.26562 19.0235 3.23435 18.9678 3.17867C18.9121 3.123 18.8809 3.04749 18.8809 2.96875V1.9C18.8809 1.6323 18.9872 1.37556 19.1765 1.18626C19.3658 0.99697 19.6225 0.890625 19.8902 0.890625C20.1579 0.890625 20.4147 0.99697 20.604 1.18626C20.7933 1.37556 20.8996 1.6323 20.8996 1.9V2.96875C20.8996 3.04749 20.8683 3.123 20.8127 3.17867C20.757 3.23435 20.6815 3.26562 20.6027 3.26562Z" fill="#594454"/>
</svg>
