<svg width="46" height="46" viewBox="0 0 46 46" fill="none" xmlns="http://www.w3.org/2000/svg">
<path d="M23.0004 4.68405C22.9394 4.68405 22.8809 4.70829 22.8378 4.75142C22.7947 4.79455 22.7704 4.85305 22.7704 4.91405V7.45739H21.8559L21.8504 6.76555C21.8499 6.70487 21.8255 6.64684 21.7824 6.60411C21.7393 6.56137 21.6811 6.53739 21.6204 6.53739H21.6186C21.5884 6.53763 21.5585 6.54382 21.5307 6.5556C21.5029 6.56739 21.4777 6.58453 21.4565 6.60606C21.4353 6.62759 21.4186 6.65308 21.4072 6.68108C21.3959 6.70907 21.3902 6.73903 21.3904 6.76923L21.3978 7.68923V8.82405H21.1604C21.0994 8.82405 21.0409 8.84829 20.9978 8.89142C20.9547 8.93455 20.9304 8.99305 20.9304 9.05405C20.9304 9.11505 20.9547 9.17355 20.9978 9.21669C21.0409 9.25982 21.0994 9.28405 21.1604 9.28405H21.3067L20.4355 12.0441H20.0104V11.3541C20.0104 11.2931 19.9862 11.2346 19.9431 11.1914C19.8999 11.1483 19.8414 11.1241 19.7804 11.1241C19.7194 11.1241 19.6609 11.1483 19.6178 11.1914C19.5747 11.2346 19.5504 11.2931 19.5504 11.3541V14.8041C19.5504 14.8133 19.555 14.8202 19.5559 14.8289L18.641 17.7246C18.6387 17.7324 18.641 17.7407 18.6396 17.749C18.6364 17.7642 18.6304 17.778 18.6304 17.7941V30.9041H8.51043V30.4574H8.75285C8.81385 30.4574 8.87235 30.4332 8.91548 30.39C8.95862 30.3469 8.98285 30.2884 8.98285 30.2274C8.98285 30.1664 8.95862 30.1079 8.91548 30.0648C8.87235 30.0216 8.81385 29.9974 8.75285 29.9974H8.45293L7.22565 26.3174H7.36779C7.42879 26.3174 7.48729 26.2932 7.53042 26.25C7.57356 26.2069 7.59779 26.1484 7.59779 26.0874C7.59779 26.0264 7.57356 25.9679 7.53042 25.9248C7.48729 25.8816 7.42879 25.8574 7.36779 25.8574H6.67687V23.7874C6.67687 23.7264 6.65264 23.6679 6.6095 23.6248C6.56637 23.5816 6.50787 23.5574 6.44687 23.5574C6.38587 23.5574 6.32737 23.5816 6.28423 23.6248C6.2411 23.6679 6.21687 23.7264 6.21687 23.7874V24.4774H3.91687V23.7874C3.91687 23.7264 3.89264 23.6679 3.8495 23.6248C3.80637 23.5816 3.74787 23.5574 3.68687 23.5574C3.62587 23.5574 3.56737 23.5816 3.52424 23.6248C3.4811 23.6679 3.45687 23.7264 3.45687 23.7874V25.8574H2.76963C2.70863 25.8574 2.65013 25.8816 2.607 25.9248C2.56386 25.9679 2.53963 26.0264 2.53963 26.0874C2.53963 26.1484 2.56386 26.2069 2.607 26.25C2.65013 26.2932 2.70863 26.3174 2.76963 26.3174H2.90395L1.67483 29.9974H1.38503C1.32403 29.9974 1.26553 30.0216 1.2224 30.0648C1.17926 30.1079 1.15503 30.1664 1.15503 30.2274C1.15503 30.2884 1.17926 30.3469 1.2224 30.39C1.26553 30.4332 1.32403 30.4574 1.38503 30.4574H1.61043V43.7836H0.92043C0.85943 43.7836 0.800928 43.8078 0.757795 43.851C0.714662 43.8941 0.69043 43.9526 0.69043 44.0136C0.69043 44.0746 0.714662 44.1331 0.757795 44.1762C0.800928 44.2194 0.85943 44.2436 0.92043 44.2436H45.0804C45.1414 44.2436 45.1999 44.2194 45.2431 44.1762C45.2862 44.1331 45.3104 44.0746 45.3104 44.0136C45.3104 43.9526 45.2862 43.8941 45.2431 43.851C45.1999 43.8078 45.1414 43.7836 45.0804 43.7836H44.3904V30.4574H44.6204C44.6814 30.4574 44.7399 30.4332 44.7831 30.39C44.8262 30.3469 44.8504 30.2884 44.8504 30.2274C44.8504 30.1664 44.8262 30.1079 44.7831 30.0648C44.7399 30.0216 44.6814 29.9974 44.6204 29.9974H44.3306L43.1029 26.3174H43.245C43.306 26.3174 43.3645 26.2932 43.4077 26.25C43.4508 26.2069 43.475 26.1484 43.475 26.0874C43.475 26.0264 43.4508 25.9679 43.4077 25.9248C43.3645 25.8816 43.306 25.8574 43.245 25.8574H42.5541V23.7874C42.5541 23.7264 42.5299 23.6679 42.4867 23.6248C42.4436 23.5816 42.3851 23.5574 42.3241 23.5574C42.2631 23.5574 42.2046 23.5816 42.1615 23.6248C42.1183 23.6679 42.0941 23.7264 42.0941 23.7874V24.4774H39.7941V23.7874C39.7941 23.7264 39.7699 23.6679 39.7267 23.6248C39.6836 23.5816 39.6251 23.5574 39.5641 23.5574C39.5031 23.5574 39.4446 23.5816 39.4015 23.6248C39.3583 23.6679 39.3341 23.7264 39.3341 23.7874V25.8574H38.6469C38.5859 25.8574 38.5274 25.8816 38.4842 25.9248C38.4411 25.9679 38.4169 26.0264 38.4169 26.0874C38.4169 26.1484 38.4411 26.2069 38.4842 26.25C38.5274 26.2932 38.5859 26.3174 38.6469 26.3174H38.7803L37.5562 29.9836H37.2613C37.2003 29.9836 37.1418 30.0078 37.0987 30.051C37.0556 30.0941 37.0313 30.1526 37.0313 30.2136C37.0313 30.2746 37.0556 30.3331 37.0987 30.3762C37.1418 30.4194 37.2003 30.4436 37.2613 30.4436H37.4913V30.9036H27.3713V17.7936C27.3713 17.778 27.3654 17.7642 27.3621 17.749C27.3608 17.7407 27.3635 17.7324 27.3608 17.7246L26.4458 14.8289C26.4467 14.8202 26.4504 14.8128 26.4504 14.8041V11.3541C26.4504 11.2931 26.4262 11.2346 26.3831 11.1914C26.3399 11.1483 26.2814 11.1241 26.2204 11.1241C26.1594 11.1241 26.1009 11.1483 26.0578 11.1914C26.0147 11.2346 25.9904 11.2931 25.9904 11.3541V12.0441H25.5663L24.6951 9.28405H24.8404C24.9014 9.28405 24.9599 9.25982 25.0031 9.21669C25.0462 9.17355 25.0704 9.11505 25.0704 9.05405C25.0704 8.99305 25.0462 8.93455 25.0031 8.89142C24.9599 8.84829 24.9014 8.82405 24.8404 8.82405H24.6178V7.68555L24.6104 6.76555C24.6099 6.70487 24.5855 6.64684 24.5424 6.60411C24.4993 6.56137 24.4411 6.53739 24.3804 6.53739H24.3786C24.3484 6.53763 24.3185 6.54382 24.2907 6.5556C24.2629 6.56739 24.2377 6.58453 24.2165 6.60606C24.1953 6.62759 24.1786 6.65308 24.1672 6.68108C24.1559 6.70907 24.1502 6.73903 24.1504 6.76923L24.1559 7.45739H23.2304V4.91359C23.2304 4.85259 23.2062 4.79409 23.1631 4.75096C23.1199 4.70783 23.0614 4.68359 23.0004 4.68359V4.68405ZM21.8578 7.91739H22.3104V8.82359H21.8578V7.91739ZM22.7704 7.91739H23.2304V8.82359H22.7704V7.91739ZM23.6904 7.91739H24.1578V8.82359H23.6904V7.91739ZM21.7846 9.29739H24.2171L26.8267 17.5636H25.5313V16.4136C25.5313 16.3526 25.5071 16.2941 25.464 16.251C25.4208 16.2078 25.3623 16.1836 25.3013 16.1836H24.5037L23.218 12.6554C23.2019 12.6113 23.1726 12.5731 23.1343 12.546C23.0959 12.5189 23.0502 12.5041 23.0032 12.5036H23.0013C22.9548 12.5036 22.9094 12.5177 22.871 12.5441C22.8326 12.5704 22.8032 12.6078 22.7865 12.6513L21.4249 16.1841H20.7013C20.6403 16.1841 20.5818 16.2083 20.5387 16.2514C20.4956 16.2946 20.4713 16.3531 20.4713 16.4141V17.5641H19.176L21.7846 9.29739ZM20.0104 12.5031H20.291L20.0104 13.3882V12.5031ZM25.7112 12.5031H25.9904V13.3882L25.7112 12.5031ZM22.9949 13.3877L24.1265 16.4918C24.1265 16.4932 24.1279 16.4927 24.1288 16.4941C24.144 16.5337 24.1702 16.5654 24.2033 16.5912C24.2107 16.5967 24.2171 16.6022 24.2249 16.6068C24.2598 16.6294 24.3003 16.6418 24.3418 16.6427H25.0704V17.7927C25.0704 17.8537 25.0947 17.9122 25.1378 17.9553C25.1809 17.9984 25.2394 18.0227 25.3004 18.0227H26.9104V18.065C26.8368 18.0378 26.759 18.0234 26.6804 18.0227C26.5033 18.0227 26.3428 18.0917 26.2204 18.2021C26.0947 18.0872 25.9307 18.0233 25.7604 18.0227C25.38 18.0227 25.0704 18.3323 25.0704 18.7127V19.1727C25.0704 19.2337 25.0947 19.2922 25.1378 19.3353C25.1809 19.3784 25.2394 19.4027 25.3004 19.4027C25.3614 19.4027 25.4199 19.3784 25.4631 19.3353C25.5062 19.2922 25.5304 19.2337 25.5304 19.1727V18.7127C25.5304 18.5862 25.6339 18.4827 25.7604 18.4827C25.8869 18.4827 25.9904 18.5862 25.9904 18.7127V19.1727C25.9904 19.2337 26.0147 19.2922 26.0578 19.3353C26.1009 19.3784 26.1594 19.4027 26.2204 19.4027C26.2814 19.4027 26.3399 19.3784 26.3831 19.3353C26.4262 19.2922 26.4504 19.2337 26.4504 19.1727V18.7127C26.4504 18.5862 26.5539 18.4827 26.6804 18.4827C26.8069 18.4827 26.9104 18.5862 26.9104 18.7127V21.7027H19.0904V18.7127C19.0904 18.5862 19.1939 18.4827 19.3204 18.4827C19.4469 18.4827 19.5504 18.5862 19.5504 18.7127V19.1727C19.5504 19.2337 19.5747 19.2922 19.6178 19.3353C19.6609 19.3784 19.7194 19.4027 19.7804 19.4027C19.8414 19.4027 19.8999 19.3784 19.9431 19.3353C19.9862 19.2922 20.0104 19.2337 20.0104 19.1727V18.7127C20.0104 18.5862 20.1139 18.4827 20.2404 18.4827C20.3669 18.4827 20.4704 18.5862 20.4704 18.7127V19.1727C20.4704 19.2337 20.4947 19.2922 20.5378 19.3353C20.5809 19.3784 20.6394 19.4027 20.7004 19.4027C20.7614 19.4027 20.8199 19.3784 20.8631 19.3353C20.9062 19.2922 20.9304 19.2337 20.9304 19.1727V18.7127C20.9302 18.5314 20.8587 18.3575 20.7313 18.2286C20.6039 18.0996 20.4309 18.026 20.2496 18.0236H20.7004C20.7614 18.0236 20.8199 17.9994 20.8631 17.9562C20.9062 17.9131 20.9304 17.8546 20.9304 17.7936V16.6436H21.5827L21.5864 16.6427C21.5979 16.6422 21.6085 16.6376 21.6195 16.6353C21.6583 16.6296 21.6949 16.6139 21.7258 16.5898C21.7566 16.5657 21.7807 16.534 21.7957 16.4978C21.7957 16.4969 21.7957 16.4959 21.7966 16.495L22.9949 13.3873V13.3877ZM19.0904 18.0241H19.3158C19.2389 18.0251 19.1627 18.0391 19.0904 18.0655V18.0241ZM19.3296 18.0241H20.2312C20.0642 18.0266 19.9039 18.0901 19.7804 18.2025C19.6569 18.0901 19.4966 18.0266 19.3296 18.0241ZM23.0004 18.0241C22.1126 18.0241 21.3904 18.7463 21.3904 19.6341C21.3904 20.5219 22.1131 21.2441 23.0004 21.2441C23.8882 21.2441 24.6104 20.5219 24.6104 19.6341C24.6104 18.7463 23.8882 18.0241 23.0004 18.0241ZM23.0004 18.4841C23.6348 18.4841 24.1504 18.9993 24.1504 19.6341C24.1504 20.2684 23.6348 20.7841 23.0004 20.7841C22.6955 20.7838 22.4031 20.6626 22.1875 20.447C21.9719 20.2313 21.8507 19.939 21.8504 19.6341C21.8504 18.9993 22.3661 18.4841 23.0004 18.4841ZM23.0004 18.9441C22.9394 18.9441 22.8809 18.9683 22.8378 19.0114C22.7947 19.0546 22.7704 19.1131 22.7704 19.1741V19.6341C22.7704 19.6951 22.7947 19.7536 22.8378 19.7967C22.8809 19.8398 22.9394 19.8641 23.0004 19.8641C23.0046 19.8641 23.0087 19.8622 23.0128 19.8622C23.0174 19.8622 23.0207 19.8641 23.0248 19.8641H23.6904C23.7514 19.8641 23.8099 19.8398 23.8531 19.7967C23.8962 19.7536 23.9204 19.6951 23.9204 19.6341C23.9204 19.5731 23.8962 19.5146 23.8531 19.4714C23.8099 19.4283 23.7514 19.4041 23.6904 19.4041H23.2304V19.1741C23.2304 19.1131 23.2062 19.0546 23.1631 19.0114C23.1199 18.9683 23.0614 18.9441 23.0004 18.9441ZM19.0904 22.1641H21.3904V22.8541C21.3904 22.941 21.4401 23.0206 21.5178 23.0597L22.3104 23.4557V24.2341C22.3104 24.2951 22.3347 24.3536 22.3778 24.3967C22.4209 24.4398 22.4794 24.4641 22.5404 24.4641H22.7704V25.3841C22.7094 25.3841 22.6509 25.4083 22.6078 25.4514C22.5647 25.4946 22.5404 25.5531 22.5404 25.6141C22.5404 25.6751 22.5647 25.7336 22.6078 25.7767C22.6509 25.8198 22.7094 25.8441 22.7704 25.8441H23.2304C23.2914 25.8441 23.3499 25.8198 23.3931 25.7767C23.4362 25.7336 23.4604 25.6751 23.4604 25.6141C23.4604 25.5531 23.4362 25.4946 23.3931 25.4514C23.3499 25.4083 23.2914 25.3841 23.2304 25.3841V24.4641H23.4604C23.5214 24.4641 23.5799 24.4398 23.6231 24.3967C23.6662 24.3536 23.6904 24.2951 23.6904 24.2341V23.4557L24.4839 23.0597C24.522 23.0405 24.554 23.0111 24.5763 22.9748C24.5987 22.9385 24.6105 22.8967 24.6104 22.8541V22.1641H26.9104V27.6841H25.0704V26.7641C25.0704 26.2567 24.6578 25.8441 24.1504 25.8441C23.643 25.8441 23.2304 26.2567 23.2304 26.7641V27.6841H22.7704V26.7641C22.7704 26.2567 22.3578 25.8441 21.8504 25.8441C21.343 25.8441 20.9304 26.2567 20.9304 26.7641V27.6841H19.0904V22.1641ZM21.8504 22.165H24.1504V22.7124L23.3578 23.108C23.3196 23.1271 23.2874 23.1566 23.2649 23.193C23.2424 23.2293 23.2305 23.2713 23.2304 23.3141V24.0041H22.7704V23.3141C22.7706 23.2713 22.7588 23.2294 22.7364 23.193C22.7141 23.1567 22.6821 23.1272 22.6439 23.108L21.8504 22.7124V22.165ZM3.91779 24.9369H4.37043V25.8431H3.91779V24.9369ZM4.83043 24.9369H5.29043V25.8431H4.83043V24.9369ZM5.75043 24.9369H6.21779V25.8431H5.75043V24.9369ZM39.7941 24.9369H40.2477V25.8431H39.7941V24.9369ZM40.7077 24.9369H41.1677V25.8431H40.7077V24.9369ZM41.6267 24.9369H42.0941V25.8431H41.6267V24.9369ZM21.8504 26.3036C21.9724 26.3036 22.0894 26.3521 22.1757 26.4383C22.262 26.5246 22.3104 26.6416 22.3104 26.7636V29.9836H21.3904V26.7636C21.3904 26.6416 21.4389 26.5246 21.5252 26.4383C21.6114 26.3521 21.7284 26.3036 21.8504 26.3036ZM24.1504 26.3036C24.2724 26.3036 24.3894 26.3521 24.4757 26.4383C24.562 26.5246 24.6104 26.6416 24.6104 26.7636V29.9836H23.6904V26.7636C23.6904 26.6416 23.7389 26.5246 23.8252 26.4383C23.9114 26.3521 24.0284 26.3036 24.1504 26.3036ZM3.38925 26.3174H6.74265L7.96855 29.9974H6.54393L5.23109 28.6726C5.20993 28.6509 5.18468 28.6337 5.15681 28.6218C5.12894 28.61 5.09899 28.6038 5.06871 28.6036H5.06779C5.03752 28.6035 5.00754 28.6095 4.97959 28.6211C4.95163 28.6327 4.92626 28.6497 4.90495 28.6712L3.58475 29.9974H2.16059L3.38925 26.3174ZM39.2656 26.3174H42.619L43.8449 29.9974H42.4202L41.1074 28.6726C41.0862 28.6509 41.061 28.6337 41.0331 28.6218C41.0053 28.61 40.9753 28.6038 40.945 28.6036H40.9441C40.9138 28.6035 40.8839 28.6095 40.8559 28.6211C40.828 28.6327 40.8026 28.6497 40.7813 28.6712L39.4624 29.9974H38.7085C38.6869 29.991 38.6648 29.9836 38.6413 29.9836H38.042L39.2656 26.3174ZM19.0904 28.1431H20.9304V29.9831H20.7004C20.6394 29.9831 20.5809 30.0074 20.5378 30.0505C20.4947 30.0936 20.4704 30.1521 20.4704 30.2131V31.1331C20.4704 31.1941 20.4947 31.2526 20.5378 31.2958C20.5809 31.3389 20.6394 31.3631 20.7004 31.3631H25.3004C25.3614 31.3631 25.4199 31.3389 25.4631 31.2958C25.5062 31.2526 25.5304 31.1941 25.5304 31.1331V30.2131C25.5304 30.1521 25.5062 30.0936 25.4631 30.0505C25.4199 30.0074 25.3614 29.9831 25.3004 29.9831H25.0704V28.1431H26.9104V36.8831H25.0704V33.4331C25.0704 32.7993 24.5548 32.2831 23.9204 32.2831C23.5428 32.2831 23.2102 32.469 23.0004 32.7505C22.8942 32.6062 22.7557 32.4888 22.5959 32.4077C22.4362 32.3266 22.2596 32.2841 22.0804 32.2836C21.7755 32.2838 21.4831 32.4051 21.2675 32.6207C21.0519 32.8363 20.9307 33.1287 20.9304 33.4336V36.8836H19.0904V28.1431ZM22.7704 28.1431H23.2304V28.6031H22.7704V28.1431ZM22.7704 29.0631H23.2304V29.9831H22.7704V29.0631ZM5.06687 29.1607L6.28403 30.3889C6.30546 30.4105 6.33097 30.4276 6.35908 30.4393C6.38719 30.451 6.41735 30.457 6.44779 30.4569H8.05043V30.9455C7.97674 30.9184 7.89893 30.9042 7.82043 30.9036C7.64333 30.9036 7.48279 30.9726 7.36043 31.083C7.23471 30.9681 7.07073 30.9042 6.90043 30.9036C6.52001 30.9036 6.21043 31.2132 6.21043 31.5936V32.0536C6.21043 32.1146 6.23466 32.1731 6.27779 32.2162C6.32093 32.2594 6.37943 32.2836 6.44043 32.2836C6.50143 32.2836 6.55993 32.2594 6.60306 32.2162C6.6462 32.1731 6.67043 32.1146 6.67043 32.0536V31.5936C6.67043 31.4671 6.77393 31.3636 6.90043 31.3636C7.02693 31.3636 7.13043 31.4671 7.13043 31.5936V32.0536C7.13043 32.1146 7.15466 32.1731 7.19779 32.2162C7.24093 32.2594 7.29943 32.2836 7.36043 32.2836C7.42143 32.2836 7.47993 32.2594 7.52306 32.2162C7.5662 32.1731 7.59043 32.1146 7.59043 32.0536V31.5936C7.59043 31.4671 7.69393 31.3636 7.82043 31.3636C7.94693 31.3636 8.05043 31.4671 8.05043 31.5936V43.7836H7.10743V42.169C7.10743 41.0277 6.17823 40.099 5.03743 40.099C4.48862 40.0996 3.96246 40.3179 3.57439 40.706C3.18632 41.094 2.96804 41.6202 2.96743 42.169V43.7836H2.07043V31.5936C2.07043 31.4671 2.17393 31.3636 2.30043 31.3636C2.42693 31.3636 2.53043 31.4671 2.53043 31.5936V32.0536C2.53043 32.1146 2.55466 32.1731 2.5978 32.2162C2.64093 32.2594 2.69943 32.2836 2.76043 32.2836C2.82143 32.2836 2.87993 32.2594 2.92306 32.2162C2.9662 32.1731 2.99043 32.1146 2.99043 32.0536V31.5936C2.99043 31.4671 3.09393 31.3636 3.22043 31.3636C3.34693 31.3636 3.45043 31.4671 3.45043 31.5936V32.0536C3.45043 32.1146 3.47466 32.1731 3.5178 32.2162C3.56093 32.2594 3.61943 32.2836 3.68043 32.2836C3.74143 32.2836 3.79993 32.2594 3.84306 32.2162C3.8862 32.1731 3.91043 32.1146 3.91043 32.0536V31.5936C3.91043 31.2132 3.60085 30.9036 3.22043 30.9036C3.04333 30.9036 2.88279 30.9726 2.76043 31.083C2.63471 30.9681 2.47073 30.9042 2.30043 30.9036C2.21947 30.9036 2.14265 30.9197 2.07043 30.9455V30.4569H3.68043C3.71076 30.4569 3.74079 30.451 3.7688 30.4394C3.79682 30.4278 3.82228 30.4108 3.84373 30.3893L5.06687 29.1607ZM40.9432 29.1607L42.1603 30.3889C42.1818 30.4105 42.2073 30.4276 42.2354 30.4393C42.2635 30.451 42.2937 30.457 42.3241 30.4569H43.9304V30.9455C43.8567 30.9184 43.7789 30.9042 43.7004 30.9036C43.5233 30.9036 43.3628 30.9726 43.2404 31.083C43.1147 30.9681 42.9507 30.9042 42.7804 30.9036C42.4 30.9036 42.0904 31.2132 42.0904 31.5936V32.0536C42.0904 32.1146 42.1147 32.1731 42.1578 32.2162C42.2009 32.2594 42.2594 32.2836 42.3204 32.2836C42.3814 32.2836 42.4399 32.2594 42.4831 32.2162C42.5262 32.1731 42.5504 32.1146 42.5504 32.0536V31.5936C42.5504 31.4671 42.6539 31.3636 42.7804 31.3636C42.9069 31.3636 43.0104 31.4671 43.0104 31.5936V32.0536C43.0104 32.1146 43.0347 32.1731 43.0778 32.2162C43.1209 32.2594 43.1794 32.2836 43.2404 32.2836C43.3014 32.2836 43.3599 32.2594 43.4031 32.2162C43.4462 32.1731 43.4704 32.1146 43.4704 32.0536V31.5936C43.4704 31.4671 43.5739 31.3636 43.7004 31.3636C43.8269 31.3636 43.9304 31.4671 43.9304 31.5936V43.7836H42.9874V42.169C42.9874 41.0277 42.0582 40.099 40.9174 40.099C40.3686 40.0996 39.8425 40.3179 39.4544 40.706C39.0663 41.094 38.848 41.6202 38.8474 42.169V43.7836H37.9513V31.5936C37.9513 31.4671 38.0548 31.3636 38.1813 31.3636C38.3078 31.3636 38.4113 31.4671 38.4113 31.5936V32.0536C38.4113 32.1146 38.4356 32.1731 38.4787 32.2162C38.5218 32.2594 38.5803 32.2836 38.6413 32.2836C38.7023 32.2836 38.7608 32.2594 38.804 32.2162C38.8471 32.1731 38.8713 32.1146 38.8713 32.0536V31.5936C38.8713 31.4671 38.9748 31.3636 39.1013 31.3636C39.2278 31.3636 39.3313 31.4671 39.3313 31.5936V32.0536C39.3313 32.1146 39.3556 32.1731 39.3987 32.2162C39.4418 32.2594 39.5003 32.2836 39.5613 32.2836C39.6223 32.2836 39.6808 32.2594 39.724 32.2162C39.7671 32.1731 39.7913 32.1146 39.7913 32.0536V31.5936C39.7913 31.2132 39.4818 30.9036 39.1013 30.9036C38.9242 30.9036 38.7637 30.9726 38.6413 31.083C38.5156 30.9681 38.3516 30.9042 38.1813 30.9036C38.1004 30.9036 38.0236 30.9197 37.9513 30.9455V30.4569H39.5577C39.6188 30.4569 39.6773 30.4326 39.7205 30.3893L40.9432 29.1607ZM5.06043 29.9841C4.68001 29.9841 4.37043 30.2936 4.37043 30.6741V32.0541C4.37043 32.1151 4.39466 32.1736 4.43779 32.2167C4.48093 32.2598 4.53943 32.2841 4.60043 32.2841H5.52043C5.58143 32.2841 5.63993 32.2598 5.68306 32.2167C5.7262 32.1736 5.75043 32.1151 5.75043 32.0541V30.6741C5.75043 30.2936 5.44085 29.9841 5.06043 29.9841ZM40.9404 29.9841C40.56 29.9841 40.2504 30.2936 40.2504 30.6741V32.0541C40.2504 32.1151 40.2747 32.1736 40.3178 32.2167C40.3609 32.2598 40.4194 32.2841 40.4804 32.2841H41.4004C41.4614 32.2841 41.5199 32.2598 41.5631 32.2167C41.6062 32.1736 41.6304 32.1151 41.6304 32.0541V30.6741C41.6304 30.2936 41.3208 29.9841 40.9404 29.9841ZM5.06043 30.4441C5.18693 30.4441 5.29043 30.5476 5.29043 30.6741V31.8241H4.83043V30.6741C4.83043 30.5476 4.93393 30.4441 5.06043 30.4441ZM20.9304 30.4441H21.3904V30.9041H20.9304V30.4441ZM21.8504 30.4441H22.3104V30.9041H21.8504V30.4441ZM22.7704 30.4441H23.2304V30.9041H22.7704V30.4441ZM23.6904 30.4441H24.1504V30.9041H23.6904V30.4441ZM24.6104 30.4441H25.0704V30.9041H24.6104V30.4441ZM40.9404 30.4441C41.0669 30.4441 41.1704 30.5476 41.1704 30.6741V31.8241H40.7104V30.6741C40.7104 30.5476 40.8139 30.4441 40.9404 30.4441ZM8.51043 31.3641H18.6304V33.2041H8.51043V31.3641ZM27.3704 31.3641H37.4904V33.2041H27.3704V31.3641ZM22.0804 32.7441C22.4608 32.7441 22.7704 33.0536 22.7704 33.4341V36.8841H21.3904V33.4341C21.3904 33.0536 21.7 32.7441 22.0804 32.7441ZM23.9204 32.7441C24.3008 32.7441 24.6104 33.0536 24.6104 33.4341V36.8841H23.2304V33.4341C23.2304 33.0536 23.54 32.7441 23.9204 32.7441ZM5.06043 33.6595C4.11605 33.6595 3.32669 34.2979 3.07921 35.1641C3.06442 35.1911 3.05534 35.2209 3.05253 35.2515C3.01573 35.4056 2.99135 35.5639 2.99135 35.7295V38.9495C2.99089 39.076 3.09347 39.1795 3.22043 39.1795H6.90043C6.96143 39.1795 7.01993 39.1552 7.06306 39.1121C7.1062 39.069 7.13043 39.0105 7.13043 38.9495V35.7295C7.13043 35.5625 7.10559 35.4015 7.06833 35.2465C7.06546 35.218 7.05702 35.1903 7.04349 35.165C6.79647 34.2984 6.00527 33.6595 5.06043 33.6595ZM40.9413 33.6595C39.997 33.6595 39.2071 34.2979 38.9592 35.1641C38.9447 35.1912 38.9359 35.2209 38.9334 35.2515C38.8966 35.4056 38.8713 35.5639 38.8713 35.7295V38.9495C38.8713 39.0105 38.8956 39.069 38.9387 39.1121C38.9818 39.1552 39.0403 39.1795 39.1013 39.1795H42.7813C42.8423 39.1795 42.9008 39.1552 42.944 39.1121C42.9871 39.069 43.0113 39.0105 43.0113 38.9495V35.7295C43.0113 35.5625 42.9865 35.4024 42.9492 35.2469C42.9456 35.2183 42.9369 35.1906 42.9235 35.165C42.6765 34.2984 41.8866 33.6595 40.9413 33.6595ZM8.51043 33.6641H18.6304V37.3441H18.1704V35.3891C18.1704 34.9452 17.8093 34.5841 17.3654 34.5841C17.14 34.5841 16.9367 34.6779 16.7904 34.8274C16.7158 34.7503 16.6265 34.689 16.5277 34.6471C16.4289 34.6052 16.3227 34.5836 16.2154 34.5836C15.7715 34.5836 15.4104 34.9452 15.4104 35.3886V37.3436H14.9504V35.3886C14.9504 34.9452 14.5893 34.5836 14.1454 34.5836C13.92 34.5836 13.7167 34.6779 13.5704 34.8274C13.4958 34.7503 13.4065 34.689 13.3077 34.6471C13.2089 34.6052 13.1027 34.5836 12.9954 34.5836C12.5515 34.5836 12.1904 34.9452 12.1904 35.3886V37.3436H11.7304V35.3886C11.7304 34.9452 11.3693 34.5836 10.9254 34.5836C10.7 34.5836 10.4967 34.6779 10.3504 34.8274C10.2758 34.7503 10.1865 34.689 10.0877 34.6471C9.98891 34.6052 9.88272 34.5836 9.77543 34.5836C9.33153 34.5836 8.97043 34.9452 8.97043 35.3886V37.3436H8.51043V33.6641ZM27.3704 33.6641H37.4904V37.3441H37.0304V35.3891C37.0304 34.9452 36.6693 34.5841 36.2254 34.5841C36 34.5841 35.7967 34.6779 35.6504 34.8274C35.5758 34.7503 35.4865 34.689 35.3877 34.6471C35.2889 34.6052 35.1827 34.5836 35.0754 34.5836C34.6315 34.5836 34.2704 34.9452 34.2704 35.3886V37.3436H33.8104V35.3886C33.8104 34.9452 33.4493 34.5836 33.0054 34.5836C32.78 34.5836 32.5767 34.6779 32.4304 34.8274C32.3558 34.7503 32.2665 34.689 32.1677 34.6471C32.0689 34.6052 31.9627 34.5836 31.8554 34.5836C31.4115 34.5836 31.0504 34.9452 31.0504 35.3886V37.3436H30.5904V35.3886C30.5904 34.9452 30.2293 34.5836 29.7854 34.5836C29.56 34.5836 29.3567 34.6779 29.2104 34.8274C29.1358 34.7503 29.0465 34.689 28.9477 34.6471C28.8489 34.6052 28.7427 34.5836 28.6354 34.5836C28.1915 34.5836 27.8304 34.9452 27.8304 35.3886V37.3436H27.3704V33.6641ZM5.06043 34.1195C5.70213 34.1195 6.25367 34.4994 6.51219 35.0441H3.60959C3.73891 34.7683 3.94396 34.5349 4.20084 34.3712C4.45771 34.2075 4.75583 34.1202 5.06043 34.1195ZM40.9404 34.1195C41.5821 34.1195 42.1337 34.4994 42.3922 35.0441H39.4896C39.6189 34.7683 39.824 34.5349 40.0808 34.3712C40.3377 34.2075 40.6358 34.1202 40.9404 34.1195ZM9.77543 35.0441C9.96541 35.0441 10.1204 35.1991 10.1204 35.3891V37.3441H9.43043V35.3891C9.43043 35.1991 9.58545 35.0441 9.77543 35.0441ZM10.9254 35.0441C11.1154 35.0441 11.2704 35.1991 11.2704 35.3891V37.3441H10.5804V35.3891C10.5804 35.1991 10.7354 35.0441 10.9254 35.0441ZM12.9954 35.0441C13.1854 35.0441 13.3404 35.1991 13.3404 35.3891V37.3441H12.6504V35.3891C12.6504 35.1991 12.8054 35.0441 12.9954 35.0441ZM14.1454 35.0441C14.3354 35.0441 14.4904 35.1991 14.4904 35.3891V37.3441H13.8004V35.3891C13.8004 35.1991 13.9554 35.0441 14.1454 35.0441ZM16.2154 35.0441C16.4054 35.0441 16.5604 35.1991 16.5604 35.3891V37.3441H15.8704V35.3891C15.8704 35.1991 16.0254 35.0441 16.2154 35.0441ZM17.3654 35.0441C17.5554 35.0441 17.7104 35.1991 17.7104 35.3891V37.3441H17.0204V35.3891C17.0204 35.1991 17.1754 35.0441 17.3654 35.0441ZM28.6354 35.0441C28.8254 35.0441 28.9804 35.1991 28.9804 35.3891V37.3441H28.2904V35.3891C28.2904 35.1991 28.4454 35.0441 28.6354 35.0441ZM29.7854 35.0441C29.9754 35.0441 30.1304 35.1991 30.1304 35.3891V37.3441H29.4404V35.3891C29.4404 35.1991 29.5954 35.0441 29.7854 35.0441ZM31.8554 35.0441C32.0454 35.0441 32.2004 35.1991 32.2004 35.3891V37.3441H31.5104V35.3891C31.5104 35.1991 31.6654 35.0441 31.8554 35.0441ZM33.0054 35.0441C33.1954 35.0441 33.3504 35.1991 33.3504 35.3891V37.3441H32.6604V35.3891C32.6604 35.1991 32.8154 35.0441 33.0054 35.0441ZM35.0754 35.0441C35.2654 35.0441 35.4204 35.1991 35.4204 35.3891V37.3441H34.7304V35.3891C34.7304 35.1991 34.8854 35.0441 35.0754 35.0441ZM36.2254 35.0441C36.4154 35.0441 36.5704 35.1991 36.5704 35.3891V37.3441H35.8804V35.3891C35.8804 35.1991 36.0354 35.0441 36.2254 35.0441ZM3.47343 35.5041H3.91043V35.9641H3.45043V35.7295C3.45043 35.6522 3.46331 35.5777 3.47343 35.5041ZM4.37043 35.5041H4.83043V35.9641H4.37043V35.5041ZM5.29043 35.5041H5.75043V35.9641H5.29043V35.5041ZM6.21043 35.5041H6.64789C6.65893 35.5777 6.67043 35.6522 6.67043 35.7295V35.9641H6.21043V35.5041ZM39.3534 35.5041H39.7904V35.9641H39.3304V35.7295C39.3304 35.6522 39.3433 35.5777 39.3534 35.5041ZM40.2504 35.5041H40.7104V35.9641H40.2504V35.5041ZM41.1704 35.5041H41.6304V35.9641H41.1704V35.5041ZM42.0904 35.5041H42.5279C42.5385 35.5777 42.5504 35.6526 42.5504 35.7295V35.9641H42.0904V35.5041ZM3.45043 36.4241H3.91043V38.7195H3.45043V36.4241ZM4.37043 36.4241H4.83043V38.7195H4.37043V36.4241ZM5.29043 36.4241H5.75043V38.7195H5.29043V36.4241ZM6.21043 36.4241H6.67043V38.7195H6.21043V36.4241ZM39.3304 36.4241H39.7904V38.7195H39.3304V36.4241ZM40.2504 36.4241H40.7104V38.7195H40.2504V36.4241ZM41.1704 36.4241H41.6304V38.7195H41.1704V36.4241ZM42.0904 36.4241H42.5504V38.7195H42.0904V36.4241ZM19.0913 37.3441H26.9104V43.7841H25.5074V40.7895C25.5074 39.3947 24.3717 38.2595 22.9774 38.2595C22.3067 38.2603 21.6637 38.5271 21.1894 39.0014C20.7151 39.4757 20.4483 40.1187 20.4474 40.7895V43.7841H19.0913V37.3441ZM8.51043 37.8041H18.6304V43.7841H18.1704V41.9413C18.1704 41.1805 17.5513 40.5613 16.7904 40.5613C16.0296 40.5613 15.4104 41.1805 15.4104 41.9413V43.7841H14.9504V41.9413C14.9504 41.1805 14.3313 40.5613 13.5704 40.5613C12.8096 40.5613 12.1904 41.1805 12.1904 41.9413V43.7841H11.7304V41.9413C11.7304 41.1805 11.1113 40.5613 10.3504 40.5613C9.58959 40.5613 8.97043 41.1805 8.97043 41.9413V43.7841H8.51043V37.8041ZM27.3704 37.8041H37.4904V43.7841H37.0304V41.9413C37.0304 41.1805 36.4113 40.5613 35.6504 40.5613C34.8896 40.5613 34.2704 41.1805 34.2704 41.9413V43.7841H33.8104V41.9413C33.8104 41.1805 33.1913 40.5613 32.4304 40.5613C31.6696 40.5613 31.0504 41.1805 31.0504 41.9413V43.7841H30.5904V41.9413C30.5904 41.1805 29.9713 40.5613 29.2104 40.5613C28.4496 40.5613 27.8304 41.1805 27.8304 41.9413V43.7841H27.3704V37.8041ZM9.20043 38.2595C9.13943 38.2595 9.08093 38.2837 9.03779 38.3268C8.99466 38.37 8.97043 38.4285 8.97043 38.4895V39.6395C8.97043 39.7005 8.99466 39.759 9.03779 39.8021C9.08093 39.8452 9.13943 39.8695 9.20043 39.8695H11.5004C11.5614 39.8695 11.6199 39.8452 11.6631 39.8021C11.7062 39.759 11.7304 39.7005 11.7304 39.6395V38.4895C11.7304 38.4285 11.7062 38.37 11.6631 38.3268C11.6199 38.2837 11.5614 38.2595 11.5004 38.2595H9.20043ZM12.4204 38.2595C12.3594 38.2595 12.3009 38.2837 12.2578 38.3268C12.2147 38.37 12.1904 38.4285 12.1904 38.4895V39.6395C12.1904 39.7005 12.2147 39.759 12.2578 39.8021C12.3009 39.8452 12.3594 39.8695 12.4204 39.8695H14.7204C14.7814 39.8695 14.8399 39.8452 14.8831 39.8021C14.9262 39.759 14.9504 39.7005 14.9504 39.6395V38.4895C14.9504 38.4285 14.9262 38.37 14.8831 38.3268C14.8399 38.2837 14.7814 38.2595 14.7204 38.2595H12.4204ZM15.6404 38.2595C15.5794 38.2595 15.5209 38.2837 15.4778 38.3268C15.4347 38.37 15.4104 38.4285 15.4104 38.4895V39.6395C15.4104 39.7005 15.4347 39.759 15.4778 39.8021C15.5209 39.8452 15.5794 39.8695 15.6404 39.8695H17.9404C18.0014 39.8695 18.0599 39.8452 18.1031 39.8021C18.1462 39.759 18.1704 39.7005 18.1704 39.6395V38.4895C18.1704 38.4285 18.1462 38.37 18.1031 38.3268C18.0599 38.2837 18.0014 38.2595 17.9404 38.2595H15.6404ZM28.0604 38.2595C27.9994 38.2595 27.9409 38.2837 27.8978 38.3268C27.8547 38.37 27.8304 38.4285 27.8304 38.4895V39.6395C27.8304 39.7005 27.8547 39.759 27.8978 39.8021C27.9409 39.8452 27.9994 39.8695 28.0604 39.8695H30.3604C30.4214 39.8695 30.4799 39.8452 30.5231 39.8021C30.5662 39.759 30.5904 39.7005 30.5904 39.6395V38.4895C30.5904 38.4285 30.5662 38.37 30.5231 38.3268C30.4799 38.2837 30.4214 38.2595 30.3604 38.2595H28.0604ZM31.2804 38.2595C31.2194 38.2595 31.1609 38.2837 31.1178 38.3268C31.0747 38.37 31.0504 38.4285 31.0504 38.4895V39.6395C31.0504 39.7005 31.0747 39.759 31.1178 39.8021C31.1609 39.8452 31.2194 39.8695 31.2804 39.8695H33.5804C33.6414 39.8695 33.6999 39.8452 33.7431 39.8021C33.7862 39.759 33.8104 39.7005 33.8104 39.6395V38.4895C33.8104 38.4285 33.7862 38.37 33.7431 38.3268C33.6999 38.2837 33.6414 38.2595 33.5804 38.2595H31.2804ZM34.5004 38.2595C34.4394 38.2595 34.3809 38.2837 34.3378 38.3268C34.2947 38.37 34.2704 38.4285 34.2704 38.4895V39.6395C34.2704 39.7005 34.2947 39.759 34.3378 39.8021C34.3809 39.8452 34.4394 39.8695 34.5004 39.8695H36.8004C36.8614 39.8695 36.9199 39.8452 36.9631 39.8021C37.0062 39.759 37.0304 39.7005 37.0304 39.6395V38.4895C37.0304 38.4285 37.0062 38.37 36.9631 38.3268C36.9199 38.2837 36.8614 38.2595 36.8004 38.2595H34.5004ZM9.43043 38.7195H10.1204V39.4095H9.43043V38.7195ZM10.5804 38.7195H11.2704V39.4095H10.5804V38.7195ZM12.6504 38.7195H13.3404V39.4095H12.6504V38.7195ZM13.8004 38.7195H14.4904V39.4095H13.8004V38.7195ZM15.8704 38.7195H16.5604V39.4095H15.8704V38.7195ZM17.0204 38.7195H17.7104V39.4095H17.0204V38.7195ZM22.9774 38.7195C24.1182 38.7195 25.0474 39.6482 25.0474 40.7895V43.7795H20.9074V40.7895C20.9074 39.6482 21.8357 38.7195 22.9774 38.7195ZM28.2904 38.7195H28.9804V39.4095H28.2904V38.7195ZM29.4404 38.7195H30.1304V39.4095H29.4404V38.7195ZM31.5104 38.7195H32.2004V39.4095H31.5104V38.7195ZM32.6604 38.7195H33.3504V39.4095H32.6604V38.7195ZM34.7304 38.7195H35.4204V39.4095H34.7304V38.7195ZM35.8804 38.7195H36.5704V39.4095H35.8804V38.7195ZM5.03743 40.5595C5.92523 40.5595 6.64743 41.2817 6.64743 42.1695V43.7795H3.42743V42.1695C3.42743 41.2817 4.14963 40.5595 5.03743 40.5595ZM40.9174 40.5595C41.8052 40.5595 42.5274 41.2817 42.5274 42.1695V43.7795H39.3074V42.1695C39.3074 41.2817 40.0296 40.5595 40.9174 40.5595ZM10.3504 41.0213C10.8578 41.0213 11.2704 41.4339 11.2704 41.9413V43.7841H9.43043V41.9413C9.43043 41.4339 9.84305 41.0213 10.3504 41.0213ZM13.5704 41.0213C14.0778 41.0213 14.4904 41.4339 14.4904 41.9413V43.7841H12.6504V41.9413C12.6504 41.4339 13.063 41.0213 13.5704 41.0213ZM16.7904 41.0213C17.2978 41.0213 17.7104 41.4339 17.7104 41.9413V43.7841H15.8704V41.9413C15.8704 41.4339 16.283 41.0213 16.7904 41.0213ZM29.2104 41.0213C29.7178 41.0213 30.1304 41.4339 30.1304 41.9413V43.7841H28.2904V41.9413C28.2904 41.4339 28.703 41.0213 29.2104 41.0213ZM32.4304 41.0213C32.9378 41.0213 33.3504 41.4339 33.3504 41.9413V43.7841H31.5104V41.9413C31.5104 41.4339 31.923 41.0213 32.4304 41.0213ZM35.6504 41.0213C36.1578 41.0213 36.5704 41.4339 36.5704 41.9413V43.7841H34.7304V41.9413C34.7304 41.4339 35.143 41.0213 35.6504 41.0213Z" fill="#594555"/>
</svg>
