<svg width="68" height="54" viewBox="0 0 68 54" fill="none" xmlns="http://www.w3.org/2000/svg">
<path d="M31.2803 5.08984C31.1901 5.08984 31.1037 5.12514 31.0399 5.18796C30.9761 5.25079 30.9403 5.336 30.9403 5.42484V6.46334C30.4344 6.53569 29.9657 6.76722 29.6042 7.1234C29.2427 7.47959 29.0077 7.94135 28.9343 8.43984H27.2003C27.1101 8.43984 27.0237 8.47514 26.9599 8.53796C26.8961 8.60079 26.8603 8.686 26.8603 8.77484V9.77984H23.1203C23.0301 9.77984 22.9437 9.81514 22.8799 9.87796C22.8161 9.94079 22.7803 10.026 22.7803 10.1148V15.8098H21.0803C20.9901 15.8098 20.9037 15.8451 20.8399 15.908C20.7761 15.9708 20.7403 16.056 20.7403 16.1448V17.8198H19.7203C19.6301 17.8198 19.5437 17.8551 19.4799 17.918C19.4161 17.9808 19.3803 18.066 19.3803 18.1548V20.4998H17.6803C17.6224 20.5002 17.5655 20.515 17.515 20.5429C17.4645 20.5709 17.422 20.6111 17.3916 20.6597C17.3612 20.7082 17.3439 20.7637 17.3412 20.8207C17.3385 20.8777 17.3506 20.9345 17.3764 20.9856L19.3803 24.9346V31.8898H19.0403C18.9501 31.8898 18.8637 31.9251 18.7999 31.988C18.7361 32.0508 18.7003 32.136 18.7003 32.2248C18.7003 32.3137 18.7361 32.3989 18.7999 32.4617C18.8637 32.5245 18.9501 32.5598 19.0403 32.5598H19.3803V36.5798H18.4038C18.3425 36.5803 18.2825 36.5971 18.23 36.6283C18.1775 36.6596 18.1345 36.7042 18.1056 36.7574C18.0766 36.8107 18.0628 36.8706 18.0655 36.931C18.0682 36.9914 18.0874 37.0499 18.121 37.1004L19.3803 38.9617V45.2898H19.0403C18.9501 45.2898 18.8637 45.3251 18.7999 45.388C18.7361 45.4508 18.7003 45.536 18.7003 45.6248C18.7003 45.7137 18.7361 45.7989 18.7999 45.8617C18.8637 45.9245 18.9501 45.9598 19.0403 45.9598H19.3803V47.2998H16.6603C16.5701 47.2998 16.4837 47.3351 16.4199 47.398C16.3561 47.4608 16.3203 47.546 16.3203 47.6348C16.3203 47.7237 16.3561 47.8089 16.4199 47.8717C16.4837 47.9345 16.5701 47.9698 16.6603 47.9698H51.3403C51.4305 47.9698 51.517 47.9345 51.5807 47.8717C51.6445 47.8089 51.6803 47.7237 51.6803 47.6348C51.6803 47.546 51.6445 47.4608 51.5807 47.398C51.517 47.3351 51.4305 47.2998 51.3403 47.2998H48.6203V45.9598H48.9603C49.0505 45.9598 49.137 45.9245 49.2007 45.8617C49.2645 45.7989 49.3003 45.7137 49.3003 45.6248C49.3003 45.536 49.2645 45.4508 49.2007 45.388C49.137 45.3251 49.0505 45.2898 48.9603 45.2898H48.6203V39.0267L49.9232 37.1004C49.9573 37.05 49.9768 36.9914 49.9797 36.9308C49.9827 36.8703 49.9689 36.8101 49.9399 36.7567C49.9109 36.7033 49.8677 36.6586 49.8149 36.6275C49.7622 36.5963 49.7018 36.5799 49.6403 36.5798H48.6203V32.5598H48.9603C49.0505 32.5598 49.137 32.5245 49.2007 32.4617C49.2645 32.3989 49.3003 32.3137 49.3003 32.2248C49.3003 32.136 49.2645 32.0508 49.2007 31.988C49.137 31.9251 49.0505 31.8898 48.9603 31.8898H48.6203V24.9332L50.6243 20.9843C50.6503 20.9332 50.6626 20.8765 50.6601 20.8194C50.6575 20.7624 50.6402 20.7069 50.6097 20.6584C50.5792 20.6098 50.5366 20.5697 50.486 20.542C50.4353 20.5142 50.3783 20.4997 50.3203 20.4998H48.6203V18.1548C48.6203 18.066 48.5845 17.9808 48.5207 17.918C48.457 17.8551 48.3705 17.8198 48.2803 17.8198H47.2603V16.1448C47.2603 16.056 47.2245 15.9708 47.1607 15.908C47.097 15.8451 47.0105 15.8098 46.9203 15.8098H45.2203V10.1148C45.2203 10.026 45.1845 9.94079 45.1207 9.87796C45.057 9.81514 44.9705 9.77984 44.8803 9.77984H41.1403V8.77484C41.1403 8.686 41.1045 8.60079 41.0407 8.53796C40.977 8.47514 40.8905 8.43984 40.8003 8.43984H39.0663C39.0595 8.39495 39.0616 8.34671 39.0527 8.30249C38.9523 7.83159 38.7073 7.40254 38.3508 7.07363C37.9944 6.74471 37.5438 6.53187 37.0603 6.46401V5.42484C37.0603 5.336 37.0245 5.25079 36.9607 5.18796C36.897 5.12514 36.8105 5.08984 36.7203 5.08984H31.2803ZM31.6203 5.75984H36.3803V6.42984H31.6203V5.75984ZM31.2803 7.09984H36.7203C37.5411 7.09984 38.2299 7.67604 38.387 8.43984H29.615C29.7728 7.67604 30.4596 7.09984 31.2803 7.09984ZM27.5403 9.10984H40.4603V9.77984H27.5403V9.10984ZM23.4603 10.4498H44.5403V15.8098H23.4603V10.4498ZM29.9203 11.7898C29.8301 11.7898 29.7437 11.8251 29.6799 11.888C29.6161 11.9508 29.5803 12.036 29.5803 12.1248V14.1348C29.5803 14.2237 29.6161 14.3089 29.6799 14.3717C29.7437 14.4345 29.8301 14.4698 29.9203 14.4698H30.9403V14.8048C30.9403 14.8937 30.9761 14.9789 31.0399 15.0417C31.1037 15.1045 31.1901 15.1398 31.2803 15.1398H36.7203C36.8105 15.1398 36.897 15.1045 36.9607 15.0417C37.0245 14.9789 37.0603 14.8937 37.0603 14.8048V14.4698H38.0803C38.1705 14.4698 38.257 14.4345 38.3207 14.3717C38.3845 14.3089 38.4203 14.2237 38.4203 14.1348V12.1248C38.4203 12.036 38.3845 11.9508 38.3207 11.888C38.257 11.8251 38.1705 11.7898 38.0803 11.7898H29.9203ZM27.2003 11.8039C26.7496 11.8043 26.3174 11.9809 25.9986 12.2949C25.6799 12.6089 25.5007 13.0348 25.5003 13.4789C25.5003 14.4035 26.2626 15.1539 27.2003 15.1539C28.138 15.1539 28.9003 14.4035 28.9003 13.4789C28.9003 12.555 28.138 11.8039 27.2003 11.8039ZM40.8003 11.8039C40.3496 11.8043 39.9174 11.9809 39.5986 12.2949C39.2799 12.6089 39.1007 13.0348 39.1003 13.4789C39.1003 14.4035 39.8626 15.1539 40.8003 15.1539C41.738 15.1539 42.5003 14.4035 42.5003 13.4789C42.5003 12.555 41.738 11.8039 40.8003 11.8039ZM30.2603 12.4598H37.7403V13.7998H36.7203C36.6301 13.7998 36.5437 13.8351 36.4799 13.898C36.4161 13.9608 36.3803 14.046 36.3803 14.1348V14.4698H31.6203V14.1348C31.6203 14.046 31.5845 13.9608 31.5207 13.898C31.457 13.8351 31.3705 13.7998 31.2803 13.7998H30.2603V12.4598ZM27.2003 12.4739C27.7627 12.4739 28.2203 12.9248 28.2203 13.4789C28.2203 14.033 27.7627 14.4839 27.2003 14.4839C26.638 14.4839 26.1803 14.033 26.1803 13.4789C26.1803 12.9248 26.638 12.4739 27.2003 12.4739ZM40.8003 12.4739C41.3627 12.4739 41.8203 12.9248 41.8203 13.4789C41.8203 14.033 41.3627 14.4839 40.8003 14.4839C40.238 14.4839 39.7803 14.033 39.7803 13.4789C39.7803 12.9248 40.238 12.4739 40.8003 12.4739ZM21.4203 16.4798H46.5803V17.8198H21.4203V16.4798ZM20.0603 18.4898H47.9403V20.4998H20.0603V18.4898ZM18.2304 21.1698H49.7695L49.4295 21.8398H18.5711L18.2304 21.1698ZM18.9104 22.5098H19.3803V23.4365L18.9104 22.5098ZM20.0603 22.5098H21.4203V24.5198H20.0603V22.5098ZM22.1003 22.5098H23.4603V24.5198H22.1003V22.5098ZM24.1403 22.5098H25.5003V24.5198H24.1403V22.5098ZM26.1803 22.5098H27.5403V24.5198H26.1803V22.5098ZM28.2203 22.5098H29.5803V24.5198H28.2203V22.5098ZM30.2603 22.5098H31.6203V24.5198H30.2603V22.5098ZM32.3003 22.5098H33.6603V24.5198H32.3003V22.5098ZM34.3403 22.5098H35.7003V24.5198H34.3403V22.5098ZM36.3803 22.5098H37.7403V24.5198H36.3803V22.5098ZM38.4203 22.5098H39.7803V24.5198H38.4203V22.5098ZM40.4603 22.5098H41.8203V24.5198H40.4603V22.5098ZM42.5003 22.5098H43.8603V24.5198H42.5003V22.5098ZM44.5403 22.5098H45.9003V24.5198H44.5403V22.5098ZM46.5803 22.5098H47.9403V24.5198H46.5803V22.5098ZM48.6203 22.5098H49.0902L48.6203 23.4365V22.5098ZM20.0603 25.1898H27.5403V31.8898H26.8603V29.5448C26.8603 29.456 26.8245 29.3708 26.7607 29.308C26.697 29.2451 26.6105 29.2098 26.5203 29.2098H21.0803C20.9901 29.2098 20.9037 29.2451 20.8399 29.308C20.7761 29.3708 20.7403 29.456 20.7403 29.5448V31.8898H20.0603V25.1898ZM28.2203 25.1898H39.7803V26.5298H34.6803C34.5901 26.5298 34.5037 26.5651 34.4399 26.628C34.3761 26.6908 34.3403 26.776 34.3403 26.8648V29.2098H33.6603V26.8648C33.6603 26.776 33.6245 26.6908 33.5607 26.628C33.497 26.5651 33.4105 26.5298 33.3203 26.5298H28.2203V25.1898ZM40.4603 25.1898H47.9403V31.8898H47.2603V29.5448C47.2603 29.456 47.2245 29.3708 47.1607 29.308C47.097 29.2451 47.0105 29.2098 46.9203 29.2098H41.4803C41.3901 29.2098 41.3037 29.2451 41.2399 29.308C41.1761 29.3708 41.1403 29.456 41.1403 29.5448V31.8898H40.4603V25.1898ZM23.8003 25.8598C23.0503 25.8598 22.4403 26.4608 22.4403 27.1998C22.4403 27.9389 23.0503 28.5398 23.8003 28.5398C24.5504 28.5398 25.1603 27.9389 25.1603 27.1998C25.1603 26.4608 24.5504 25.8598 23.8003 25.8598ZM44.2003 25.8598C43.4503 25.8598 42.8403 26.4608 42.8403 27.1998C42.8403 27.9389 43.4503 28.5398 44.2003 28.5398C44.9504 28.5398 45.5603 27.9389 45.5603 27.1998C45.5603 26.4608 44.9504 25.8598 44.2003 25.8598ZM23.8003 26.5298C23.9807 26.5298 24.1536 26.6004 24.2811 26.7261C24.4087 26.8517 24.4803 27.0221 24.4803 27.1998C24.4803 27.3775 24.4087 27.548 24.2811 27.6736C24.1536 27.7993 23.9807 27.8698 23.8003 27.8698C23.62 27.8698 23.447 27.7993 23.3195 27.6736C23.192 27.548 23.1203 27.3775 23.1203 27.1998C23.1203 27.0221 23.192 26.8517 23.3195 26.7261C23.447 26.6004 23.62 26.5298 23.8003 26.5298ZM44.2003 26.5298C44.3807 26.5298 44.5536 26.6004 44.6811 26.7261C44.8087 26.8517 44.8803 27.0221 44.8803 27.1998C44.8803 27.3775 44.8087 27.548 44.6811 27.6736C44.5536 27.7993 44.3807 27.8698 44.2003 27.8698C44.02 27.8698 43.847 27.7993 43.7195 27.6736C43.592 27.548 43.5203 27.3775 43.5203 27.1998C43.5203 27.0221 43.592 26.8517 43.7195 26.7261C43.847 26.6004 44.02 26.5298 44.2003 26.5298ZM28.2203 27.1998H32.9803V27.3111C30.7649 27.7573 29.0703 29.6152 28.916 31.8898H28.2203V27.1998ZM35.0203 27.1998H39.7803V31.8898H39.0847C38.931 29.6152 37.2351 27.7573 35.0203 27.3111V27.1998ZM32.9803 27.9945V28.6966C32.2576 28.8997 31.614 29.3133 31.1341 29.8832C30.6542 30.453 30.3602 31.1525 30.2909 31.8898H29.596C29.6696 30.9714 30.0369 30.0996 30.645 29.3997C31.253 28.6998 32.0707 28.2078 32.9803 27.9945ZM35.0203 27.9945C35.93 28.2078 36.7476 28.6998 37.3557 29.3997C37.9638 30.0996 38.331 30.9714 38.4047 31.8898H37.7097C37.6406 31.1524 37.3467 30.4529 36.8667 29.883C36.3868 29.3131 35.7431 28.8996 35.0203 28.6966V27.9945ZM32.9803 29.3981V29.5448C32.9803 29.6337 33.0161 29.7189 33.0799 29.7817C33.1437 29.8445 33.2301 29.8798 33.3203 29.8798H34.6803C34.7705 29.8798 34.857 29.8445 34.9207 29.7817C34.9845 29.7189 35.0203 29.6337 35.0203 29.5448V29.3981C35.5588 29.5861 36.0328 29.9194 36.3883 30.3599C36.7438 30.8005 36.9665 31.3306 37.0311 31.8898H36.7203C36.6301 31.8898 36.5437 31.9251 36.4799 31.988C36.4161 32.0508 36.3803 32.136 36.3803 32.2248C36.3803 32.3137 36.4161 32.3989 36.4799 32.4617C36.5437 32.5245 36.6301 32.5598 36.7203 32.5598H37.0603V36.5798H36.7203C36.6301 36.5798 36.5437 36.6151 36.4799 36.678C36.4161 36.7408 36.3803 36.826 36.3803 36.9148C36.3803 37.0037 36.4161 37.0889 36.4799 37.1517C36.5437 37.2145 36.6301 37.2498 36.7203 37.2498H37.0603V47.2998H30.9403V37.2498H31.2803C31.3705 37.2498 31.457 37.2145 31.5207 37.1517C31.5845 37.0889 31.6203 37.0037 31.6203 36.9148C31.6203 36.826 31.5845 36.7408 31.5207 36.678C31.457 36.6151 31.3705 36.5798 31.2803 36.5798H30.9403V32.5598H31.2803C31.3705 32.5598 31.457 32.5245 31.5207 32.4617C31.5845 32.3989 31.6203 32.3137 31.6203 32.2248C31.6203 32.136 31.5845 32.0508 31.5207 31.988C31.457 31.9251 31.3705 31.8898 31.2803 31.8898H30.9696C31.0343 31.3307 31.257 30.8006 31.6125 30.3601C31.968 29.9195 32.442 29.5862 32.9803 29.3981ZM21.4203 29.8798H22.4403V30.5498H21.4203V29.8798ZM23.1203 29.8798H24.4803V30.5498H23.1203V29.8798ZM25.1603 29.8798H26.1803V30.5498H25.1603V29.8798ZM41.8203 29.8798H42.8403V30.5498H41.8203V29.8798ZM43.5203 29.8798H44.8803V30.5498H43.5203V29.8798ZM45.5603 29.8798H46.5803V30.5498H45.5603V29.8798ZM21.4203 31.2198H26.1803V31.8898H21.4203V31.2198ZM41.8203 31.2198H46.5803V31.8898H41.8203V31.2198ZM20.0603 32.5598H20.7403V33.2298H20.0603V32.5598ZM21.4203 32.5598H26.1803V33.2298H21.4203V32.5598ZM26.8603 32.5598H27.5403V33.2298H26.8603V32.5598ZM28.2203 32.5598H30.2603V36.5798H28.2203V32.5598ZM37.7403 32.5598H39.7803V36.5798H37.7403V32.5598ZM40.4603 32.5598H41.1403V33.2298H40.4603V32.5598ZM41.8203 32.5598H46.5803V33.2298H41.8203V32.5598ZM47.2603 32.5598H47.9403V33.2298H47.2603V32.5598ZM20.0603 33.8998H20.7403V36.5798H20.0603V33.8998ZM21.4203 33.8998H22.1003V35.5748C22.1003 35.6637 22.1361 35.7489 22.1999 35.8117C22.2637 35.8745 22.3501 35.9098 22.4403 35.9098H25.1603C25.2505 35.9098 25.337 35.8745 25.4007 35.8117C25.4645 35.7489 25.5003 35.6637 25.5003 35.5748V33.8998H26.1803V36.5798H21.4203V33.8998ZM22.7803 33.8998H24.8203V35.2398H22.7803V33.8998ZM26.8603 33.8998H27.5403V36.5798H26.8603V33.8998ZM40.4603 33.8998H41.1403V36.5798H40.4603V33.8998ZM41.8203 33.8998H42.5003V35.5748C42.5003 35.6637 42.5361 35.7489 42.5999 35.8117C42.6637 35.8745 42.7501 35.9098 42.8403 35.9098H45.5603C45.6505 35.9098 45.737 35.8745 45.8007 35.8117C45.8645 35.7489 45.9003 35.6637 45.9003 35.5748V33.8998H46.5803V36.5798H41.8203V33.8998ZM43.1803 33.8998H45.2203V35.2398H43.1803V33.8998ZM47.2603 33.8998H47.9403V36.5798H47.2603V33.8998ZM19.039 37.2498H28.6052L27.6981 38.5898H19.9447L19.039 37.2498ZM29.4226 37.2498H30.2603V47.2998H28.2203V39.0267L29.4226 37.2498ZM37.7403 37.2498H38.6223L39.7803 38.9617V47.2998H37.7403V37.2498ZM39.439 37.2498H49.0052L48.0981 38.5898H40.3447L39.439 37.2498ZM20.0603 39.2598H20.7403V45.2898H20.0603V39.2598ZM21.4203 39.2598H26.1803V45.2898H21.4203V39.2598ZM26.8603 39.2598H27.5403V45.2898H26.8603V39.2598ZM40.4603 39.2598H41.1403V45.2898H40.4603V39.2598ZM41.8203 39.2598H46.5803V45.2898H41.8203V39.2598ZM47.2603 39.2598H47.9403V45.2898H47.2603V39.2598ZM20.0603 45.9598H20.7403V47.2998H20.0603V45.9598ZM21.4203 45.9598H22.1003V47.2998H21.4203V45.9598ZM22.7803 45.9598H24.8203V47.2998H22.7803V45.9598ZM25.5003 45.9598H26.1803V47.2998H25.5003V45.9598ZM26.8603 45.9598H27.5403V47.2998H26.8603V45.9598ZM40.4603 45.9598H41.1403V47.2998H40.4603V45.9598ZM41.8203 45.9598H42.5003V47.2998H41.8203V45.9598ZM43.1803 45.9598H45.2203V47.2998H43.1803V45.9598ZM45.9003 45.9598H46.5803V47.2998H45.9003V45.9598ZM47.2603 45.9598H47.9403V47.2998H47.2603V45.9598Z" fill="#594454"/>
</svg>
