<svg width="68" height="58" viewBox="0 0 68 58" fill="none" xmlns="http://www.w3.org/2000/svg">
<path d="M24.4795 35.2205C23.9355 35.2205 23.4595 35.6965 23.4595 36.2405V37.6005C23.4595 37.8045 23.5955 37.9405 23.7995 37.9405H25.1595C25.3635 37.9405 25.4995 37.8045 25.4995 37.6005V36.2405C25.4995 35.6965 25.0235 35.2205 24.4795 35.2205ZM24.8195 37.2605H24.1395V36.2405C24.1395 36.0365 24.2755 35.9005 24.4795 35.9005C24.6835 35.9005 24.8195 36.0365 24.8195 36.2405V37.2605ZM24.4795 31.8205C23.9355 31.8205 23.4595 32.2965 23.4595 32.8405V34.2005C23.4595 34.4045 23.5955 34.5405 23.7995 34.5405H25.1595C25.3635 34.5405 25.4995 34.4045 25.4995 34.2005V32.8405C25.4995 32.2965 25.0235 31.8205 24.4795 31.8205ZM24.8195 33.8605H24.1395V32.8405C24.1395 32.6365 24.2755 32.5005 24.4795 32.5005C24.6835 32.5005 24.8195 32.6365 24.8195 32.8405V33.8605ZM19.7195 29.1005C19.9235 29.1005 20.0595 28.9645 20.0595 28.7605V27.4005C20.0595 26.8565 19.5835 26.3805 19.0395 26.3805C18.4955 26.3805 18.0195 26.8565 18.0195 27.4005V28.7605C18.0195 28.9645 18.1555 29.1005 18.3595 29.1005H19.7195ZM18.6995 27.4005C18.6995 27.1965 18.8355 27.0605 19.0395 27.0605C19.2435 27.0605 19.3795 27.1965 19.3795 27.4005V28.4205H18.6995V27.4005ZM18.3595 25.7005H19.7195C19.9235 25.7005 20.0595 25.5645 20.0595 25.3605V24.0005C20.0595 23.4565 19.5835 22.9805 19.0395 22.9805C18.4955 22.9805 18.0195 23.4565 18.0195 24.0005V25.3605C18.0195 25.5645 18.1555 25.7005 18.3595 25.7005ZM18.6995 24.0005C18.6995 23.7965 18.8355 23.6605 19.0395 23.6605C19.2435 23.6605 19.3795 23.7965 19.3795 24.0005V25.0205H18.6995V24.0005ZM21.0795 29.1005H22.4395C22.6435 29.1005 22.7795 28.9645 22.7795 28.7605V27.4005C22.7795 26.8565 22.3035 26.3805 21.7595 26.3805C21.2155 26.3805 20.7395 26.8565 20.7395 27.4005V28.7605C20.7395 28.9645 20.8755 29.1005 21.0795 29.1005ZM21.4195 27.4005C21.4195 27.1965 21.5555 27.0605 21.7595 27.0605C21.9635 27.0605 22.0995 27.1965 22.0995 27.4005V28.4205H21.4195V27.4005ZM21.0795 25.7005H22.4395C22.6435 25.7005 22.7795 25.5645 22.7795 25.3605V24.0005C22.7795 23.4565 22.3035 22.9805 21.7595 22.9805C21.2155 22.9805 20.7395 23.4565 20.7395 24.0005V25.3605C20.7395 25.5645 20.8755 25.7005 21.0795 25.7005ZM21.4195 24.0005C21.4195 23.7965 21.5555 23.6605 21.7595 23.6605C21.9635 23.6605 22.0995 23.7965 22.0995 24.0005V25.0205H21.4195V24.0005ZM46.2395 26.3805C45.6955 26.3805 45.2195 26.8565 45.2195 27.4005V28.7605C45.2195 28.9645 45.3555 29.1005 45.5595 29.1005H46.9195C47.1235 29.1005 47.2595 28.9645 47.2595 28.7605V27.4005C47.2595 26.8565 46.7835 26.3805 46.2395 26.3805ZM46.5795 28.4205H45.8995V27.4005C45.8995 27.1965 46.0355 27.0605 46.2395 27.0605C46.4435 27.0605 46.5795 27.1965 46.5795 27.4005V28.4205ZM46.2395 22.9805C45.6955 22.9805 45.2195 23.4565 45.2195 24.0005V25.3605C45.2195 25.5645 45.3555 25.7005 45.5595 25.7005H46.9195C47.1235 25.7005 47.2595 25.5645 47.2595 25.3605V24.0005C47.2595 23.4565 46.7835 22.9805 46.2395 22.9805ZM46.5795 25.0205H45.8995V24.0005C45.8995 23.7965 46.0355 23.6605 46.2395 23.6605C46.4435 23.6605 46.5795 23.7965 46.5795 24.0005V25.0205ZM48.9595 26.3805C48.4155 26.3805 47.9395 26.8565 47.9395 27.4005V28.7605C47.9395 28.9645 48.0755 29.1005 48.2795 29.1005H49.6395C49.8435 29.1005 49.9795 28.9645 49.9795 28.7605V27.4005C49.9795 26.8565 49.5035 26.3805 48.9595 26.3805ZM49.2995 28.4205H48.6195V27.4005C48.6195 27.1965 48.7555 27.0605 48.9595 27.0605C49.1635 27.0605 49.2995 27.1965 49.2995 27.4005V28.4205ZM47.9395 24.0005V25.3605C47.9395 25.5645 48.0755 25.7005 48.2795 25.7005H49.6395C49.8435 25.7005 49.9795 25.5645 49.9795 25.3605V24.0005C49.9795 23.4565 49.5035 22.9805 48.9595 22.9805C48.4155 22.9805 47.9395 23.4565 47.9395 24.0005ZM49.2995 24.0005V25.0205H48.6195V24.0005C48.6195 23.7965 48.7555 23.6605 48.9595 23.6605C49.1635 23.6605 49.2995 23.7965 49.2995 24.0005Z" fill="#594454"/>
<path d="M51.0002 30.4601C51.2042 30.4601 51.3402 30.3241 51.3402 30.1201V21.9601C51.3402 21.7561 51.2042 21.6201 51.0002 21.6201H49.3002V16.8601H50.3202C50.5242 16.8601 50.6602 16.7241 50.6602 16.5201V13.8001C50.6602 13.5961 50.5242 13.4601 50.3202 13.4601H49.3002V11.0801H49.6402C49.8442 11.0801 49.9802 10.9441 49.9802 10.7401V8.70008C49.9802 8.49608 49.8442 8.36008 49.6402 8.36008H49.3002V6.11608C49.3002 5.36808 48.9602 4.68808 48.2802 4.28008L47.9402 4.07608V2.92008C47.9402 2.71608 47.8042 2.58008 47.6002 2.58008C47.3962 2.58008 47.2602 2.71608 47.2602 2.92008V4.07608L46.9202 4.28008C46.3082 4.68808 45.9002 5.36808 45.9002 6.11608V8.36008H45.5602C45.3562 8.36008 45.2202 8.49608 45.2202 8.70008V10.7401C45.2202 10.9441 45.3562 11.0801 45.5602 11.0801H45.9002V13.4601H44.8802C44.6762 13.4601 44.5402 13.5961 44.5402 13.8001V16.5201C44.5402 16.7241 44.6762 16.8601 44.8802 16.8601H45.9002V17.5401H22.1002V16.8601H23.1202C23.3242 16.8601 23.4602 16.7241 23.4602 16.5201V13.8001C23.4602 13.5961 23.3242 13.4601 23.1202 13.4601H22.1002V11.0801H22.4402C22.6442 11.0801 22.7802 10.9441 22.7802 10.7401V8.70008C22.7802 8.49608 22.6442 8.36008 22.4402 8.36008H22.1002V6.11608C22.1002 5.36808 21.7602 4.68808 21.0802 4.28008L20.7402 4.07608V2.92008C20.7402 2.71608 20.6042 2.58008 20.4002 2.58008C20.1962 2.58008 20.0602 2.71608 20.0602 2.92008V4.07608L19.7202 4.28008C19.1082 4.68808 18.7002 5.36808 18.7002 6.11608V8.36008H18.3602C18.1562 8.36008 18.0202 8.49608 18.0202 8.70008V10.7401C18.0202 10.9441 18.1562 11.0801 18.3602 11.0801H18.7002V13.4601H17.6802C17.4762 13.4601 17.3402 13.5961 17.3402 13.8001V16.5201C17.3402 16.7241 17.4762 16.8601 17.6802 16.8601H18.7002V21.6201H17.0002C16.7962 21.6201 16.6602 21.7561 16.6602 21.9601V30.1201C16.6602 30.3241 16.7962 30.4601 17.0002 30.4601H18.0202V45.4201H17.0002C16.7962 45.4201 16.6602 45.5561 16.6602 45.7601C16.6602 45.9641 16.7962 46.1001 17.0002 46.1001H51.0002C51.2042 46.1001 51.3402 45.9641 51.3402 45.7601C51.3402 45.5561 51.2042 45.4201 51.0002 45.4201H49.9802V30.4601H51.0002ZM50.6602 29.7801H44.5402V22.3001H50.6602V29.7801ZM41.4802 29.7801H40.4602V26.7201C40.4602 25.7001 41.2082 25.2241 41.4802 25.0201C41.7522 25.1561 42.5002 25.6321 42.5002 26.7201V29.7801H41.4802ZM41.6162 24.3401H41.4122C41.3442 24.3401 39.7802 24.9521 39.7802 26.7201V29.7801H39.1002V26.7201C39.1002 24.9521 37.6042 24.4081 37.5362 24.3401H37.3322C37.2642 24.3401 35.7002 24.9521 35.7002 26.7201V29.7801H32.3002V26.7201C32.3002 24.9521 30.8042 24.4081 30.7362 24.3401H30.5322C30.4642 24.3401 28.9002 24.9521 28.9002 26.7201V29.7801H28.2202V26.7201C28.2202 24.9521 26.7242 24.4081 26.6562 24.3401H26.4522C26.3842 24.3401 24.8202 24.9521 24.8202 26.7201V29.7801H24.1402V22.3001H24.8202V22.6401C24.8202 22.8441 24.9562 22.9801 25.1602 22.9801C25.3642 22.9801 25.5002 22.8441 25.5002 22.6401V22.3001H26.1802V22.6401C26.1802 22.8441 26.3162 22.9801 26.5202 22.9801C26.7242 22.9801 26.8602 22.8441 26.8602 22.6401V22.3001H27.5402V22.6401C27.5402 22.8441 27.6762 22.9801 27.8802 22.9801C28.0842 22.9801 28.2202 22.8441 28.2202 22.6401V22.3001H28.9002V22.6401C28.9002 22.8441 29.0362 22.9801 29.2402 22.9801C29.4442 22.9801 29.5802 22.8441 29.5802 22.6401V22.3001H30.2602V22.6401C30.2602 22.8441 30.3962 22.9801 30.6002 22.9801C30.8042 22.9801 30.9402 22.8441 30.9402 22.6401V22.3001H31.6202V22.6401C31.6202 22.8441 31.7562 22.9801 31.9602 22.9801C32.1642 22.9801 32.3002 22.8441 32.3002 22.6401V22.3001H32.9802V22.6401C32.9802 22.8441 33.1162 22.9801 33.3202 22.9801C33.5242 22.9801 33.6602 22.8441 33.6602 22.6401V22.3001H34.3402V22.6401C34.3402 22.8441 34.4762 22.9801 34.6802 22.9801C34.8842 22.9801 35.0202 22.8441 35.0202 22.6401V22.3001H35.7002V22.6401C35.7002 22.8441 35.8362 22.9801 36.0402 22.9801C36.2442 22.9801 36.3802 22.8441 36.3802 22.6401V22.3001H37.0602V22.6401C37.0602 22.8441 37.1962 22.9801 37.4002 22.9801C37.6042 22.9801 37.7402 22.8441 37.7402 22.6401V22.3001H38.4202V22.6401C38.4202 22.8441 38.5562 22.9801 38.7602 22.9801C38.9642 22.9801 39.1002 22.8441 39.1002 22.6401V22.3001H39.7802V22.6401C39.7802 22.8441 39.9162 22.9801 40.1202 22.9801C40.3242 22.9801 40.4602 22.8441 40.4602 22.6401V22.3001H41.1402V22.6401C41.1402 22.8441 41.2762 22.9801 41.4802 22.9801C41.6842 22.9801 41.8202 22.8441 41.8202 22.6401V22.3001H42.5002V22.6401C42.5002 22.8441 42.6362 22.9801 42.8402 22.9801C43.0442 22.9801 43.1802 22.8441 43.1802 22.6401V22.3001H43.8602V29.7801H43.1802V26.7201C43.1802 24.9521 41.6842 24.4081 41.6162 24.3401ZM36.3802 29.7801V26.7201C36.3802 25.7001 37.1282 25.2241 37.4002 25.0201C37.6722 25.1561 38.4202 25.6321 38.4202 26.7201V29.7801H36.3802ZM29.5802 29.7801V26.7201C29.5802 25.7001 30.3282 25.2241 30.6002 25.0201C30.8722 25.1561 31.6202 25.6321 31.6202 26.7201V29.7801H29.5802ZM26.5202 29.7801H25.5002V26.7201C25.5002 25.7001 26.2482 25.2241 26.5202 25.0201C26.7922 25.1561 27.5402 25.6321 27.5402 26.7201V29.7801H26.5202ZM22.1002 19.5801H45.9002V21.6201H44.5402V21.2801C44.5402 20.7361 44.0642 20.2601 43.5202 20.2601C42.9762 20.2601 42.5002 20.7361 42.5002 21.2801V21.6201H41.8202V21.2801C41.8202 20.7361 41.3442 20.2601 40.8002 20.2601C40.2562 20.2601 39.7802 20.7361 39.7802 21.2801V21.6201H39.1002V21.2801C39.1002 20.7361 38.6242 20.2601 38.0802 20.2601C37.5362 20.2601 37.0602 20.7361 37.0602 21.2801V21.6201H36.3802V21.2801C36.3802 20.7361 35.9042 20.2601 35.3602 20.2601C34.8162 20.2601 34.3402 20.7361 34.3402 21.2801V21.6201H33.6602V21.2801C33.6602 20.7361 33.1842 20.2601 32.6402 20.2601C32.0962 20.2601 31.6202 20.7361 31.6202 21.2801V21.6201H30.9402V21.2801C30.9402 20.7361 30.4642 20.2601 29.9202 20.2601C29.3762 20.2601 28.9002 20.7361 28.9002 21.2801V21.6201H28.2202V21.2801C28.2202 20.7361 27.7442 20.2601 27.2002 20.2601C26.6562 20.2601 26.1802 20.7361 26.1802 21.2801V21.6201H25.5002V21.2801C25.5002 20.7361 25.0242 20.2601 24.4802 20.2601C23.9362 20.2601 23.4602 20.7361 23.4602 21.2801V21.6201H22.1002V19.5801ZM43.8602 21.6201H43.1802V21.2801C43.1802 21.0761 43.3162 20.9401 43.5202 20.9401C43.7242 20.9401 43.8602 21.0761 43.8602 21.2801V21.6201ZM41.1402 21.6201H40.4602V21.2801C40.4602 21.0761 40.5962 20.9401 40.8002 20.9401C41.0042 20.9401 41.1402 21.0761 41.1402 21.2801V21.6201ZM38.4202 21.6201H37.7402V21.2801C37.7402 21.0761 37.8762 20.9401 38.0802 20.9401C38.2842 20.9401 38.4202 21.0761 38.4202 21.2801V21.6201ZM35.7002 21.6201H35.0202V21.2801C35.0202 21.0761 35.1562 20.9401 35.3602 20.9401C35.5642 20.9401 35.7002 21.0761 35.7002 21.2801V21.6201ZM32.9802 21.6201H32.3002V21.2801C32.3002 21.0761 32.4362 20.9401 32.6402 20.9401C32.8442 20.9401 32.9802 21.0761 32.9802 21.2801V21.6201ZM30.2602 21.6201H29.5802V21.2801C29.5802 21.0761 29.7162 20.9401 29.9202 20.9401C30.1242 20.9401 30.2602 21.0761 30.2602 21.2801V21.6201ZM27.5402 21.6201H26.8602V21.2801C26.8602 21.0761 26.9962 20.9401 27.2002 20.9401C27.4042 20.9401 27.5402 21.0761 27.5402 21.2801V21.6201ZM24.8202 21.6201H24.1402V21.2801C24.1402 21.0761 24.2762 20.9401 24.4802 20.9401C24.6842 20.9401 24.8202 21.0761 24.8202 21.2801V21.6201ZM49.3002 10.4001H48.6202V10.0601C48.6202 9.85608 48.4842 9.72008 48.2802 9.72008C48.0762 9.72008 47.9402 9.85608 47.9402 10.0601V10.4001H47.2602V10.0601C47.2602 9.85608 47.1242 9.72008 46.9202 9.72008C46.7162 9.72008 46.5802 9.85608 46.5802 10.0601V10.4001H45.9002V9.04008H49.3002V10.4001ZM47.2602 4.89208L47.6002 4.68808L47.9402 4.89208C48.3482 5.16408 48.5522 5.57208 48.6202 5.98008H46.5802C46.6482 5.50408 46.8522 5.09608 47.2602 4.89208ZM46.5802 6.66008H48.6202V8.36008H47.9402V7.68008C47.9402 7.47608 47.8042 7.34008 47.6002 7.34008C47.3962 7.34008 47.2602 7.47608 47.2602 7.68008V8.36008H46.5802V6.66008ZM46.5802 11.0801H48.6202V13.4601H46.5802V11.0801ZM45.2202 16.1801V14.1401H49.9802V16.1801H49.3002V15.1601C49.3002 14.9561 49.1642 14.8201 48.9602 14.8201C48.7562 14.8201 48.6202 14.9561 48.6202 15.1601V16.1801H47.9402V15.1601C47.9402 14.9561 47.8042 14.8201 47.6002 14.8201C47.3962 14.8201 47.2602 14.9561 47.2602 15.1601V16.1801H46.5802V15.1601C46.5802 14.9561 46.4442 14.8201 46.2402 14.8201C46.0362 14.8201 45.9002 14.9561 45.9002 15.1601V16.1801H45.2202ZM48.6202 16.8601V21.6201H46.5802V16.8601H48.6202ZM45.9002 18.2201V18.9001H22.1002V18.2201H45.9002ZM22.1002 10.4001H21.4202V10.0601C21.4202 9.85608 21.2842 9.72008 21.0802 9.72008C20.8762 9.72008 20.7402 9.85608 20.7402 10.0601V10.4001H20.0602V10.0601C20.0602 9.85608 19.9242 9.72008 19.7202 9.72008C19.5162 9.72008 19.3802 9.85608 19.3802 10.0601V10.4001H18.7002V9.04008H22.1002V10.4001ZM20.0602 4.89208L20.4002 4.68808L20.7402 4.89208C21.1482 5.16408 21.3522 5.57208 21.4202 5.98008H19.3802C19.4482 5.50408 19.6522 5.09608 20.0602 4.89208ZM19.3802 6.66008H21.4202V8.36008H20.7402V7.68008C20.7402 7.47608 20.6042 7.34008 20.4002 7.34008C20.1962 7.34008 20.0602 7.47608 20.0602 7.68008V8.36008H19.3802V6.66008ZM19.3802 11.0801H21.4202V13.4601H19.3802V11.0801ZM18.0202 16.1801V14.1401H22.7802V16.1801H22.1002V15.1601C22.1002 14.9561 21.9642 14.8201 21.7602 14.8201C21.5562 14.8201 21.4202 14.9561 21.4202 15.1601V16.1801H20.7402V15.1601C20.7402 14.9561 20.6042 14.8201 20.4002 14.8201C20.1962 14.8201 20.0602 14.9561 20.0602 15.1601V16.1801H19.3802V15.1601C19.3802 14.9561 19.2442 14.8201 19.0402 14.8201C18.8362 14.8201 18.7002 14.9561 18.7002 15.1601V16.1801H18.0202ZM19.3802 16.8601H21.4202V21.6201H19.3802V16.8601ZM17.3402 22.3001H23.4602V29.7801H17.3402V22.3001ZM18.7002 30.4601H22.1002V45.4201H18.7002V30.4601ZM22.7802 30.4601H23.4602V30.8001C23.4602 31.0041 23.5962 31.1401 23.8002 31.1401C24.0042 31.1401 24.1402 31.0041 24.1402 30.8001V30.4601H24.8202V30.8001C24.8202 31.0041 24.9562 31.1401 25.1602 31.1401C25.3642 31.1401 25.5002 31.0041 25.5002 30.8001V30.4601H26.1802V45.4201H22.7802V30.4601ZM26.8602 30.4601H27.5402V30.8001C27.5402 31.0041 27.6762 31.1401 27.8802 31.1401C28.0842 31.1401 28.2202 31.0041 28.2202 30.8001V30.4601H28.9002V30.8001C28.9002 31.0041 29.0362 31.1401 29.2402 31.1401C29.4442 31.1401 29.5802 31.0041 29.5802 30.8001V30.4601H30.2602V30.8001C30.2602 31.0041 30.3962 31.1401 30.6002 31.1401C30.8042 31.1401 30.9402 31.0041 30.9402 30.8001V30.4601H31.6202V30.8001C31.6202 31.0041 31.7562 31.1401 31.9602 31.1401C32.1642 31.1401 32.3002 31.0041 32.3002 30.8001V30.4601H32.9802V30.8001C32.9802 31.0041 33.1162 31.1401 33.3202 31.1401C33.5242 31.1401 33.6602 31.0041 33.6602 30.8001V30.4601H34.3402V30.8001C34.3402 31.0041 34.4762 31.1401 34.6802 31.1401C34.8842 31.1401 35.0202 31.0041 35.0202 30.8001V30.4601H35.7002V30.8001C35.7002 31.0041 35.8362 31.1401 36.0402 31.1401C36.2442 31.1401 36.3802 31.0041 36.3802 30.8001V30.4601H37.0602V30.8001C37.0602 31.0041 37.1962 31.1401 37.4002 31.1401C37.6042 31.1401 37.7402 31.0041 37.7402 30.8001V30.4601H38.4202V30.8001C38.4202 31.0041 38.5562 31.1401 38.7602 31.1401C38.9642 31.1401 39.1002 31.0041 39.1002 30.8001V30.4601H39.7802V30.8001C39.7802 31.0041 39.9162 31.1401 40.1202 31.1401C40.3242 31.1401 40.4602 31.0041 40.4602 30.8001V30.4601H41.1402V45.4201H39.7802V38.6881C39.7802 36.3761 38.4882 34.2681 36.2442 33.0441L34.1362 31.8881C34.0002 31.8201 33.9322 31.8201 33.7962 31.8881L31.6882 33.0441C29.5122 34.2681 28.1522 36.3761 28.1522 38.6881V45.4201H26.7922V30.4601H26.8602ZM39.1002 45.4201H28.9002V38.6881C28.9002 36.6481 30.0562 34.7441 32.0282 33.6561L34.0002 32.5681L35.9042 33.6561C37.8762 34.7441 39.1002 36.6481 39.1002 38.6881V45.4201ZM41.8202 30.4601H42.5002V30.8001C42.5002 31.0041 42.6362 31.1401 42.8402 31.1401C43.0442 31.1401 43.1802 31.0041 43.1802 30.8001V30.4601H43.8602V30.8001C43.8602 31.0041 43.9962 31.1401 44.2002 31.1401C44.4042 31.1401 44.5402 31.0041 44.5402 30.8001V30.4601H45.2202V45.4201H41.8202V30.4601ZM49.3002 45.4201H45.9002V30.4601H49.3002V45.4201Z" fill="#594454"/>
<path d="M28.56 33.8595C29.104 33.8595 29.58 33.3835 29.58 32.8395C29.58 32.2955 29.104 31.8195 28.56 31.8195C28.016 31.8195 27.54 32.2955 27.54 32.8395C27.54 33.3835 28.016 33.8595 28.56 33.8595ZM28.56 32.4995C28.764 32.4995 28.9 32.6355 28.9 32.8395C28.9 33.0435 28.764 33.1795 28.56 33.1795C28.356 33.1795 28.22 33.0435 28.22 32.8395C28.22 32.6355 28.356 32.4995 28.56 32.4995ZM39.44 33.8595C39.984 33.8595 40.46 33.3835 40.46 32.8395C40.46 32.2955 39.984 31.8195 39.44 31.8195C38.896 31.8195 38.42 32.2955 38.42 32.8395C38.42 33.3835 38.896 33.8595 39.44 33.8595ZM39.44 32.4995C39.644 32.4995 39.78 32.6355 39.78 32.8395C39.78 33.0435 39.644 33.1795 39.44 33.1795C39.236 33.1795 39.1 33.0435 39.1 32.8395C39.1 32.6355 39.236 32.4995 39.44 32.4995ZM34 25.0195C33.456 25.0195 32.98 25.4955 32.98 26.0395C32.98 26.5835 33.456 27.0595 34 27.0595C34.544 27.0595 35.02 26.5835 35.02 26.0395C35.02 25.4955 34.544 25.0195 34 25.0195ZM34 26.3795C33.796 26.3795 33.66 26.2435 33.66 26.0395C33.66 25.8355 33.796 25.6995 34 25.6995C34.204 25.6995 34.34 25.8355 34.34 26.0395C34.34 26.2435 34.204 26.3795 34 26.3795ZM24.48 38.6195C23.936 38.6195 23.46 39.0955 23.46 39.6395V40.9995C23.46 41.2035 23.596 41.3395 23.8 41.3395H25.16C25.364 41.3395 25.5 41.2035 25.5 40.9995V39.6395C25.5 39.0955 25.024 38.6195 24.48 38.6195ZM24.82 40.6595H24.14V39.6395C24.14 39.4355 24.276 39.2995 24.48 39.2995C24.684 39.2995 24.82 39.4355 24.82 39.6395V40.6595ZM24.48 42.0195C23.936 42.0195 23.46 42.4955 23.46 43.0395V44.3995C23.46 44.6035 23.596 44.7395 23.8 44.7395H25.16C25.364 44.7395 25.5 44.6035 25.5 44.3995V43.0395C25.5 42.4955 25.024 42.0195 24.48 42.0195ZM24.82 44.0595H24.14V43.0395C24.14 42.8355 24.276 42.6995 24.48 42.6995C24.684 42.6995 24.82 42.8355 24.82 43.0395V44.0595ZM43.52 31.8195C42.976 31.8195 42.5 32.2955 42.5 32.8395V34.1995C42.5 34.4035 42.636 34.5395 42.84 34.5395H44.2C44.404 34.5395 44.54 34.4035 44.54 34.1995V32.8395C44.54 32.2955 44.064 31.8195 43.52 31.8195ZM43.86 33.8595H43.18V32.8395C43.18 32.6355 43.316 32.4995 43.52 32.4995C43.724 32.4995 43.86 32.6355 43.86 32.8395V33.8595ZM43.52 35.2195C42.976 35.2195 42.5 35.6955 42.5 36.2395V37.5995C42.5 37.8035 42.636 37.9395 42.84 37.9395H44.2C44.404 37.9395 44.54 37.8035 44.54 37.5995V36.2395C44.54 35.6955 44.064 35.2195 43.52 35.2195ZM43.86 37.2595H43.18V36.2395C43.18 36.0355 43.316 35.8995 43.52 35.8995C43.724 35.8995 43.86 36.0355 43.86 36.2395V37.2595ZM43.52 42.0195C42.976 42.0195 42.5 42.4955 42.5 43.0395V44.3995C42.5 44.6035 42.636 44.7395 42.84 44.7395H44.2C44.404 44.7395 44.54 44.6035 44.54 44.3995V43.0395C44.54 42.4955 44.064 42.0195 43.52 42.0195ZM43.86 44.0595H43.18V43.0395C43.18 42.8355 43.316 42.6995 43.52 42.6995C43.724 42.6995 43.86 42.8355 43.86 43.0395V44.0595ZM43.52 38.6195C42.976 38.6195 42.5 39.0955 42.5 39.6395V40.9995C42.5 41.2035 42.636 41.3395 42.84 41.3395H44.2C44.404 41.3395 44.54 41.2035 44.54 40.9995V39.6395C44.54 39.0955 44.064 38.6195 43.52 38.6195ZM43.86 40.6595H43.18V39.6395C43.18 39.4355 43.316 39.2995 43.52 39.2995C43.724 39.2995 43.86 39.4355 43.86 39.6395V40.6595Z" fill="#594454"/>
</svg>
