<svg width="68" height="55" viewBox="0 0 68 55" fill="none" xmlns="http://www.w3.org/2000/svg">
<path d="M17.8155 30.8594H15.7755C15.5715 30.8594 15.4355 30.9954 15.4355 31.1994V33.9194C15.4355 34.1234 15.5715 34.2594 15.7755 34.2594H17.8155C18.0195 34.2594 18.1555 34.1234 18.1555 33.9194V31.1994C18.1555 30.9954 18.0195 30.8594 17.8155 30.8594ZM17.4755 31.5394V32.2194H16.1155V31.5394H17.4755ZM16.1155 33.5794V32.8994H17.4755V33.5794H16.1155Z" fill="#594454"/>
<path d="M55.8962 42.4198H54.8762V36.2998H55.2162C55.4202 36.2998 55.5562 36.1638 55.5562 35.9598C55.5562 35.7558 55.4202 35.6198 55.2162 35.6198H54.8762V30.1798H55.2162C55.4202 30.1798 55.5562 30.0438 55.5562 29.8398C55.5562 29.6358 55.4202 29.4998 55.2162 29.4998H54.8762V27.4598H55.2162C55.4202 27.4598 55.5562 27.3238 55.5562 27.1198C55.5562 26.9158 55.4202 26.7798 55.2162 26.7798H54.8762V24.3998C54.8762 24.1958 54.7402 24.0598 54.5362 24.0598C54.3322 24.0598 54.1962 24.1958 54.1962 24.3998V24.7398H53.5162V22.6998H53.8562C54.0602 22.6998 54.1962 22.5638 54.1962 22.3598C54.1962 22.1558 54.0602 22.0198 53.8562 22.0198H53.5162C53.5162 21.4078 53.1082 20.8638 52.4962 20.7278V19.6398C52.4962 19.4358 52.3602 19.2998 52.1562 19.2998C51.9522 19.2998 51.8162 19.4358 51.8162 19.6398V20.7278C51.2042 20.8638 50.7962 21.4078 50.7962 22.0198H50.4562C50.2522 22.0198 50.1162 22.1558 50.1162 22.3598C50.1162 22.5638 50.2522 22.6998 50.4562 22.6998H50.7962V24.7398H50.1162V24.3998C50.1162 24.1958 49.9802 24.0598 49.7762 24.0598C49.5722 24.0598 49.4362 24.1958 49.4362 24.3998V26.7798H49.0962C48.8922 26.7798 48.7562 26.9158 48.7562 27.1198C48.7562 27.3238 48.8922 27.4598 49.0962 27.4598H49.4362V28.1398H43.9962V27.4598H44.3362C44.5402 27.4598 44.6762 27.3238 44.6762 27.1198C44.6762 26.9158 44.5402 26.7798 44.3362 26.7798H43.9962V23.3798H44.3362C44.5402 23.3798 44.6762 23.2438 44.6762 23.0398C44.6762 22.8358 44.5402 22.6998 44.3362 22.6998H43.9962C43.8602 22.0198 43.3162 21.4758 42.6362 21.3398V20.3198C42.6362 20.1158 42.5002 19.9798 42.2962 19.9798C42.0922 19.9798 41.9562 20.1158 41.9562 20.3198V21.3398H41.6162C40.8002 21.3398 40.1202 20.7278 39.9842 19.9798H40.9362C41.1402 19.9798 41.2762 19.8438 41.2762 19.6398V18.2798C41.2762 18.0758 41.1402 17.9398 40.9362 17.9398H39.9162V16.5798H40.2562C40.4602 16.5798 40.5962 16.4438 40.5962 16.2398C40.5962 16.0358 40.4602 15.8998 40.2562 15.8998H39.9162C39.6442 13.7918 38.2162 12.0918 36.2442 11.4118V9.09984H36.5842C36.7882 9.09984 36.9242 8.96384 36.9242 8.75984C36.9242 8.55584 36.7882 8.41984 36.5842 8.41984H36.2442C36.1082 7.73984 35.5642 7.19584 34.8842 7.05984V4.67984C34.8842 4.47584 34.7482 4.33984 34.5442 4.33984C34.3402 4.33984 34.2042 4.47584 34.2042 4.67984V7.05984C33.5242 7.19584 32.9802 7.73984 32.8442 8.41984H32.5042C32.3002 8.41984 32.1642 8.55584 32.1642 8.75984C32.1642 8.96384 32.3002 9.09984 32.5042 9.09984H32.8442V11.4118C30.8722 12.0918 29.4442 13.7918 29.1722 15.8998H28.7642C28.5602 15.8998 28.4242 16.0358 28.4242 16.2398C28.4242 16.4438 28.5602 16.5798 28.7642 16.5798H29.1042V17.9398H28.0842C27.8802 17.9398 27.7442 18.0758 27.7442 18.2798V19.6398C27.7442 19.8438 27.8802 19.9798 28.0842 19.9798H29.0362C28.9002 20.7278 28.2202 21.3398 27.4042 21.3398H27.0642V20.3198C27.0642 20.1158 26.9282 19.9798 26.7242 19.9798C26.5202 19.9798 26.3842 20.1158 26.3842 20.3198V21.3398C25.7042 21.4758 25.1602 22.0198 25.0242 22.6998H24.6842C24.4802 22.6998 24.3442 22.8358 24.3442 23.0398C24.3442 23.2438 24.4802 23.3798 24.6842 23.3798H25.0242V26.7798H24.6842C24.4802 26.7798 24.3442 26.9158 24.3442 27.1198C24.3442 27.3238 24.4802 27.4598 24.6842 27.4598H25.0242V28.1398H19.5842V27.4598H19.9242C20.1282 27.4598 20.2642 27.3238 20.2642 27.1198C20.2642 26.9158 20.1282 26.7798 19.9242 26.7798H19.5842V24.3998C19.5842 24.1958 19.4482 24.0598 19.2442 24.0598C19.0402 24.0598 18.9042 24.1958 18.9042 24.3998V24.7398H18.2242V22.6998H18.5642C18.7682 22.6998 18.9042 22.5638 18.9042 22.3598C18.9042 22.1558 18.7682 22.0198 18.5642 22.0198H18.2242C18.2242 21.4078 17.8162 20.8638 17.2042 20.7278V19.6398C17.2042 19.4358 17.0682 19.2998 16.8642 19.2998C16.6602 19.2998 16.5242 19.4358 16.5242 19.6398V20.7278C15.9122 20.8638 15.5042 21.4078 15.5042 22.0198H15.1642C14.9602 22.0198 14.8242 22.1558 14.8242 22.3598C14.8242 22.5638 14.9602 22.6998 15.1642 22.6998H15.5042V24.7398H14.8242V24.3998C14.8242 24.1958 14.6882 24.0598 14.4842 24.0598C14.2802 24.0598 14.1442 24.1958 14.1442 24.3998V26.7798H13.8042C13.6002 26.7798 13.4642 26.9158 13.4642 27.1198C13.4642 27.3238 13.6002 27.4598 13.8042 27.4598H14.1442V29.4998H13.8042C13.6002 29.4998 13.4642 29.6358 13.4642 29.8398C13.4642 30.0438 13.6002 30.1798 13.8042 30.1798H14.1442V35.6198H13.8042C13.6002 35.6198 13.4642 35.7558 13.4642 35.9598C13.4642 36.1638 13.6002 36.2998 13.8042 36.2998H14.1442V42.4198H13.1242C12.9202 42.4198 12.7842 42.5558 12.7842 42.7598C12.7842 42.9638 12.9202 43.0998 13.1242 43.0998H55.9642C56.1682 43.0998 56.3042 42.9638 56.3042 42.7598C56.3042 42.5558 56.1002 42.4198 55.8962 42.4198ZM54.1962 35.6198H50.1162V30.1798H54.1962V35.6198ZM52.1562 21.3398C52.5642 21.3398 52.8362 21.6118 52.8362 22.0198H51.4762C51.4762 21.6118 51.8162 21.3398 52.1562 21.3398ZM51.4762 22.6998H52.8362V24.7398H51.4762V22.6998ZM50.1162 25.4878L51.1362 25.4198H54.1282V26.7798H50.0482V25.4878H50.1162ZM54.1962 27.4598V29.4998H50.1162V27.4598H54.1962ZM49.4362 28.8198V29.4998H49.0962C48.8922 29.4998 48.7562 29.6358 48.7562 29.8398C48.7562 30.0438 48.8922 30.1798 49.0962 30.1798H49.4362V30.8598H43.9962V30.1798H44.3362C44.5402 30.1798 44.6762 30.0438 44.6762 29.8398C44.6762 29.6358 44.5402 29.4998 44.3362 29.4998H43.9962V28.8198H49.4362ZM31.7562 40.3798V34.2598C31.7562 32.7638 32.9802 31.5398 34.4762 31.5398C35.9722 31.5398 37.1962 32.7638 37.1962 34.2598V42.4198H31.7562V40.3798ZM34.4762 30.8598C33.3882 30.8598 32.3682 31.4038 31.7562 32.2198V30.1798H37.1962V32.2198C36.5842 31.4038 35.6322 30.8598 34.4762 30.8598ZM36.1762 29.4998H31.7562V28.1398H37.1962V29.4998H36.1762ZM29.7162 24.7398H31.0762V26.0998H29.7162V24.7398ZM32.7762 24.7398H37.1962V26.0998H31.7562V24.7398H32.7762ZM31.0762 19.9798H31.7562V22.6998H31.0762V19.9798ZM32.4362 19.9798H36.5162V22.6998H35.8362V21.9518C35.8362 21.2038 35.2242 20.5918 34.4762 20.5918C33.7282 20.5918 33.1162 21.2038 33.1162 21.9518V22.6998H32.4362V19.9798ZM37.8762 22.6998H37.1962V19.9798H37.8762V22.6998ZM35.1562 22.6998H33.7962V21.9518C33.7962 21.5438 34.0682 21.2718 34.4762 21.2718C34.8842 21.2718 35.1562 21.5438 35.1562 21.9518V22.6998ZM33.1162 23.3798H35.8362V24.0598H33.1162V23.3798ZM39.2362 26.0998H37.8762V24.7398H39.2362V26.0998ZM29.3762 26.7798H40.5962V27.4598H28.3562V26.7798H29.3762ZM25.6362 28.4798V27.4598H27.6762V27.7998C27.6762 28.0038 27.8122 28.1398 28.0162 28.1398H29.0362V29.4998H25.6362V28.4798ZM29.0362 30.1798V31.7438C28.8322 31.6078 28.6282 31.5398 28.3562 31.5398C28.0842 31.5398 27.8802 31.6078 27.6762 31.7438V30.1798H29.0362ZM29.0362 39.0198H27.6762V37.6598C27.6762 37.2518 27.9482 36.9798 28.3562 36.9798C28.7642 36.9798 29.0362 37.2518 29.0362 37.6598V39.0198ZM28.3562 36.2998C28.0842 36.2998 27.8802 36.3678 27.6762 36.5038V34.9398H29.0362V36.5038C28.8322 36.3678 28.6282 36.2998 28.3562 36.2998ZM29.0362 34.2598H27.6762V32.8998C27.6762 32.4918 27.9482 32.2198 28.3562 32.2198C28.7642 32.2198 29.0362 32.4918 29.0362 32.8998V34.2598ZM27.6762 39.6998H29.0362V42.4198H27.6762V39.6998ZM29.7162 28.1398H31.0762V29.4998H29.7162V28.1398ZM37.8762 28.1398H39.2362V29.4998H37.8762V28.1398ZM41.2762 39.0198H39.9162V37.6598C39.9162 37.2518 40.1882 36.9798 40.5962 36.9798C41.0042 36.9798 41.2762 37.2518 41.2762 37.6598V39.0198ZM40.5962 36.2998C40.3242 36.2998 40.1202 36.3678 39.9162 36.5038V34.9398H41.2762V36.5038C41.0722 36.3678 40.8682 36.2998 40.5962 36.2998ZM41.2762 34.2598H39.9162V32.8998C39.9162 32.4918 40.1882 32.2198 40.5962 32.2198C41.0042 32.2198 41.2762 32.4918 41.2762 32.8998V34.2598ZM39.9162 39.6998H41.2762V42.4198H39.9162V39.6998ZM41.2762 31.7438C41.0722 31.6078 40.8682 31.5398 40.5962 31.5398C40.3242 31.5398 40.1202 31.6078 39.9162 31.7438V30.1798H41.2762V31.7438ZM39.9162 29.4998V28.1398H40.9362C41.1402 28.1398 41.2762 28.0038 41.2762 27.7998V27.4598H43.3162V29.4998H39.9162ZM43.3162 26.7798H42.6362V25.0798C42.6362 24.8758 42.5002 24.7398 42.2962 24.7398C42.0922 24.7398 41.9562 24.8758 41.9562 25.0798V26.7798H41.2762V23.3798H43.3162V26.7798ZM43.2482 22.6998H41.3442C41.4802 22.2918 41.8882 22.0198 42.2962 22.0198C42.7042 22.0198 43.1122 22.2918 43.2482 22.6998ZM41.0042 21.9518C40.8002 22.1558 40.6642 22.4278 40.5962 22.6998H40.2562C40.0522 22.6998 39.9162 22.8358 39.9162 23.0398C39.9162 23.2438 40.0522 23.3798 40.2562 23.3798H40.5962V26.0998H39.9162V24.3998C39.9162 24.1958 39.7802 24.0598 39.5762 24.0598H36.5162V23.3798H38.8962C39.1002 23.3798 39.2362 23.2438 39.2362 23.0398C39.2362 22.8358 39.1002 22.6998 38.8962 22.6998H38.5562V19.9798H39.3042C39.4402 20.9318 40.1202 21.6798 41.0042 21.9518ZM39.2362 17.9398H38.5562V16.5798H39.2362V17.9398ZM31.0762 16.5798H32.4362V17.9398H31.0762V16.5798ZM33.1162 16.5798H35.8362V17.9398H33.1162V16.5798ZM36.5162 16.5798H37.8762V17.9398H36.5162V16.5798ZM34.4762 7.73984C34.9522 7.73984 35.2922 8.01184 35.4282 8.41984H33.5242C33.6602 8.01184 34.0002 7.73984 34.4762 7.73984ZM33.4562 9.09984H35.4962V11.2078C35.2922 11.1398 35.0202 11.1398 34.8162 11.1398V10.1198C34.8162 9.91584 34.6802 9.77984 34.4762 9.77984C34.2722 9.77984 34.1362 9.91584 34.1362 10.1198V11.1398C33.9322 11.1398 33.6602 11.2078 33.4562 11.2078V9.09984ZM34.4762 11.8198C36.8562 11.8198 38.8282 13.5878 39.1682 15.8998H29.7842C30.1242 13.5878 32.0962 11.8198 34.4762 11.8198ZM29.7162 16.5798H30.3962V17.9398H29.7162V16.5798ZM28.3562 18.6198H40.5962V19.2998H28.3562V18.6198ZM29.7162 19.9798H30.4642V22.6998H30.1242C29.9202 22.6998 29.7842 22.8358 29.7842 23.0398C29.7842 23.2438 29.9202 23.3798 30.1242 23.3798H32.5042V24.0598H29.4442C29.2402 24.0598 29.1042 24.1958 29.1042 24.3998V26.0998H28.4242V23.3798H28.7642C28.9682 23.3798 29.1042 23.2438 29.1042 23.0398C29.1042 22.8358 28.9682 22.6998 28.7642 22.6998H28.4242C28.3562 22.4278 28.2202 22.1558 28.0162 21.9518C28.8322 21.6798 29.5802 20.9318 29.7162 19.9798ZM26.6562 22.0198C27.1322 22.0198 27.4722 22.2918 27.6082 22.6998H25.7042C25.8402 22.2918 26.2482 22.0198 26.6562 22.0198ZM27.6762 23.3798V26.7798H26.9962V25.0798C26.9962 24.8758 26.8602 24.7398 26.6562 24.7398C26.4522 24.7398 26.3162 24.8758 26.3162 25.0798V26.7798H25.6362V23.3798H27.6762ZM24.9562 28.8198V29.4998H24.6162C24.4122 29.4998 24.2762 29.6358 24.2762 29.8398C24.2762 30.0438 24.4122 30.1798 24.6162 30.1798H24.9562V30.8598H19.5162V30.1798H19.8562C20.0602 30.1798 20.1962 30.0438 20.1962 29.8398C20.1962 29.6358 20.0602 29.4998 19.8562 29.4998H19.5162V28.8198H24.9562ZM16.7962 21.3398C17.2042 21.3398 17.4762 21.6118 17.4762 22.0198H16.1162C16.1162 21.6118 16.3882 21.3398 16.7962 21.3398ZM16.1162 22.6998H17.4762V24.7398H16.1162V22.6998ZM14.7562 25.4878L15.7082 25.4198H18.7682V26.7798H14.6882V25.4878H14.7562ZM14.7562 27.4598H18.8362V29.4998H14.7562V27.4598ZM14.7562 30.1798H18.8362V35.6198H14.7562V30.1798ZM14.7562 36.2998H18.8362V42.4198H14.7562V36.2998ZM19.5162 36.2998H19.8562C20.0602 36.2998 20.1962 36.1638 20.1962 35.9598C20.1962 35.7558 20.0602 35.6198 19.8562 35.6198H19.5162V31.5398H24.9562V42.4198H19.5162V36.2998ZM25.6362 42.4198V30.1798H26.9962V42.4198H25.6362ZM29.7162 42.4198V30.1798H31.0762V42.4198H29.7162ZM37.8762 42.4198V30.1798H39.2362V42.4198H37.8762ZM41.9562 39.3598V30.1798H43.3162V42.4198H41.9562V39.3598ZM43.9962 31.5398H49.4362V35.6198H49.0962C48.8922 35.6198 48.7562 35.7558 48.7562 35.9598C48.7562 36.1638 48.8922 36.2998 49.0962 36.2998H49.4362V42.4198H43.9962V31.5398ZM50.1162 42.4198V36.2998H54.1962V42.4198H50.1162Z" fill="#594454"/>
<path d="M23.2555 36.9807H21.2155C21.0115 36.9807 20.8755 37.1167 20.8755 37.3207V40.0407C20.8755 40.2447 21.0115 40.3807 21.2155 40.3807H23.2555C23.4595 40.3807 23.5955 40.2447 23.5955 40.0407V37.3207C23.5955 37.1167 23.4595 36.9807 23.2555 36.9807ZM22.9155 37.6607V38.3407H21.5555V37.6607H22.9155ZM22.9155 39.7007H21.5555V39.0207H22.9155V39.7007ZM23.2555 32.2207H21.2155C21.0115 32.2207 20.8755 32.3567 20.8755 32.5607V35.2807C20.8755 35.4847 21.0115 35.6207 21.2155 35.6207H23.2555C23.4595 35.6207 23.5955 35.4847 23.5955 35.2807V32.5607C23.5955 32.3567 23.4595 32.2207 23.2555 32.2207ZM22.9155 32.9007V33.5807H21.5555V32.9007H22.9155ZM22.9155 34.9407H21.5555V34.2607H22.9155V34.9407ZM17.8155 36.9807H15.7755C15.5715 36.9807 15.4355 37.1167 15.4355 37.3207V40.0407C15.4355 40.2447 15.5715 40.3807 15.7755 40.3807H17.8155C18.0195 40.3807 18.1555 40.2447 18.1555 40.0407V37.3207C18.1555 37.1167 18.0195 36.9807 17.8155 36.9807ZM17.4755 39.7007H16.1155V37.6607H17.4755V39.7007Z" fill="#594454"/>
<path d="M34.4757 17.5999C34.6635 17.5999 34.8157 17.4477 34.8157 17.2599C34.8157 17.0721 34.6635 16.9199 34.4757 16.9199C34.288 16.9199 34.1357 17.0721 34.1357 17.2599C34.1357 17.4477 34.288 17.5999 34.4757 17.5999Z" fill="#594454"/>
<path d="M16.7961 28.8206C16.9838 28.8206 17.1361 28.6684 17.1361 28.4806C17.1361 28.2928 16.9838 28.1406 16.7961 28.1406C16.6083 28.1406 16.4561 28.2928 16.4561 28.4806C16.4561 28.6684 16.6083 28.8206 16.7961 28.8206Z" fill="#594454"/>
<path d="M51.1364 34.2594H53.1764C53.3804 34.2594 53.5164 34.1234 53.5164 33.9194V31.1994C53.5164 30.9954 53.3804 30.8594 53.1764 30.8594H51.1364C50.9324 30.8594 50.7964 30.9954 50.7964 31.1994V33.9194C50.7964 34.1234 50.9324 34.2594 51.1364 34.2594ZM51.4764 33.5794V32.8994H52.8364V33.5794H51.4764ZM52.8364 31.5394V32.2194H51.4764V31.5394H52.8364ZM47.7364 36.9794H45.6964C45.4924 36.9794 45.3564 37.1154 45.3564 37.3194V40.0394C45.3564 40.2434 45.4924 40.3794 45.6964 40.3794H47.7364C47.9404 40.3794 48.0764 40.2434 48.0764 40.0394V37.3194C48.0764 37.1154 47.9404 36.9794 47.7364 36.9794ZM46.0364 37.6594H47.3964V38.3394H46.0364V37.6594ZM46.0364 39.6994V39.0194H47.3964V39.6994H46.0364ZM47.7364 32.2194H45.6964C45.4924 32.2194 45.3564 32.3554 45.3564 32.5594V35.2794C45.3564 35.4834 45.4924 35.6194 45.6964 35.6194H47.7364C47.9404 35.6194 48.0764 35.4834 48.0764 35.2794V32.5594C48.0764 32.3554 47.9404 32.2194 47.7364 32.2194ZM46.0364 32.8994H47.3964V33.5794H46.0364V32.8994ZM46.0364 34.9394V34.2594H47.3964V34.9394H46.0364ZM53.1764 36.9794H51.1364C50.9324 36.9794 50.7964 37.1154 50.7964 37.3194V40.0394C50.7964 40.2434 50.9324 40.3794 51.1364 40.3794H53.1764C53.3804 40.3794 53.5164 40.2434 53.5164 40.0394V37.3194C53.5164 37.1154 53.3804 36.9794 53.1764 36.9794ZM52.8364 39.6994H51.4764V37.6594H52.8364V39.6994Z" fill="#594454"/>
<path d="M52.1564 28.8206C52.3442 28.8206 52.4964 28.6684 52.4964 28.4806C52.4964 28.2928 52.3442 28.1406 52.1564 28.1406C51.9686 28.1406 51.8164 28.2928 51.8164 28.4806C51.8164 28.6684 51.9686 28.8206 52.1564 28.8206Z" fill="#594454"/>
</svg>
