<svg width="87" height="58" viewBox="0 0 87 58" fill="none" xmlns="http://www.w3.org/2000/svg">
<path d="M70.4697 41.9045H68.2947V23.6345H69.5997C69.7737 23.6345 69.9477 23.5475 70.0347 23.3735L70.9047 20.7635C70.9917 20.5895 70.9047 20.5025 70.8177 20.3285C70.7307 20.2415 70.6437 20.1545 70.4697 20.1545H68.2947V16.6745H68.7297C68.9907 16.6745 69.1647 16.5005 69.1647 16.2395V13.6295C69.1647 13.3685 68.9907 13.1945 68.7297 13.1945H56.1147V10.1495C56.1147 9.88853 55.9407 9.71453 55.6797 9.71453H55.2447V3.62453C55.2447 2.84153 54.7227 2.14553 53.9397 1.97153V0.579531C53.9397 0.318531 53.7657 0.144531 53.5047 0.144531C53.2437 0.144531 53.0697 0.318531 53.0697 0.579531V1.97153C52.2867 2.14553 51.7647 2.84153 51.7647 3.62453V7.10453H35.2347V3.62453C35.2347 2.84153 34.7127 2.14553 33.9297 1.97153V0.579531C33.9297 0.318531 33.7557 0.144531 33.4947 0.144531C33.2337 0.144531 33.0597 0.318531 33.0597 0.579531V1.97153C32.2767 2.14553 31.7547 2.84153 31.7547 3.62453V9.71453H31.3197C31.0587 9.71453 30.8847 9.88853 30.8847 10.1495V13.1945H18.2697C18.0087 13.1945 17.8347 13.3685 17.8347 13.6295V16.2395C17.8347 16.5005 18.0087 16.6745 18.2697 16.6745H18.7047V20.1545H16.5297C16.3557 20.1545 16.2687 20.2415 16.1817 20.3285C16.0947 20.4155 16.0947 20.5895 16.0947 20.7635L16.9647 23.3735C17.0517 23.5475 17.2257 23.6345 17.3997 23.6345H18.7047V41.9045H16.5297C16.2687 41.9045 16.0947 42.0785 16.0947 42.3395C16.0947 42.6005 16.2687 42.7745 16.5297 42.7745H70.4697C70.7307 42.7745 70.9047 42.6005 70.9047 42.3395C70.9047 42.0785 70.7307 41.9045 70.4697 41.9045ZM69.2517 22.7645H56.1147V21.0245H69.8607L69.2517 22.7645ZM36.1047 10.5845H50.8947V15.8045H36.1047V10.5845ZM55.2447 10.5845V15.8045H51.7647V10.5845H55.2447ZM40.4547 16.6745V20.1545H38.7147V16.6745H40.4547ZM41.3247 16.6745H43.0647V20.1545H41.3247V16.6745ZM43.9347 16.6745H45.6747V20.1545H43.9347V16.6745ZM46.5447 16.6745H48.2847V20.1545H46.5447V16.6745ZM49.1547 16.6745H50.8947V20.1545H49.1547V16.6745ZM51.7647 20.1545V16.6745H55.2447V20.1545H51.7647ZM37.8447 16.6745V20.1545H36.1047V16.6745H37.8447ZM35.2347 20.1545H31.7547V16.6745H35.2347V20.1545ZM35.2347 21.0245V22.7645H31.7547V21.0245H35.2347ZM51.7647 21.0245H55.2447V22.7645H51.7647V21.0245ZM67.4247 20.1545H56.1147V16.6745H67.4247V20.1545ZM68.2947 14.0645V15.8045H56.1147V14.0645H68.2947ZM52.6347 9.71453V5.36453H54.3747V9.71453H52.6347ZM53.5047 2.75453C54.0267 2.75453 54.3747 3.10253 54.3747 3.62453V4.49453H52.6347V3.62453C52.6347 3.10253 52.9827 2.75453 53.5047 2.75453ZM51.7647 7.97453V9.71453H35.2347V7.97453H51.7647ZM33.4947 2.75453C34.0167 2.75453 34.3647 3.10253 34.3647 3.62453V4.49453H32.6247V3.62453C32.6247 3.10253 32.9727 2.75453 33.4947 2.75453ZM32.6247 5.36453H34.3647V9.71453H32.6247V5.36453ZM32.1897 10.5845H35.2347V15.8045H31.7547V10.5845H32.1897ZM18.7047 14.0645H30.8847V15.8045H18.7047V14.0645ZM19.5747 16.6745H30.8847V20.1545H19.5747V16.6745ZM17.1387 21.0245H30.8847V22.7645H17.7477L17.1387 21.0245ZM19.5747 23.6345H30.8847V41.9045H29.5797V31.9865C29.5797 29.6375 28.2747 27.5495 26.0997 26.5055C25.8387 26.3315 25.4907 26.3315 25.1427 26.5055C23.0547 27.5495 21.7497 29.6375 21.6627 31.9865V41.9045H19.4877V23.6345H19.5747ZM23.4897 41.9045H22.6197V32.3345H28.7097V41.9045H27.8397V36.2495C27.8397 33.9875 25.9257 33.2915 25.8387 33.2045H25.5777C25.4907 33.2045 23.4897 33.9875 23.4897 36.2495V41.9045ZM22.6197 31.4645C22.7937 29.6375 23.8377 27.9845 25.5777 27.1145H25.7517C27.4047 27.9845 28.5357 29.5505 28.7097 31.4645H22.6197ZM24.3597 41.9045V36.2495C24.3597 34.9445 25.3167 34.3355 25.6647 34.0745C26.0997 34.3355 26.9697 34.9445 26.9697 36.2495V41.9045H24.3597ZM31.7547 41.9045V23.6345H35.2347V41.9045H31.7547ZM37.8447 41.9045V32.4215C37.8447 29.8115 39.1497 27.3755 41.4117 25.9835L43.4997 24.5915L45.5877 25.8965C47.8497 27.2885 49.1547 29.7245 49.1547 32.4215V41.9915H37.8447V41.9045ZM46.0227 25.2005L43.6737 23.7215C43.4997 23.6345 43.3257 23.6345 43.2387 23.7215L40.8897 25.2005C38.4537 26.7665 36.9747 29.4635 36.9747 32.4215V41.9045H36.1047V21.0245H50.8947V41.9045H50.0247V32.3345C50.0247 29.4635 48.5457 26.7665 46.0227 25.2005ZM51.7647 41.9045V23.6345H55.2447V41.9045H51.7647ZM58.2897 32.3345H64.3797V41.9045H63.5097V36.2495C63.5097 33.9875 61.5957 33.2915 61.5087 33.2045H61.2477C61.1607 33.2045 59.1597 33.9875 59.1597 36.2495V41.9045H58.2897V32.3345ZM58.2897 31.4645C58.4637 29.6375 59.5077 27.9845 61.2477 27.1145H61.4217C63.0747 27.9845 64.2057 29.5505 64.3797 31.4645H58.2897ZM60.0297 41.9045V36.2495C60.0297 34.9445 60.9867 34.3355 61.3347 34.0745C61.7697 34.3355 62.6397 34.9445 62.6397 36.2495V41.9045H60.0297ZM65.2497 41.9045V31.9865C65.2497 29.6375 63.9447 27.5495 61.7697 26.4185C61.5087 26.2445 61.1607 26.2445 60.8127 26.4185C58.7247 27.4625 57.3327 29.6375 57.3327 31.9865V41.9045H56.0277V23.6345H67.3377V41.9045H65.2497Z" fill="#594454"/>
</svg>
