<svg width="50" height="50" viewBox="0 0 50 50" fill="none" xmlns="http://www.w3.org/2000/svg">
<path d="M17.25 8.99023C17.2036 8.99024 17.1581 9.00314 17.1187 9.02752C17.0792 9.05189 17.0473 9.08676 17.0265 9.12823L16.095 10.9902H15.25C15.2036 10.9902 15.1581 11.0031 15.1187 11.0275C15.0792 11.0519 15.0473 11.0868 15.0265 11.1282L13.5265 14.1282C13.5255 14.1302 13.5265 14.1332 13.5255 14.1352C13.5093 14.1677 13.5006 14.2034 13.5 14.2397V15.2397C13.5 15.306 13.5263 15.3696 13.5732 15.4165C13.6201 15.4634 13.6837 15.4897 13.75 15.4897H14.5V19.2637L11.775 18.9912C11.772 18.9912 11.7685 18.9927 11.765 18.9922C11.76 18.9922 11.755 18.9897 11.75 18.9897H6.75C6.745 18.9897 6.74 18.9922 6.735 18.9922L6.725 18.9912L1.725 19.4912C1.66325 19.4971 1.60592 19.5258 1.56429 19.5718C1.52265 19.6178 1.49972 19.6777 1.5 19.7397V45.0002H0.373C0.149 45.0002 0 45.1002 0 45.2502C0 45.4002 0.149 45.5002 0.373 45.5002H49.627C49.851 45.5002 50 45.4002 50 45.2502C50 45.1002 49.851 45.0002 49.627 45.0002H49V19.7397C49.0003 19.6777 48.9773 19.6178 48.9357 19.5718C48.8941 19.5258 48.8368 19.4971 48.775 19.4912L43.775 18.9912C43.772 18.9912 43.7685 18.9927 43.765 18.9922C43.76 18.9922 43.755 18.9897 43.75 18.9897H38.75C38.745 18.9897 38.74 18.9922 38.735 18.9922L38.725 18.9912L36 19.2637V15.4902H36.75C36.8163 15.4902 36.8799 15.4639 36.9268 15.417C36.9737 15.3701 37 15.3065 37 15.2402V14.2402C37 14.2367 36.998 14.2342 36.998 14.2312C36.998 14.2172 36.993 14.2042 36.99 14.1902C36.9865 14.1717 36.9835 14.1532 36.9755 14.1362C36.9745 14.1337 36.975 14.1312 36.9735 14.1287L35.4735 11.1287C35.4527 11.0872 35.4208 11.0523 35.3813 11.0279C35.3419 11.0034 35.2964 10.9904 35.25 10.9902H34.4045L33.4735 9.12873C33.4527 9.08726 33.4208 9.05239 33.3813 9.02802C33.3419 9.00364 33.2964 8.99074 33.25 8.99074H17.25V8.99023ZM17.4045 9.48973H33.095L33.8665 11.0322C33.8196 11.0601 33.7832 11.1027 33.7632 11.1534C33.7431 11.2042 33.7405 11.2601 33.7557 11.3125C33.7709 11.3649 33.8032 11.4108 33.8473 11.4428C33.8914 11.4749 33.945 11.4914 33.9995 11.4897H34.095L34.345 11.9897H16.155L17.405 9.48973H17.4045ZM34.6545 11.4897H35.0955L36.3455 13.9897H34V13.4897H34.75C34.8163 13.4897 34.8799 13.4634 34.9268 13.4165C34.9737 13.3696 35 13.306 35 13.2397V12.2397C34.9997 12.2033 34.9911 12.1674 34.975 12.1347C34.9735 12.1327 34.975 12.1302 34.9735 12.1282L34.6545 11.4897ZM15.4045 11.4902H15.8455L15.5265 12.1282C15.5255 12.1302 15.5265 12.1332 15.5255 12.1352C15.5093 12.1677 15.5006 12.2034 15.5 12.2397V13.2397C15.5 13.306 15.5263 13.3696 15.5732 13.4165C15.6201 13.4634 15.6837 13.4897 15.75 13.4897H16.5V13.9897H14.1545L15.4045 11.4902ZM16 12.4902H34.5V12.9902H16V12.4902ZM17 13.4902H19V15.5642C18.8385 15.5123 18.6696 15.4873 18.5 15.4902C17.9485 15.4902 17.5 15.8547 17.5 16.3027V16.4902C17.4337 16.4902 17.3701 16.5166 17.3232 16.5635C17.2763 16.6103 17.25 16.6739 17.25 16.7402C17.25 16.8065 17.2763 16.8701 17.3232 16.917C17.3701 16.9639 17.4337 16.9902 17.5 16.9902V19.4902H17V13.4902ZM19.5 13.4902H31V16.4902C30.9337 16.4902 30.8701 16.5166 30.8232 16.5635C30.7763 16.6103 30.75 16.6739 30.75 16.7402C30.75 16.8065 30.7763 16.8701 30.8232 16.917C30.8701 16.9639 30.9337 16.9902 31 16.9902V19.4902H30.5L30.502 14.9902C30.502 14.4387 29.941 13.9902 29.251 13.9902C28.841 13.9902 28.479 14.1507 28.251 14.3952C28.0225 14.1507 27.661 13.9902 27.251 13.9902C26.841 13.9902 26.479 14.1507 26.251 14.3952C26.0225 14.1507 25.661 13.9902 25.251 13.9902C24.841 13.9902 24.479 14.1507 24.251 14.3952C24.0225 14.1507 23.661 13.9902 23.251 13.9902C22.841 13.9902 22.479 14.1507 22.251 14.3952C22.0225 14.1507 21.661 13.9902 21.251 13.9902C20.5615 13.9902 20 14.4387 20 14.9902V15.4902C19.9337 15.4902 19.8701 15.5166 19.8232 15.5635C19.7763 15.6103 19.75 15.6739 19.75 15.7402C19.75 15.8065 19.7763 15.8701 19.8232 15.917C19.8701 15.9639 19.9337 15.9902 20 15.9902V19.4902H19.5V13.4902ZM31.5 13.4902H33.5V19.4902H33V16.4902C33.0001 16.458 32.9938 16.426 32.9815 16.3962C32.9936 16.3665 32.9999 16.3348 33 16.3027C33 15.8552 32.5515 15.4902 32 15.4902C31.827 15.4903 31.6562 15.5289 31.5 15.6032V13.4902ZM14 14.4902H16.5V14.9902H14V14.4902ZM21.251 14.4902C21.6475 14.4902 21.995 14.7202 22.001 14.9832L22 14.9902V15.4902C21.9337 15.4902 21.8701 15.5166 21.8232 15.5635C21.7763 15.6103 21.75 15.6739 21.75 15.7402C21.75 15.8065 21.7763 15.8701 21.8232 15.917C21.8701 15.9639 21.9337 15.9902 22 15.9902V18.4902H20.5V15.9902C20.5663 15.9902 20.6299 15.9639 20.6768 15.917C20.7237 15.8701 20.75 15.8065 20.75 15.7402C20.75 15.6739 20.7237 15.6103 20.6768 15.5635C20.6299 15.5166 20.5663 15.4902 20.5 15.4902V14.9902C20.5 14.7242 20.851 14.4902 21.251 14.4902ZM23.251 14.4902C23.6475 14.4902 23.995 14.7202 24.001 14.9832L24 14.9902V15.4902C23.9337 15.4902 23.8701 15.5166 23.8232 15.5635C23.7763 15.6103 23.75 15.6739 23.75 15.7402C23.75 15.8065 23.7763 15.8701 23.8232 15.917C23.8701 15.9639 23.9337 15.9902 24 15.9902V18.4902H22.501L22.502 15.9902C22.5683 15.9902 22.6319 15.9639 22.6788 15.917C22.7257 15.8701 22.752 15.8065 22.752 15.7402C22.752 15.6739 22.7257 15.6103 22.6788 15.5635C22.6319 15.5166 22.5683 15.4902 22.502 15.4902V14.9902L22.501 14.9832C22.507 14.7202 22.8545 14.4902 23.251 14.4902ZM25.251 14.4902C25.6475 14.4902 25.995 14.7202 26.001 14.9832L26 14.9902V15.4902C25.9337 15.4902 25.8701 15.5166 25.8232 15.5635C25.7763 15.6103 25.75 15.6739 25.75 15.7402C25.75 15.8065 25.7763 15.8701 25.8232 15.917C25.8701 15.9639 25.9337 15.9902 26 15.9902V18.4902H24.501L24.502 15.9902C24.5683 15.9902 24.6319 15.9639 24.6788 15.917C24.7257 15.8701 24.752 15.8065 24.752 15.7402C24.752 15.6739 24.7257 15.6103 24.6788 15.5635C24.6319 15.5166 24.5683 15.4902 24.502 15.4902V14.9902L24.501 14.9832C24.507 14.7202 24.8545 14.4902 25.251 14.4902ZM27.251 14.4902C27.6475 14.4902 27.995 14.7202 28.001 14.9832L28 14.9902V15.4902C27.9337 15.4902 27.8701 15.5166 27.8232 15.5635C27.7763 15.6103 27.75 15.6739 27.75 15.7402C27.75 15.8065 27.7763 15.8701 27.8232 15.917C27.8701 15.9639 27.9337 15.9902 28 15.9902V18.4902H26.501L26.502 15.9902C26.5683 15.9902 26.6319 15.9639 26.6788 15.917C26.7257 15.8701 26.752 15.8065 26.752 15.7402C26.752 15.6739 26.7257 15.6103 26.6788 15.5635C26.6319 15.5166 26.5683 15.4902 26.502 15.4902V14.9902L26.501 14.9832C26.507 14.7202 26.8545 14.4902 27.251 14.4902ZM29.251 14.4902C29.651 14.4902 30.002 14.7247 30.002 14.9902V15.4937C29.969 15.493 29.9363 15.499 29.9057 15.5113C29.8751 15.5235 29.8473 15.5419 29.824 15.5652C29.8002 15.5877 29.7813 15.6148 29.7686 15.645C29.7559 15.6751 29.7495 15.7075 29.75 15.7402C29.75 15.8052 29.774 15.8702 29.824 15.9152C29.8695 15.9652 29.935 15.9902 30 15.9902H30.002L30.001 18.4902H28.501L28.502 15.9902C28.5683 15.9902 28.6319 15.9639 28.6788 15.917C28.7257 15.8701 28.752 15.8065 28.752 15.7402C28.752 15.6739 28.7257 15.6103 28.6788 15.5635C28.6319 15.5166 28.5683 15.4902 28.502 15.4902V14.9902L28.501 14.9832C28.507 14.7202 28.8545 14.4902 29.251 14.4902ZM34 14.4902H36.5V14.9902H34V14.4902ZM15 15.4902H16.5V19.4647L15 19.3142V15.4902ZM34 15.4902H35.5V19.3142L34 19.4642V15.4902ZM18.5 15.9902C18.7405 15.9902 19 16.0507 19 16.1852V16.5002C18.9676 16.4984 18.9352 16.5033 18.9049 16.5146C18.8745 16.5259 18.8467 16.5433 18.8234 16.5658C18.8 16.5883 18.7815 16.6153 18.7691 16.6452C18.7566 16.6752 18.7505 16.7073 18.751 16.7397C18.751 16.8047 18.775 16.8697 18.825 16.9147C18.845 16.9387 18.875 16.9597 18.905 16.9697C18.935 16.9847 18.965 16.9897 19 16.9897V18.4897H18V16.9897C18.0663 16.9897 18.1299 16.9634 18.1768 16.9165C18.2237 16.8696 18.25 16.806 18.25 16.7397C18.25 16.6734 18.2237 16.6098 18.1768 16.563C18.1299 16.5161 18.0663 16.4897 18 16.4897V16.3022C18 16.1547 18.214 15.9902 18.5 15.9902ZM32 15.9902C32.286 15.9902 32.5 16.1552 32.5 16.3027C32.5 16.3357 32.5065 16.3672 32.5185 16.3962C32.5062 16.426 32.4999 16.458 32.5 16.4902V16.5002C32.468 16.4983 32.4359 16.5031 32.4058 16.5142C32.3756 16.5253 32.3481 16.5425 32.325 16.5647C32.3012 16.5872 32.2824 16.6143 32.2696 16.6445C32.2569 16.6746 32.2505 16.707 32.251 16.7397C32.251 16.8047 32.275 16.8697 32.325 16.9147C32.345 16.9387 32.375 16.9597 32.405 16.9697C32.435 16.9847 32.465 16.9897 32.5 16.9897V18.4897H31.5V16.9897C31.5663 16.9897 31.6299 16.9634 31.6768 16.9165C31.7237 16.8696 31.75 16.806 31.75 16.7397C31.75 16.6734 31.7237 16.6098 31.6768 16.563C31.6299 16.5161 31.5663 16.4897 31.5 16.4897V16.3022C31.5 16.1547 31.714 15.9902 32 15.9902ZM18 18.9902H19V19.4902H18V18.9902ZM20.5 18.9902H22V19.4902H20.5V18.9902ZM22.5 18.9902H24V19.4902H22.5V18.9902ZM24.5 18.9902H26V19.4902H24.5V18.9902ZM26.5 18.9902H28V19.4902H26.5V18.9902ZM28.5 18.9902H30V19.4902H28.5V18.9902ZM31.5 18.9902H32.5V19.4902H31.5V18.9902ZM7 19.4902H11.5V20.4902H7V19.4902ZM39 19.4902H43.5V20.4902H39V19.4902ZM6.5 19.5162V20.4902H2V19.9667L6.5 19.5162ZM12 19.5162L16.5 19.9662V20.4902H12V19.5152V19.5162ZM38.5 19.5162V20.4902H34V19.9667L38.5 19.5162ZM44 19.5162L48.5 19.9662V20.4902H44V19.5152V19.5162ZM17 19.9902H18.5V20.4902H17V19.9902ZM19 19.9902H31.5V20.9902H19V19.9902ZM32 19.9902H33.5V20.4902H32V19.9902ZM2 20.9902H6.5V25.4902H2V20.9902ZM7 20.9902H11.5V25.4902H7V20.9902ZM12 20.9902H16.5V25.4902H12V20.9902ZM17 20.9902H18.5V21.2402C18.5 21.3065 18.5263 21.3701 18.5732 21.417C18.6201 21.4639 18.6837 21.4902 18.75 21.4902H19V25.5002H17V20.9902ZM32 20.9902H33.5V25.5002H31.5V21.4897H31.75C31.8163 21.4897 31.8799 21.4634 31.9268 21.4165C31.9737 21.3696 32 21.306 32 21.2397V20.9902ZM34 20.9902H38.5V25.4902H34V20.9902ZM39 20.9902H43.5V25.4902H39V20.9902ZM44 20.9902H48.5V25.4902H44V20.9902ZM19.5 21.4902H31V22.4902H19.5V21.4902ZM4.25 21.9902C3.8365 21.9902 3.5 22.3267 3.5 22.7402V24.2402C3.5 24.3065 3.52634 24.3701 3.57322 24.417C3.62011 24.4639 3.6837 24.4902 3.75 24.4902H4.75C4.8163 24.4902 4.87989 24.4639 4.92678 24.417C4.97366 24.3701 5 24.3065 5 24.2402V22.7402C5 22.3267 4.6635 21.9902 4.25 21.9902ZM9.25 21.9902C8.8365 21.9902 8.5 22.3267 8.5 22.7402V24.2402C8.5 24.3065 8.52634 24.3701 8.57322 24.417C8.62011 24.4639 8.6837 24.4902 8.75 24.4902H9.75C9.8163 24.4902 9.87989 24.4639 9.92678 24.417C9.97366 24.3701 10 24.3065 10 24.2402V22.7402C10 22.3267 9.6635 21.9902 9.25 21.9902ZM14.25 21.9902C13.8365 21.9902 13.5 22.3267 13.5 22.7402V24.2402C13.5 24.3065 13.5263 24.3701 13.5732 24.417C13.6201 24.4639 13.6837 24.4902 13.75 24.4902H14.75C14.8163 24.4902 14.8799 24.4639 14.9268 24.417C14.9737 24.3701 15 24.3065 15 24.2402V22.7402C15 22.3267 14.6635 21.9902 14.25 21.9902ZM36.25 21.9902C35.8365 21.9902 35.5 22.3267 35.5 22.7402V24.2402C35.5 24.3065 35.5263 24.3701 35.5732 24.417C35.6201 24.4639 35.6837 24.4902 35.75 24.4902H36.75C36.8163 24.4902 36.8799 24.4639 36.9268 24.417C36.9737 24.3701 37 24.3065 37 24.2402V22.7402C37 22.3267 36.6635 21.9902 36.25 21.9902ZM41.25 21.9902C40.8365 21.9902 40.5 22.3267 40.5 22.7402V24.2402C40.5 24.3065 40.5263 24.3701 40.5732 24.417C40.6201 24.4639 40.6837 24.4902 40.75 24.4902H41.75C41.8163 24.4902 41.8799 24.4639 41.9268 24.417C41.9737 24.3701 42 24.3065 42 24.2402V22.7402C42 22.3267 41.6635 21.9902 41.25 21.9902ZM46.25 21.9902C45.8365 21.9902 45.5 22.3267 45.5 22.7402V24.2402C45.5 24.3065 45.5263 24.3701 45.5732 24.417C45.6201 24.4639 45.6837 24.4902 45.75 24.4902H46.75C46.8163 24.4902 46.8799 24.4639 46.9268 24.417C46.9737 24.3701 47 24.3065 47 24.2402V22.7402C47 22.3267 46.6635 21.9902 46.25 21.9902ZM2.75 22.0002C2.6837 22.0002 2.62011 22.0266 2.57322 22.0735C2.52634 22.1203 2.5 22.1839 2.5 22.2502V24.2502C2.5 24.3165 2.52634 24.3801 2.57322 24.427C2.62011 24.4739 2.6837 24.5002 2.75 24.5002C2.8163 24.5002 2.87989 24.4739 2.92678 24.427C2.97366 24.3801 3 24.3165 3 24.2502V22.2502C3 22.1839 2.97366 22.1203 2.92678 22.0735C2.87989 22.0266 2.8163 22.0002 2.75 22.0002ZM5.75 22.0002C5.6837 22.0002 5.62011 22.0266 5.57322 22.0735C5.52634 22.1203 5.5 22.1839 5.5 22.2502V24.2502C5.5 24.3165 5.52634 24.3801 5.57322 24.427C5.62011 24.4739 5.6837 24.5002 5.75 24.5002C5.8163 24.5002 5.87989 24.4739 5.92678 24.427C5.97366 24.3801 6 24.3165 6 24.2502V22.2502C6 22.1839 5.97366 22.1203 5.92678 22.0735C5.87989 22.0266 5.8163 22.0002 5.75 22.0002ZM7.75 22.0002C7.6837 22.0002 7.62011 22.0266 7.57322 22.0735C7.52634 22.1203 7.5 22.1839 7.5 22.2502V24.2502C7.5 24.3165 7.52634 24.3801 7.57322 24.427C7.62011 24.4739 7.6837 24.5002 7.75 24.5002C7.8163 24.5002 7.87989 24.4739 7.92678 24.427C7.97366 24.3801 8 24.3165 8 24.2502V22.2502C8 22.1839 7.97366 22.1203 7.92678 22.0735C7.87989 22.0266 7.8163 22.0002 7.75 22.0002ZM10.75 22.0002C10.6837 22.0002 10.6201 22.0266 10.5732 22.0735C10.5263 22.1203 10.5 22.1839 10.5 22.2502V24.2502C10.5 24.3165 10.5263 24.3801 10.5732 24.427C10.6201 24.4739 10.6837 24.5002 10.75 24.5002C10.8163 24.5002 10.8799 24.4739 10.9268 24.427C10.9737 24.3801 11 24.3165 11 24.2502V22.2502C11 22.1839 10.9737 22.1203 10.9268 22.0735C10.8799 22.0266 10.8163 22.0002 10.75 22.0002ZM12.75 22.0002C12.6837 22.0002 12.6201 22.0266 12.5732 22.0735C12.5263 22.1203 12.5 22.1839 12.5 22.2502V24.2502C12.5 24.3165 12.5263 24.3801 12.5732 24.427C12.6201 24.4739 12.6837 24.5002 12.75 24.5002C12.8163 24.5002 12.8799 24.4739 12.9268 24.427C12.9737 24.3801 13 24.3165 13 24.2502V22.2502C13 22.1839 12.9737 22.1203 12.9268 22.0735C12.8799 22.0266 12.8163 22.0002 12.75 22.0002ZM15.75 22.0002C15.6837 22.0002 15.6201 22.0266 15.5732 22.0735C15.5263 22.1203 15.5 22.1839 15.5 22.2502V24.2502C15.5 24.3165 15.5263 24.3801 15.5732 24.427C15.6201 24.4739 15.6837 24.5002 15.75 24.5002C15.8163 24.5002 15.8799 24.4739 15.9268 24.427C15.9737 24.3801 16 24.3165 16 24.2502V22.2502C16 22.1839 15.9737 22.1203 15.9268 22.0735C15.8799 22.0266 15.8163 22.0002 15.75 22.0002ZM34.75 22.0002C34.6837 22.0002 34.6201 22.0266 34.5732 22.0735C34.5263 22.1203 34.5 22.1839 34.5 22.2502V24.2502C34.5 24.3165 34.5263 24.3801 34.5732 24.427C34.6201 24.4739 34.6837 24.5002 34.75 24.5002C34.8163 24.5002 34.8799 24.4739 34.9268 24.427C34.9737 24.3801 35 24.3165 35 24.2502V22.2502C35 22.1839 34.9737 22.1203 34.9268 22.0735C34.8799 22.0266 34.8163 22.0002 34.75 22.0002ZM37.75 22.0002C37.6837 22.0002 37.6201 22.0266 37.5732 22.0735C37.5263 22.1203 37.5 22.1839 37.5 22.2502V24.2502C37.5 24.3165 37.5263 24.3801 37.5732 24.427C37.6201 24.4739 37.6837 24.5002 37.75 24.5002C37.8163 24.5002 37.8799 24.4739 37.9268 24.427C37.9737 24.3801 38 24.3165 38 24.2502V22.2502C38 22.1839 37.9737 22.1203 37.9268 22.0735C37.8799 22.0266 37.8163 22.0002 37.75 22.0002ZM39.75 22.0002C39.6837 22.0002 39.6201 22.0266 39.5732 22.0735C39.5263 22.1203 39.5 22.1839 39.5 22.2502V24.2502C39.5 24.3165 39.5263 24.3801 39.5732 24.427C39.6201 24.4739 39.6837 24.5002 39.75 24.5002C39.8163 24.5002 39.8799 24.4739 39.9268 24.427C39.9737 24.3801 40 24.3165 40 24.2502V22.2502C40 22.1839 39.9737 22.1203 39.9268 22.0735C39.8799 22.0266 39.8163 22.0002 39.75 22.0002ZM42.75 22.0002C42.6837 22.0002 42.6201 22.0266 42.5732 22.0735C42.5263 22.1203 42.5 22.1839 42.5 22.2502V24.2502C42.5 24.3165 42.5263 24.3801 42.5732 24.427C42.6201 24.4739 42.6837 24.5002 42.75 24.5002C42.8163 24.5002 42.8799 24.4739 42.9268 24.427C42.9737 24.3801 43 24.3165 43 24.2502V22.2502C43 22.1839 42.9737 22.1203 42.9268 22.0735C42.8799 22.0266 42.8163 22.0002 42.75 22.0002ZM44.75 22.0002C44.6837 22.0002 44.6201 22.0266 44.5732 22.0735C44.5263 22.1203 44.5 22.1839 44.5 22.2502V24.2502C44.5 24.3165 44.5263 24.3801 44.5732 24.427C44.6201 24.4739 44.6837 24.5002 44.75 24.5002C44.8163 24.5002 44.8799 24.4739 44.9268 24.427C44.9737 24.3801 45 24.3165 45 24.2502V22.2502C45 22.1839 44.9737 22.1203 44.9268 22.0735C44.8799 22.0266 44.8163 22.0002 44.75 22.0002ZM47.75 22.0002C47.6837 22.0002 47.6201 22.0266 47.5732 22.0735C47.5263 22.1203 47.5 22.1839 47.5 22.2502V24.2502C47.5 24.3165 47.5263 24.3801 47.5732 24.427C47.6201 24.4739 47.6837 24.5002 47.75 24.5002C47.8163 24.5002 47.8799 24.4739 47.9268 24.427C47.9737 24.3801 48 24.3165 48 24.2502V22.2502C48 22.1839 47.9737 22.1203 47.9268 22.0735C47.8799 22.0266 47.8163 22.0002 47.75 22.0002ZM4.25 22.4897C4.3875 22.4897 4.5 22.6022 4.5 22.7397V23.9897H4V22.7397C4 22.6022 4.1125 22.4897 4.25 22.4897ZM9.25 22.4897C9.3875 22.4897 9.5 22.6022 9.5 22.7397V23.9897H9V22.7397C9 22.6022 9.1125 22.4897 9.25 22.4897ZM14.25 22.4897C14.3875 22.4897 14.5 22.6022 14.5 22.7397V23.9897H14V22.7397C14 22.6022 14.1125 22.4897 14.25 22.4897ZM36.25 22.4897C36.3875 22.4897 36.5 22.6022 36.5 22.7397V23.9897H36V22.7397C36 22.6022 36.1125 22.4897 36.25 22.4897ZM41.25 22.4897C41.3875 22.4897 41.5 22.6022 41.5 22.7397V23.9897H41V22.7397C41 22.6022 41.1125 22.4897 41.25 22.4897ZM46.25 22.4897C46.3875 22.4897 46.5 22.6022 46.5 22.7397V23.9897H46V22.7397C46 22.6022 46.1125 22.4897 46.25 22.4897ZM19.5 22.9897H31V23.7462C30.7849 23.5808 30.5214 23.4907 30.25 23.4897C30.0552 23.4902 29.8633 23.5364 29.6896 23.6245C29.5159 23.7127 29.3654 23.8403 29.25 23.9972C29.1346 23.8403 28.9841 23.7127 28.8104 23.6245C28.6367 23.5364 28.4448 23.4902 28.25 23.4897C28.0552 23.4902 27.8633 23.5364 27.6896 23.6245C27.5159 23.7127 27.3654 23.8403 27.25 23.9972C27.1346 23.8403 26.9841 23.7127 26.8104 23.6245C26.6367 23.5364 26.4448 23.4902 26.25 23.4897C26.0552 23.4902 25.8633 23.5364 25.6896 23.6245C25.5159 23.7127 25.3654 23.8403 25.25 23.9972C25.1346 23.8403 24.9841 23.7127 24.8104 23.6245C24.6367 23.5364 24.4448 23.4902 24.25 23.4897C24.0552 23.4902 23.8633 23.5364 23.6896 23.6245C23.5159 23.7127 23.3654 23.8403 23.25 23.9972C23.1346 23.8403 22.9841 23.7127 22.8104 23.6245C22.6367 23.5364 22.4448 23.4902 22.25 23.4897C22.0552 23.4902 21.8633 23.5364 21.6896 23.6245C21.5159 23.7127 21.3654 23.8403 21.25 23.9972C21.1346 23.8403 20.9841 23.7127 20.8104 23.6245C20.6367 23.5364 20.4448 23.4902 20.25 23.4897C19.9675 23.4897 19.71 23.5877 19.5 23.7462V22.9897ZM20.25 23.9897C20.6635 23.9897 21 24.3262 21 24.7397V25.4067C21 25.4362 21.007 25.4632 21.0165 25.4897H19.5V24.7397C19.5 24.3262 19.8365 23.9897 20.25 23.9897ZM22.25 23.9897C22.6635 23.9897 23 24.3262 23 24.7397V25.4067C23 25.4362 23.007 25.4632 23.0165 25.4897H21.4835C21.4938 25.4632 21.4994 25.4352 21.5 25.4067V24.7397C21.5 24.3262 21.8365 23.9897 22.25 23.9897ZM24.25 23.9897C24.6635 23.9897 25 24.3262 25 24.7397V25.4067C25 25.4362 25.007 25.4632 25.0165 25.4897H23.4835C23.4938 25.4632 23.4994 25.4352 23.5 25.4067V24.7397C23.5 24.3262 23.8365 23.9897 24.25 23.9897ZM26.25 23.9897C26.6635 23.9897 27 24.3262 27 24.7397V25.4067C27 25.4362 27.007 25.4632 27.0165 25.4897H25.4835C25.4938 25.4632 25.4994 25.4352 25.5 25.4067V24.7397C25.5 24.3262 25.8365 23.9897 26.25 23.9897ZM28.25 23.9897C28.6635 23.9897 29 24.3262 29 24.7397V25.4067C29 25.4362 29.007 25.4632 29.0165 25.4897H27.4835C27.4938 25.4632 27.4994 25.4352 27.5 25.4067V24.7397C27.5 24.3262 27.8365 23.9897 28.25 23.9897ZM30.25 23.9897C30.6635 23.9897 31 24.3262 31 24.7397V25.4897H29.4835C29.4938 25.4632 29.4994 25.4352 29.5 25.4067V24.7397C29.5 24.3262 29.8365 23.9897 30.25 23.9897ZM2 25.9897H6.5V26.4897H2V25.9897ZM7 25.9897H11.5V26.4897H7V25.9897ZM12 25.9897H16.5V26.4897H12V25.9897ZM19.5 25.9897H31V26.4897H19.5V25.9897ZM34 25.9897H38.5V26.4897H34V25.9897ZM39 25.9897H43.5V26.4897H39V25.9897ZM44 25.9897H48.5V26.4897H44V25.9897ZM17 26.0002H19V26.4897H17V26.0002ZM31.5 26.0002H33.5V26.4897H31.5V26.0002ZM2 26.9897H6.5V44.9897H2V26.9897ZM7 26.9897H11.5V44.9897H7V26.9897ZM12 26.9897H16.5V44.9897H12V26.9897ZM17 26.9897H19V44.9897H17V26.9897ZM19.5 26.9897H31V44.9897H30V37.5277C29.9984 36.788 29.8046 36.0614 29.4375 35.4193C29.0704 34.7771 28.5426 34.2414 27.906 33.8647L25.628 32.5247C25.5883 32.5013 25.543 32.4893 25.4969 32.49C25.4509 32.4907 25.4059 32.5041 25.367 32.5287L22.9855 34.0287C22.376 34.4096 21.8738 34.9397 21.5263 35.5689C21.1789 36.1981 20.9977 36.9055 21 37.6242V44.9892H19.5V26.9897ZM31.5 26.9897H33.5V44.9897H31.5V26.9897ZM34 26.9897H38.5V44.9897H34V26.9897ZM39 26.9897H43.5V44.9897H39V26.9897ZM44 26.9897H48.5V44.9897H44V26.9897ZM2.75 28.0002C2.6837 28.0002 2.62011 28.0266 2.57322 28.0735C2.52634 28.1203 2.5 28.1839 2.5 28.2502V31.2502C2.5 31.3165 2.52634 31.3801 2.57322 31.427C2.62011 31.4739 2.6837 31.5002 2.75 31.5002C2.8163 31.5002 2.87989 31.4739 2.92678 31.427C2.97366 31.3801 3 31.3165 3 31.2502V28.2502C3 28.1839 2.97366 28.1203 2.92678 28.0735C2.87989 28.0266 2.8163 28.0002 2.75 28.0002ZM4.25 28.0002C4.1837 28.0002 4.12011 28.0266 4.07322 28.0735C4.02634 28.1203 4 28.1839 4 28.2502V31.2502C4 31.3165 4.02634 31.3801 4.07322 31.427C4.12011 31.4739 4.1837 31.5002 4.25 31.5002C4.3163 31.5002 4.37989 31.4739 4.42678 31.427C4.47366 31.3801 4.5 31.3165 4.5 31.2502V28.2502C4.5 28.1839 4.47366 28.1203 4.42678 28.0735C4.37989 28.0266 4.3163 28.0002 4.25 28.0002ZM5.75 28.0002C5.6837 28.0002 5.62011 28.0266 5.57322 28.0735C5.52634 28.1203 5.5 28.1839 5.5 28.2502V31.2502C5.5 31.3165 5.52634 31.3801 5.57322 31.427C5.62011 31.4739 5.6837 31.5002 5.75 31.5002C5.8163 31.5002 5.87989 31.4739 5.92678 31.427C5.97366 31.3801 6 31.3165 6 31.2502V28.2502C6 28.1839 5.97366 28.1203 5.92678 28.0735C5.87989 28.0266 5.8163 28.0002 5.75 28.0002ZM7.75 28.0002C7.6837 28.0002 7.62011 28.0266 7.57322 28.0735C7.52634 28.1203 7.5 28.1839 7.5 28.2502V31.2502C7.5 31.3165 7.52634 31.3801 7.57322 31.427C7.62011 31.4739 7.6837 31.5002 7.75 31.5002C7.8163 31.5002 7.87989 31.4739 7.92678 31.427C7.97366 31.3801 8 31.3165 8 31.2502V28.2502C8 28.1839 7.97366 28.1203 7.92678 28.0735C7.87989 28.0266 7.8163 28.0002 7.75 28.0002ZM9.25 28.0002C9.1837 28.0002 9.12011 28.0266 9.07322 28.0735C9.02634 28.1203 9 28.1839 9 28.2502V31.2502C9 31.3165 9.02634 31.3801 9.07322 31.427C9.12011 31.4739 9.1837 31.5002 9.25 31.5002C9.3163 31.5002 9.37989 31.4739 9.42678 31.427C9.47366 31.3801 9.5 31.3165 9.5 31.2502V28.2502C9.5 28.1839 9.47366 28.1203 9.42678 28.0735C9.37989 28.0266 9.3163 28.0002 9.25 28.0002ZM10.75 28.0002C10.6837 28.0002 10.6201 28.0266 10.5732 28.0735C10.5263 28.1203 10.5 28.1839 10.5 28.2502V31.2502C10.5 31.3165 10.5263 31.3801 10.5732 31.427C10.6201 31.4739 10.6837 31.5002 10.75 31.5002C10.8163 31.5002 10.8799 31.4739 10.9268 31.427C10.9737 31.3801 11 31.3165 11 31.2502V28.2502C11 28.1839 10.9737 28.1203 10.9268 28.0735C10.8799 28.0266 10.8163 28.0002 10.75 28.0002ZM12.75 28.0002C12.6837 28.0002 12.6201 28.0266 12.5732 28.0735C12.5263 28.1203 12.5 28.1839 12.5 28.2502V31.2502C12.5 31.3165 12.5263 31.3801 12.5732 31.427C12.6201 31.4739 12.6837 31.5002 12.75 31.5002C12.8163 31.5002 12.8799 31.4739 12.9268 31.427C12.9737 31.3801 13 31.3165 13 31.2502V28.2502C13 28.1839 12.9737 28.1203 12.9268 28.0735C12.8799 28.0266 12.8163 28.0002 12.75 28.0002ZM14.25 28.0002C14.1837 28.0002 14.1201 28.0266 14.0732 28.0735C14.0263 28.1203 14 28.1839 14 28.2502V31.2502C14 31.3165 14.0263 31.3801 14.0732 31.427C14.1201 31.4739 14.1837 31.5002 14.25 31.5002C14.3163 31.5002 14.3799 31.4739 14.4268 31.427C14.4737 31.3801 14.5 31.3165 14.5 31.2502V28.2502C14.5 28.1839 14.4737 28.1203 14.4268 28.0735C14.3799 28.0266 14.3163 28.0002 14.25 28.0002ZM15.75 28.0002C15.6837 28.0002 15.6201 28.0266 15.5732 28.0735C15.5263 28.1203 15.5 28.1839 15.5 28.2502V31.2502C15.5 31.3165 15.5263 31.3801 15.5732 31.427C15.6201 31.4739 15.6837 31.5002 15.75 31.5002C15.8163 31.5002 15.8799 31.4739 15.9268 31.427C15.9737 31.3801 16 31.3165 16 31.2502V28.2502C16 28.1839 15.9737 28.1203 15.9268 28.0735C15.8799 28.0266 15.8163 28.0002 15.75 28.0002ZM18 28.0002C17.9337 28.0002 17.8701 28.0266 17.8232 28.0735C17.7763 28.1203 17.75 28.1839 17.75 28.2502V31.2502C17.75 31.3165 17.7763 31.3801 17.8232 31.427C17.8701 31.4739 17.9337 31.5002 18 31.5002C18.0663 31.5002 18.1299 31.4739 18.1768 31.427C18.2237 31.3801 18.25 31.3165 18.25 31.2502V28.2502C18.25 28.1839 18.2237 28.1203 18.1768 28.0735C18.1299 28.0266 18.0663 28.0002 18 28.0002ZM21.25 28.0002C21.1837 28.0002 21.1201 28.0266 21.0732 28.0735C21.0263 28.1203 21 28.1839 21 28.2502V31.2502C21 31.3165 21.0263 31.3801 21.0732 31.427C21.1201 31.4739 21.1837 31.5002 21.25 31.5002C21.3163 31.5002 21.3799 31.4739 21.4268 31.427C21.4737 31.3801 21.5 31.3165 21.5 31.2502V28.2502C21.5 28.1839 21.4737 28.1203 21.4268 28.0735C21.3799 28.0266 21.3163 28.0002 21.25 28.0002ZM23.25 28.0002C23.1837 28.0002 23.1201 28.0266 23.0732 28.0735C23.0263 28.1203 23 28.1839 23 28.2502V31.2502C23 31.3165 23.0263 31.3801 23.0732 31.427C23.1201 31.4739 23.1837 31.5002 23.25 31.5002C23.3163 31.5002 23.3799 31.4739 23.4268 31.427C23.4737 31.3801 23.5 31.3165 23.5 31.2502V28.2502C23.5 28.1839 23.4737 28.1203 23.4268 28.0735C23.3799 28.0266 23.3163 28.0002 23.25 28.0002ZM25.25 28.0002C25.1837 28.0002 25.1201 28.0266 25.0732 28.0735C25.0263 28.1203 25 28.1839 25 28.2502V31.2502C25 31.3165 25.0263 31.3801 25.0732 31.427C25.1201 31.4739 25.1837 31.5002 25.25 31.5002C25.3163 31.5002 25.3799 31.4739 25.4268 31.427C25.4737 31.3801 25.5 31.3165 25.5 31.2502V28.2502C25.5 28.1839 25.4737 28.1203 25.4268 28.0735C25.3799 28.0266 25.3163 28.0002 25.25 28.0002ZM27.25 28.0002C27.1837 28.0002 27.1201 28.0266 27.0732 28.0735C27.0263 28.1203 27 28.1839 27 28.2502V31.2502C27 31.3165 27.0263 31.3801 27.0732 31.427C27.1201 31.4739 27.1837 31.5002 27.25 31.5002C27.3163 31.5002 27.3799 31.4739 27.4268 31.427C27.4737 31.3801 27.5 31.3165 27.5 31.2502V28.2502C27.5 28.1839 27.4737 28.1203 27.4268 28.0735C27.3799 28.0266 27.3163 28.0002 27.25 28.0002ZM29.25 28.0002C29.1837 28.0002 29.1201 28.0266 29.0732 28.0735C29.0263 28.1203 29 28.1839 29 28.2502V31.2502C29 31.3165 29.0263 31.3801 29.0732 31.427C29.1201 31.4739 29.1837 31.5002 29.25 31.5002C29.3163 31.5002 29.3799 31.4739 29.4268 31.427C29.4737 31.3801 29.5 31.3165 29.5 31.2502V28.2502C29.5 28.1839 29.4737 28.1203 29.4268 28.0735C29.3799 28.0266 29.3163 28.0002 29.25 28.0002ZM32.5 28.0002C32.4337 28.0002 32.3701 28.0266 32.3232 28.0735C32.2763 28.1203 32.25 28.1839 32.25 28.2502V31.2502C32.25 31.3165 32.2763 31.3801 32.3232 31.427C32.3701 31.4739 32.4337 31.5002 32.5 31.5002C32.5663 31.5002 32.6299 31.4739 32.6768 31.427C32.7237 31.3801 32.75 31.3165 32.75 31.2502V28.2502C32.75 28.1839 32.7237 28.1203 32.6768 28.0735C32.6299 28.0266 32.5663 28.0002 32.5 28.0002ZM34.75 28.0002C34.6837 28.0002 34.6201 28.0266 34.5732 28.0735C34.5263 28.1203 34.5 28.1839 34.5 28.2502V31.2502C34.5 31.3165 34.5263 31.3801 34.5732 31.427C34.6201 31.4739 34.6837 31.5002 34.75 31.5002C34.8163 31.5002 34.8799 31.4739 34.9268 31.427C34.9737 31.3801 35 31.3165 35 31.2502V28.2502C35 28.1839 34.9737 28.1203 34.9268 28.0735C34.8799 28.0266 34.8163 28.0002 34.75 28.0002ZM36.25 28.0002C36.1837 28.0002 36.1201 28.0266 36.0732 28.0735C36.0263 28.1203 36 28.1839 36 28.2502V31.2502C36 31.3165 36.0263 31.3801 36.0732 31.427C36.1201 31.4739 36.1837 31.5002 36.25 31.5002C36.3163 31.5002 36.3799 31.4739 36.4268 31.427C36.4737 31.3801 36.5 31.3165 36.5 31.2502V28.2502C36.5 28.1839 36.4737 28.1203 36.4268 28.0735C36.3799 28.0266 36.3163 28.0002 36.25 28.0002ZM37.75 28.0002C37.6837 28.0002 37.6201 28.0266 37.5732 28.0735C37.5263 28.1203 37.5 28.1839 37.5 28.2502V31.2502C37.5 31.3165 37.5263 31.3801 37.5732 31.427C37.6201 31.4739 37.6837 31.5002 37.75 31.5002C37.8163 31.5002 37.8799 31.4739 37.9268 31.427C37.9737 31.3801 38 31.3165 38 31.2502V28.2502C38 28.1839 37.9737 28.1203 37.9268 28.0735C37.8799 28.0266 37.8163 28.0002 37.75 28.0002ZM39.75 28.0002C39.6837 28.0002 39.6201 28.0266 39.5732 28.0735C39.5263 28.1203 39.5 28.1839 39.5 28.2502V31.2502C39.5 31.3165 39.5263 31.3801 39.5732 31.427C39.6201 31.4739 39.6837 31.5002 39.75 31.5002C39.8163 31.5002 39.8799 31.4739 39.9268 31.427C39.9737 31.3801 40 31.3165 40 31.2502V28.2502C40 28.1839 39.9737 28.1203 39.9268 28.0735C39.8799 28.0266 39.8163 28.0002 39.75 28.0002ZM41.25 28.0002C41.1837 28.0002 41.1201 28.0266 41.0732 28.0735C41.0263 28.1203 41 28.1839 41 28.2502V31.2502C41 31.3165 41.0263 31.3801 41.0732 31.427C41.1201 31.4739 41.1837 31.5002 41.25 31.5002C41.3163 31.5002 41.3799 31.4739 41.4268 31.427C41.4737 31.3801 41.5 31.3165 41.5 31.2502V28.2502C41.5 28.1839 41.4737 28.1203 41.4268 28.0735C41.3799 28.0266 41.3163 28.0002 41.25 28.0002ZM42.75 28.0002C42.6837 28.0002 42.6201 28.0266 42.5732 28.0735C42.5263 28.1203 42.5 28.1839 42.5 28.2502V31.2502C42.5 31.3165 42.5263 31.3801 42.5732 31.427C42.6201 31.4739 42.6837 31.5002 42.75 31.5002C42.8163 31.5002 42.8799 31.4739 42.9268 31.427C42.9737 31.3801 43 31.3165 43 31.2502V28.2502C43 28.1839 42.9737 28.1203 42.9268 28.0735C42.8799 28.0266 42.8163 28.0002 42.75 28.0002ZM44.75 28.0002C44.6837 28.0002 44.6201 28.0266 44.5732 28.0735C44.5263 28.1203 44.5 28.1839 44.5 28.2502V31.2502C44.5 31.3165 44.5263 31.3801 44.5732 31.427C44.6201 31.4739 44.6837 31.5002 44.75 31.5002C44.8163 31.5002 44.8799 31.4739 44.9268 31.427C44.9737 31.3801 45 31.3165 45 31.2502V28.2502C45 28.1839 44.9737 28.1203 44.9268 28.0735C44.8799 28.0266 44.8163 28.0002 44.75 28.0002ZM46.25 28.0002C46.1837 28.0002 46.1201 28.0266 46.0732 28.0735C46.0263 28.1203 46 28.1839 46 28.2502V31.2502C46 31.3165 46.0263 31.3801 46.0732 31.427C46.1201 31.4739 46.1837 31.5002 46.25 31.5002C46.3163 31.5002 46.3799 31.4739 46.4268 31.427C46.4737 31.3801 46.5 31.3165 46.5 31.2502V28.2502C46.5 28.1839 46.4737 28.1203 46.4268 28.0735C46.3799 28.0266 46.3163 28.0002 46.25 28.0002ZM47.75 28.0002C47.6837 28.0002 47.6201 28.0266 47.5732 28.0735C47.5263 28.1203 47.5 28.1839 47.5 28.2502V31.2502C47.5 31.3165 47.5263 31.3801 47.5732 31.427C47.6201 31.4739 47.6837 31.5002 47.75 31.5002C47.8163 31.5002 47.8799 31.4739 47.9268 31.427C47.9737 31.3801 48 31.3165 48 31.2502V28.2502C48 28.1839 47.9737 28.1203 47.9268 28.0735C47.8799 28.0266 47.8163 28.0002 47.75 28.0002ZM22.25 31.9897C21.8365 31.9897 21.5 32.3262 21.5 32.7397C21.5 33.1532 21.8365 33.4897 22.25 33.4897C22.6635 33.4897 23 33.1532 23 32.7397C23 32.3262 22.6635 31.9897 22.25 31.9897ZM28.25 31.9897C27.8365 31.9897 27.5 32.3262 27.5 32.7397C27.5 33.1532 27.8365 33.4897 28.25 33.4897C28.6635 33.4897 29 33.1532 29 32.7397C29 32.3262 28.6635 31.9897 28.25 31.9897ZM22.25 32.4897C22.3875 32.4897 22.5 32.6022 22.5 32.7397C22.5 32.8772 22.3875 32.9897 22.25 32.9897C22.1837 32.9896 22.1202 32.9632 22.0734 32.9164C22.0265 32.8695 22.0001 32.806 22 32.7397C22 32.6022 22.1125 32.4897 22.25 32.4897ZM28.25 32.4897C28.3875 32.4897 28.5 32.6022 28.5 32.7397C28.5 32.8772 28.3875 32.9897 28.25 32.9897C28.1837 32.9896 28.1202 32.9632 28.0734 32.9164C28.0265 32.8695 28.0001 32.806 28 32.7397C28 32.6022 28.1125 32.4897 28.25 32.4897ZM25.505 33.0322L27.6515 34.2952C28.2134 34.6276 28.6792 35.1003 29.0033 35.667C29.3274 36.2337 29.4985 36.8749 29.5 37.5277V44.9897H28.5V37.5537C28.4986 37.0597 28.3689 36.5744 28.1235 36.1456C27.8782 35.7167 27.5257 35.3589 27.1005 35.1072L25.627 34.2402H25.626L25.495 34.1632L25.366 34.2442L23.825 35.2152C23.4183 35.4698 23.0831 35.8239 22.8513 36.244C22.6195 36.6641 22.4986 37.1364 22.5 37.6162V44.9902H21.5V37.6242C21.498 36.9899 21.6579 36.3654 21.9644 35.8101C22.271 35.2547 22.7142 34.7866 23.252 34.4502L25.505 33.0322ZM25.75 34.8927L26.8465 35.5382C27.0535 35.6602 27.2345 35.8152 27.3915 35.9897H25.75V34.8927ZM25.25 34.9082V35.9897H23.66C23.7895 35.8557 23.9345 35.7375 24.092 35.6377L25.25 34.9082ZM27.7335 36.4807C27.857 36.7192 27.9435 36.9782 27.9795 37.2482C27.99 37.3282 27.994 37.4082 27.996 37.4897H25.75V36.4897H27.6875C27.7035 36.4897 27.718 36.4837 27.7335 36.4807ZM23.289 36.4847H23.29C23.298 36.4852 23.305 36.4897 23.3125 36.4897H25.25V37.4897H23.008C23.0246 37.1378 23.1207 36.7942 23.289 36.4847ZM23 37.9897H25.25V38.9897H23V37.9897ZM25.75 37.9897H28V38.9897H25.75V37.9897ZM23 39.4897H25.25V40.4897H23V39.4897ZM25.75 39.4897H28V40.4897H25.75V39.4897ZM23 40.9897H25.25V41.9897H23V40.9897ZM25.75 40.9897H28V41.9897H25.75V40.9897ZM23 42.4897H25.25V43.4897H23V42.4897ZM25.75 42.4897H28V43.4897H25.75V42.4897ZM23 43.9897H25.25V44.9897H23V43.9897ZM25.75 43.9897H28V44.9897H25.75V43.9897Z" fill="#594454"/>
</svg>
